<?xml version="1.0" encoding="UTF-8"?>
<svg version="1.1" xmlns="http://www.w3.org/2000/svg" width="500" height="500">
<path d="M0 0 C0.66 0 1.32 0 2 0 C2.495 0.99 2.495 0.99 3 2 C15.21 2.33 27.42 2.66 40 3 C40 9.6 40 16.2 40 23 C36.04 23.33 32.08 23.66 28 24 C28.77951754 31.14557743 29.83339517 37.97002361 32.42578125 44.703125 C34.11993743 49.13843413 35.22817192 53.63403098 36.3125 58.25 C37.96849263 65.09093212 39.79574888 71.83842032 41.875 78.5625 C44.7020323 87.72569796 47.12485545 96.97488359 49.46435547 106.27368164 C50.84366114 111.71536508 52.3096305 117.09942862 53.98828125 122.45703125 C56.44745878 130.30998121 58.43345295 138.26885981 60.44335938 146.24609375 C61.88146654 151.88913619 63.40342111 157.43906153 65.30541992 162.94335938 C66.46668419 166.38184452 67.41804868 169.87517885 68.375 173.375 C68.58850098 174.14827637 68.80200195 174.92155273 69.02197266 175.71826172 C70.73471036 181.95222484 72.35974077 188.20777444 73.98168945 194.46582031 C75.98135855 202.09347191 78.23289832 209.64248518 80.47509766 217.20166016 C82.62727468 224.53136696 84.4694661 231.87714452 86.078125 239.34375 C86.75238987 242.01795303 87.47605396 244.36113298 88.46875 246.90625 C90.13484358 251.19049063 91.20131665 255.53084902 92.25 260 C94.87648254 270.83833157 97.99145583 281.51384646 101.16992188 292.20117188 C101.93872436 294.79339294 102.69839699 297.38802656 103.453125 299.984375 C105.50482819 307.03621063 107.6013175 314.05644538 110 321 C111.41623216 321.05447047 112.83308191 321.09300508 114.25 321.125 C115.43335938 321.15980469 115.43335938 321.15980469 116.640625 321.1953125 C119.2979611 320.97533435 120.81803622 320.53509841 123 319 C124.01896081 316.00634241 124.12606332 313.21540161 124.12863445 310.07082462 C124.13347112 308.57435196 124.13347112 308.57435196 124.1384055 307.04764754 C124.1368569 305.95378924 124.1353083 304.85993094 124.13371277 303.73292542 C124.1371111 301.98737198 124.1371111 301.98737198 124.14057809 300.20655483 C124.14581877 296.9757861 124.14656204 293.74505231 124.14538372 290.51428068 C124.14517981 287.03023782 124.15069745 283.54620329 124.15544128 280.06216431 C124.16375028 273.23636651 124.16649623 266.41057735 124.16705366 259.58477492 C124.16752865 254.03761926 124.16958256 248.49046645 124.17275429 242.94331169 C124.18156114 227.22107556 124.18617355 211.49884626 124.18542381 195.77660764 C124.18538386 194.92888913 124.1853439 194.08117062 124.18530273 193.20776367 C124.18524141 191.93463619 124.18524141 191.93463619 124.18517885 190.63578897 C124.18477226 176.87540778 124.19434514 163.11505394 124.2084411 149.35468066 C124.22279577 135.23050294 124.2297118 121.10633856 124.22884732 106.98215336 C124.22851507 99.05049957 124.23127486 91.11887447 124.24202538 83.18722725 C124.25111837 76.43515996 124.2533155 69.68313435 124.24651595 62.9310636 C124.2432448 59.4854088 124.24321544 56.03983403 124.2518692 52.59418678 C124.25954455 48.86073832 124.25497383 45.12750187 124.24723816 41.39405823 C124.2549535 39.75661686 124.2549535 39.75661686 124.26282471 38.08609587 C124.25822592 37.08583968 124.25362712 36.0855835 124.24888897 35.05501652 C124.24910634 34.19332106 124.24932371 33.3316256 124.24954766 32.44381815 C124.0608793 29.48725351 124.0608793 29.48725351 122 25 C116.72 24.34 111.44 23.68 106 23 C106 16.4 106 9.8 106 3 C117.04978601 2.95455209 128.09950845 2.91797155 139.14936733 2.89637566 C144.28198701 2.88600314 149.41453862 2.87196549 154.54711914 2.84912109 C159.51383685 2.82715695 164.48048969 2.81538247 169.44725227 2.81024551 C171.3283598 2.80659156 173.20946436 2.79945847 175.09054375 2.78853989 C200.91169238 2.64482349 224.56078404 5.40345325 246 21 C246.99 21.66 247.98 22.32 249 23 C249 23.66 249 24.32 249 25 C249.598125 25.268125 250.19625 25.53625 250.8125 25.8125 C252.99847854 26.99917406 254.41332594 28.09599113 256 30 C256 30.66 256 31.32 256 32 C256.66 32 257.32 32 258 32 C269.862075 47.36810702 272.2474253 64.14483623 271 83 C270.36784056 87.48510198 269.36615712 91.68551233 268 96 C267.69835937 96.96292969 267.39671875 97.92585938 267.0859375 98.91796875 C263.42662982 109.70251373 257.88930875 118.72656761 250 127 C248.515 127.495 248.515 127.495 247 128 C247 128.66 247 129.32 247 130 C246.34 130 245.68 130 245 130 C245 130.66 245 131.32 245 132 C243.25 133.5078125 243.25 133.5078125 241 135.125 C240.2575 135.66382813 239.515 136.20265625 238.75 136.7578125 C238.1725 137.16773438 237.595 137.57765625 237 138 C237.59723877 138.18473877 238.19447754 138.36947754 238.80981445 138.55981445 C254.7450901 143.57396419 271.40331564 149.54846877 284 161 C284 161.66 284 162.32 284 163 C284.56589844 163.24492187 285.13179688 163.48984375 285.71484375 163.7421875 C300.91541402 172.10899712 311.63614191 193.17594194 317.01953125 208.99609375 C319.87544567 218.91441723 321.37449146 228.80962103 321.3125 239.125 C321.30686035 240.12273437 321.3012207 241.12046875 321.29541016 242.1484375 C320.91193155 265.84058103 312.50792818 288.84437676 297 307 C296.34 307 295.68 307 295 307 C295 307.66 295 308.32 295 309 C294.34 309 293.68 309 293 309 C293 309.66 293 310.32 293 311 C292.34 311 291.68 311 291 311 C290.73606445 311.60287842 290.47212891 312.20575684 290.20019531 312.8269043 C288.21310561 316.42476545 285.01108928 318.40249309 281.75 320.8125 C281.03851807 321.34222412 280.32703613 321.87194824 279.59399414 322.41772461 C273.07814258 327.15146292 266.3652848 330.75565983 259 334 C257.93136719 334.50144531 256.86273438 335.00289063 255.76171875 335.51953125 C251.12524154 337.48793763 246.27618932 338.5268082 241.375 339.625 C240.46621094 339.8415625 239.55742187 340.058125 238.62109375 340.28125 C226.24451472 343.09331985 213.74502056 343.1462859 201.11206055 343.11352539 C199.56336468 343.11324259 198.01466869 343.11340306 196.4659729 343.1139679 C192.3036403 343.11425224 188.14133712 343.10841462 183.9790113 343.10139394 C179.61351662 343.09509956 175.2480211 343.09455182 170.88252258 343.09336853 C162.63457031 343.09027303 154.38663144 343.08208387 146.13868505 343.07201904 C136.74074077 343.06080231 127.34279582 343.0553335 117.94484651 343.05032361 C98.62988989 343.03989959 79.31494652 343.02213112 60 343 C60 336.4 60 329.8 60 323 C64.62 323 69.24 323 74 323 C73.46375 321.329375 72.9275 319.65875 72.375 317.9375 C70.44184806 311.66836995 68.75899407 305.35306648 67.125 299 C64.50427582 288.82293731 61.68499888 278.71647917 58.75878906 268.62353516 C57.19769982 263.22602391 55.65994677 257.82178402 54.12255859 252.41748047 C53.01274407 248.52091353 51.8947804 244.6279261 50.734375 240.74609375 C50.36828125 239.50988281 50.0021875 238.27367187 49.625 237 C49.30789062 235.948125 48.99078125 234.89625 48.6640625 233.8125 C48.02195243 231.092975 47.86707519 228.78119602 48 226 C44.16852489 229.52707467 41.56487765 233.03454364 39.1875 237.6875 C38.85057129 238.33396484 38.51364258 238.98042969 38.16650391 239.64648438 C32.93027203 249.8519173 28.38560088 260.39282814 24.1875 271.0625 C18.10353922 286.45525324 11.90838752 302.00110533 3 316 C2.26303455 317.28723298 1.53283909 318.57838965 0.8125 319.875 C-1.02099146 323.03619217 -2.84222579 326.05104191 -5 329 C-5.66 329 -6.32 329 -7 329 C-7.2475 329.61875 -7.495 330.2375 -7.75 330.875 C-9.20628639 333.35068687 -10.37812506 333.95125002 -13 335 C-13 335.66 -13 336.32 -13 337 C-25.36761258 344.22959706 -36.05571172 347.05590117 -50.47265625 344.34765625 C-61.48500132 341.28940071 -71.53414848 335.63968987 -78 326 C-89.19067925 305.85677735 -84.65151467 286.25045307 -79 265 C-78.27197011 262.68994423 -77.49622166 260.40384534 -76.69897461 258.11694336 C-75.460938 254.36737458 -74.59891583 250.52686814 -73.6875 246.6875 C-72.02265414 239.85133003 -70.19230372 233.10021873 -68.125 226.375 C-65.76998364 218.7078766 -63.62180493 211.00170184 -61.5625 203.25 C-59.36431006 194.99161018 -57.09954789 186.76107257 -54.6875 178.5625 C-51.7550394 168.59364771 -48.85976041 158.61492658 -46 148.625 C-45.67879684 147.50337967 -45.67879684 147.50337967 -45.35110474 146.35910034 C-42.21455779 135.39311798 -39.19358514 124.40208452 -36.26171875 113.37939453 C-34.67140366 107.42046866 -32.9653599 101.52451814 -31.08984375 95.6484375 C-29.45469332 90.17449303 -28.02498603 84.64719228 -26.5625 79.125 C-24.7085049 72.13147369 -22.83216682 65.2036628 -20.4375 58.375 C-17.75412873 50.69931009 -15.87505247 42.84407428 -13.96655273 34.94482422 C-13.72493408 33.94596191 -13.48331543 32.94709961 -13.234375 31.91796875 C-13.02006836 31.01844482 -12.80576172 30.1189209 -12.58496094 29.19213867 C-12 27 -12 27 -11 25 C-14.31544299 23.89485234 -17.20410111 23.67892369 -20.6875 23.4375 C-22.770625 23.293125 -24.85375 23.14875 -27 23 C-27 16.4 -27 9.8 -27 3 C-18.09 3 -9.18 3 0 3 C0 2.01 0 1.02 0 0 Z M8 20 C8 20.99 8 21.98 8 23 C8.66 23 9.32 23 10 23 C10 22.01 10 21.02 10 20 C9.34 20 8.68 20 8 20 Z M139 20 C139.33 21.65 139.66 23.3 140 25 C140.33 25 140.66 25 141 25 C141 23.35 141 21.7 141 20 C140.34 20 139.68 20 139 20 Z M159 23 C159 69.2 159 115.4 159 163 C159.495 162.01 159.495 162.01 160 161 C160.66 161 161.32 161 162 161 C162 160.34 162 159.68 162 159 C162.51304687 158.76796875 163.02609375 158.5359375 163.5546875 158.296875 C166.90534299 156.51985004 169.99168256 154.37787627 173.125 152.25 C181.93776286 146.33169253 190.78674421 141.06134394 200.31640625 136.36328125 C206.65599909 133.14273118 212.71587984 128.76745063 218 124 C218 123.34 218 122.68 218 122 C218.59167969 121.75765625 219.18335938 121.5153125 219.79296875 121.265625 C228.01689766 116.54960205 234.11899075 102.72009458 236.59521484 93.87353516 C240.17599536 78.45047955 240.85671277 61.28897903 233 47 C225.25064148 35.55820685 216.15648125 28.94694438 203 25 C187.76681992 22.1232054 187.76681992 22.1232054 159 23 Z M17 55 C18 57 18 57 18 57 Z M0 60 C-0.20753906 60.8765625 -0.41507813 61.753125 -0.62890625 62.65625 C-3.93567189 76.27071607 -7.93304799 89.67161199 -11.92041016 103.09960938 C-15.29756015 114.48098473 -18.60171121 125.84609878 -21.31494141 137.40722656 C-22.35924304 141.7811177 -23.67008789 145.88250344 -25.30371094 150.06982422 C-26.42139183 153.16813598 -27.06176873 156.34534344 -27.75 159.5625 C-29.29207818 166.46143287 -31.20926388 173.18981004 -33.3125 179.9375 C-35.96921552 188.47673691 -38.43550826 197.04900909 -40.75 205.6875 C-41.17212769 207.26229126 -41.17212769 207.26229126 -41.6027832 208.86889648 C-42.96458363 213.99015909 -44.27202536 219.11828315 -45.515625 224.26953125 C-46.52226961 228.34290723 -47.750935 232.17300619 -49.29443359 236.06835938 C-50.62333772 239.70652181 -51.42961741 243.48378408 -52.3125 247.25 C-53.58702413 252.60449784 -54.91546805 257.89282685 -56.65625 263.1171875 C-59.4034759 271.36607578 -61.55470628 278.99888796 -61.625 287.75 C-61.63571533 288.46430176 -61.64643066 289.17860352 -61.6574707 289.91455078 C-61.47295205 296.74576979 -58.74130964 302.23091799 -54.25 307.3125 C-48.49694251 312.60531289 -40.66219272 314.20163665 -33 314 C-27.51600641 312.94672504 -22.99948464 310.99948464 -19 307 C-19 306.34 -19 305.68 -19 305 C-18.34 305 -17.68 305 -17 305 C-15.16108987 302.53592141 -13.46970076 300.08357765 -11.8125 297.5 C-11.31637207 296.7268042 -10.82024414 295.9536084 -10.30908203 295.15698242 C-5.66263015 287.73974528 -2.22823843 280.11131729 1 272 C2.51540765 268.24779257 4.03820061 264.49860299 5.5625 260.75 C5.94792969 259.79971924 6.33335937 258.84943848 6.73046875 257.87036133 C9.50993646 251.06625769 12.59043783 244.51163067 16 238 C16.60872993 236.77244512 17.21399643 235.54316873 17.81640625 234.3125 C18.12755371 233.67892578 18.43870117 233.04535156 18.75927734 232.39257812 C19.63564036 230.60573801 20.51120471 228.81850625 21.38671875 227.03125 C23 224 23 224 24.70703125 221.78125 C26.29371639 219.96220514 26.29371639 219.96220514 26 217 C26.66 217 27.32 217 28 217 C28.86091118 215.62254211 29.72171273 214.24501562 30.58203125 212.8671875 C33.48497279 209.04458129 37.34295584 206.07879358 41 203 C40.38251126 200.22729571 39.75637544 197.45704402 39.125 194.6875 C38.95097656 193.90181641 38.77695313 193.11613281 38.59765625 192.30664062 C38.33662109 191.1706543 38.33662109 191.1706543 38.0703125 190.01171875 C37.91320801 189.31522217 37.75610352 188.61872559 37.59423828 187.90112305 C37.00486607 185.70265788 37.00486607 185.70265788 35 183 C34.51879883 181.08422852 34.51879883 181.08422852 34.14453125 178.81640625 C32.76638298 171.41036896 30.69079009 164.19270266 28.6875 156.9375 C28.27810674 155.44486047 27.86884648 153.95218446 27.4597168 152.45947266 C25.47728734 145.24481208 23.46648752 138.04064113 21.3125 130.875 C19.38606756 124.45355855 17.67195015 117.99215245 16 111.5 C13.91454028 103.40405369 11.70158907 95.36848705 9.29296875 87.36328125 C8.29600147 84.03823533 7.35308468 80.70060507 6.42578125 77.35546875 C6.02359375 75.91324951 6.02359375 75.91324951 5.61328125 74.44189453 C5.08852026 72.5549948 4.56880041 70.66668419 4.0546875 68.77685547 C3.69697266 67.49705811 3.69697266 67.49705811 3.33203125 66.19140625 C3.12296143 65.43029541 2.9138916 64.66918457 2.69848633 63.88500977 C2.07311686 61.79487796 2.07311686 61.79487796 0 60 Z M38 130 C39 132 39 132 39 132 Z M194 162 C194 162.66 194 163.32 194 164 C193.443125 164.10570312 192.88625 164.21140625 192.3125 164.3203125 C179.82228407 167.99142326 167.1184362 180.88557453 161 192 C160.65256304 192.59210644 160.30512608 193.18421288 159.94716072 193.79426193 C158.81009407 196.44225096 158.75375638 198.38570337 158.75949097 201.26446533 C158.75674164 202.3301474 158.75399231 203.39582947 158.75115967 204.49380493 C158.75835022 205.65761688 158.76554077 206.82142883 158.77294922 208.02050781 C158.77265717 209.25004181 158.77236511 210.47957581 158.77206421 211.74636841 C158.77321847 215.11388905 158.78324604 218.4811642 158.79721212 221.8486414 C158.80971815 225.36936278 158.81088988 228.89008747 158.81326294 232.41082764 C158.81947809 239.07601098 158.83588937 245.74112869 158.85596192 252.40628314 C158.87831984 259.99509772 158.88931408 267.58391544 158.89935279 275.17275476 C158.92025557 290.78187452 158.95543222 306.39092879 159 322 C166.8765416 322.02331808 174.75307489 322.04101325 182.62964249 322.05181217 C186.28826377 322.05699885 189.94686119 322.06401852 193.60546875 322.07543945 C197.14571106 322.08641991 200.68593062 322.09230845 204.22618866 322.09487724 C206.21332043 322.09758498 208.20044323 322.1053721 210.18756104 322.11329651 C226.36829226 322.11428181 242.19940953 321.27907326 255 310 C255 309.34 255 308.68 255 308 C255.66 308 256.32 308 257 308 C257 307.34 257 306.68 257 306 C257.99 305.67 258.98 305.34 260 305 C271.23685615 293.56382046 277.51353246 279.3820715 281 264 C281.18473877 263.18684326 281.36947754 262.37368652 281.55981445 261.53588867 C286.6771882 236.58096409 284.24912482 207.64866759 270.0859375 186.0859375 C259.24251558 170.55346827 245.37262758 160.62636053 226.5625 157.1875 C214.03485163 155.15910815 204.92305938 154.64499408 194 162 Z M141 189 C141 191.97 141 194.94 141 198 C143.5654594 195.4345406 143.54046087 193.52313332 144 190 C143.01 189.67 142.02 189.34 141 189 Z M297 207 C297.144375 207.80695313 297.28875 208.61390625 297.4375 209.4453125 C300.545884 229.77932453 300.37011492 250.89294274 296 271 C295.65572492 272.99814558 295.31829052 274.99755093 295 277 C298.11702689 273.48195211 299.31138736 269.54425239 300.625 265.125 C300.8415625 264.43019531 301.058125 263.73539062 301.28125 263.01953125 C306.30522466 246.55205875 305.74700372 227.24153226 300 211 C298.49882941 208.62610842 298.49882941 208.62610842 297 207 Z M62 217 C63 219 63 219 63 219 Z M294 277 C295 279 295 279 295 279 Z M293 279 C294 281 294 281 294 281 Z M86 303 C87 305 87 305 87 305 Z M140 320 C139.67 321.98 139.34 323.96 139 326 C139.66 326 140.32 326 141 326 C141 324.02 141 322.04 141 320 C140.67 320 140.34 320 140 320 Z M91 322 C91 323.32 91 324.64 91 326 C91.66 326 92.32 326 93 326 C92.34 324.68 91.68 323.36 91 322 Z " fill="#FC6F07" transform="translate(125,70)"/>
<path d="M0 0 C4.60849627 4.15888688 7.09914837 8.27146611 7.80078125 14.390625 C8.02383634 20.91792134 6.64874314 25.9810485 2.13671875 30.8515625 C-2.69199858 35.11880107 -6.93355387 36.76492873 -13.390625 36.55859375 C-19.86621109 35.78004046 -24.51236297 32.28271996 -28.4375 27.3125 C-31.85207674 21.99702486 -31.21299162 15.34784784 -30.4375 9.3125 C-28.16673766 4.27733133 -24.53032918 0.53245118 -19.4375 -1.6875 C-12.82565782 -3.34046055 -6.13769421 -3.01304989 0 0 Z M-14.4375 15.3125 C-13.7775 16.6325 -13.1175 17.9525 -12.4375 19.3125 C-11.4475 18.9825 -10.4575 18.6525 -9.4375 18.3125 C-9.7675 16.9925 -10.0975 15.6725 -10.4375 14.3125 C-12.5120356 14.1634288 -12.5120356 14.1634288 -14.4375 15.3125 Z " fill="#FA720C" transform="translate(451.4375,376.6875)"/>
<path d="M0 0 C0.99 0 1.98 0 3 0 C3.33 45.54 3.66 91.08 4 138 C4.66 138.33 5.32 138.66 6 139 C5.505 139.99 5.505 139.99 5 141 C3.35 141 1.7 141 0 141 C0 94.47 0 47.94 0 0 Z " fill="#EF964E" transform="translate(281,93)"/>
<path d="M0 0 C0.66 0.33 1.32 0.66 2 1 C2.02286861 38.29242333 2.04049937 75.58484561 2.05106533 112.87727454 C2.0523161 117.27593043 2.05361041 121.67458631 2.05493164 126.07324219 C2.05519395 126.94896769 2.05545626 127.8246932 2.05572652 128.72695585 C2.06008264 142.92286569 2.06796988 157.1187715 2.0771528 171.31467895 C2.08649093 185.8715081 2.09205595 200.42833513 2.09408849 214.98516715 C2.09546339 223.97382681 2.09981217 232.96247508 2.10791647 241.95113124 C2.11318589 248.1076708 2.11480384 254.26420442 2.11350138 260.42074607 C2.11285831 263.97736966 2.11387204 267.53397327 2.11920547 271.09059334 C2.12493475 274.93909571 2.12299887 278.78757169 2.12025452 282.63607788 C2.12316736 283.77030005 2.1260802 284.90452222 2.12908131 286.07311475 C2.12709026 287.09773175 2.12509921 288.12234875 2.12304783 289.17801476 C2.12342755 290.06731977 2.12380727 290.95662478 2.1241985 291.87287843 C2 294 2 294 1 296 C-2.32098907 297.2202704 -5.61935675 297.13361337 -9.125 297.125 C-10.70667969 297.12886719 -10.70667969 297.12886719 -12.3203125 297.1328125 C-15 297 -15 297 -17 296 C-19.46863195 290.7230161 -20.36844295 285.77227287 -20 280 C-20.66 280 -21.32 280 -22 280 C-23.28317892 276.15046324 -23.06643637 273.05261865 -23 269 C-20.72832293 271.27167707 -20.49442718 272.35920063 -19.78125 275.4296875 C-19.57113281 276.30753906 -19.36101562 277.18539063 -19.14453125 278.08984375 C-18.93183594 279.00894531 -18.71914062 279.92804688 -18.5 280.875 C-18.07736217 282.68593908 -17.65042691 284.49588178 -17.21875 286.3046875 C-16.9393457 287.5110083 -16.9393457 287.5110083 -16.65429688 288.74169922 C-15.99888022 291.00386492 -15.11902449 292.93288024 -14 295 C-12.58376784 295.05447047 -11.16691809 295.09300508 -9.75 295.125 C-8.56664062 295.15980469 -8.56664062 295.15980469 -7.359375 295.1953125 C-4.7020389 294.97533435 -3.18196378 294.53509841 -1 293 C0.03065461 289.98191089 0.1244217 287.16529295 0.12304783 283.99438858 C0.12503888 282.97972306 0.12702993 281.96505755 0.12908131 280.91964459 C0.12616847 279.8068119 0.12325563 278.69397921 0.12025452 277.54742432 C0.12110894 276.36385998 0.12196337 275.18029565 0.12284368 273.96086574 C0.12420735 270.67482613 0.12107694 267.38884591 0.11606562 264.10281348 C0.11175126 260.55956507 0.11320825 257.01631853 0.1139679 253.47306824 C0.1144925 247.33386042 0.11135228 241.19466322 0.10573006 235.05545807 C0.09760653 226.17917448 0.09499896 217.30289603 0.09374207 208.42660913 C0.09155289 194.02577687 0.08489644 179.62495028 0.07543945 165.22412109 C0.06626187 151.23421253 0.05918273 137.2443055 0.05493164 123.25439453 C0.05466892 122.3922037 0.05440619 121.53001288 0.05413551 120.64169505 C0.05283048 116.31638101 0.05156677 111.99106695 0.05032361 107.66575289 C0.03995518 71.77716459 0.0223405 35.88858274 0 0 Z " fill="#EE7C27" transform="translate(249,96)"/>
<path d="M0 0 C0.66 0.66 1.32 1.32 2 2 C1.57584242 2.64538632 1.15168484 3.29077265 0.714674 3.95571613 C-3.82148904 11.42359757 -4.86572515 17.17108315 -4.77294922 25.81518555 C-4.78357895 27.04574173 -4.79420868 28.27629791 -4.80516052 29.54414368 C-4.8282715 32.88293177 -4.82533383 36.21970132 -4.81029272 39.55839896 C-4.80084756 43.06050356 -4.82542283 46.56237532 -4.84622192 50.06440735 C-4.88042862 56.67983556 -4.8845197 63.29491746 -4.87749684 69.91041642 C-4.87098268 77.44872165 -4.89848916 84.98678646 -4.92869925 92.52502 C-4.99002937 108.01671956 -5.00913726 123.50817189 -5 139 C-5.66 139 -6.32 139 -7 139 C-7.0233736 123.06641854 -7.0410011 107.13284172 -7.05181217 91.19924736 C-7.05696564 83.80079449 -7.06399028 76.40235228 -7.07543945 69.00390625 C-7.08541526 62.55446558 -7.09186033 56.10503263 -7.09408849 49.65558445 C-7.09539067 46.24153953 -7.09844537 42.82751669 -7.10573006 39.41347885 C-7.11297978 35.59969518 -7.11398927 31.78595741 -7.11352539 27.97216797 C-7.11712067 26.84359879 -7.12071594 25.7150296 -7.12442017 24.55226135 C-7.11788339 19.59170712 -7.06660495 14.87257816 -6 10 C-5.34 10 -4.68 10 -4 10 C-4 7.69 -4 5.38 -4 3 C-2.68 3 -1.36 3 0 3 C0 2.01 0 1.02 0 0 Z " fill="#EDA871" transform="translate(289,253)"/>
<path d="M0 0 C4.62 0 9.24 0 14 0 C14 0.33 14 0.66 14 1 C10.04 1 6.08 1 2 1 C2 6.61 2 12.22 2 18 C3.49772949 17.99476318 4.99545898 17.98952637 6.53857422 17.98413086 C13.98403766 17.96073036 21.42950705 17.94660215 28.875 17.9375 C29.56997967 17.93664398 30.26495934 17.93578796 30.98099899 17.93490601 C59.3438954 17.90425694 87.70176734 18.16757747 116.0625 18.5 C117.59334354 18.51793673 117.59334354 18.51793673 119.15511322 18.53623581 C131.77015374 18.68461406 144.38511117 18.83925716 157 19 C157 19.33 157 19.66 157 20 C105.19 20 53.38 20 0 20 C0 13.4 0 6.8 0 0 Z " fill="#EEA475" transform="translate(185,393)"/>
<path d="M0 0 C0.99 0 1.98 0 3 0 C3.06058594 0.56847656 3.12117187 1.13695312 3.18359375 1.72265625 C3.67196258 10.20518544 3.67196258 10.20518544 6.125 18.125 C7.32398098 20.69424496 6.74097443 22.33249205 6 25 C6.66 25 7.32 25 8 25 C10.73040466 29.6644413 11 32.68114081 11 38 C11.67537513 39.67235746 12.35739167 41.34427252 13.1328125 42.97265625 C15.44958122 48.38888582 17 54.11811345 17 60 C17.66 60.33 18.32 60.66 19 61 C19.58632637 63.18699737 20.06945574 65.40208125 20.5 67.625 C21.64960936 73.43302877 21.64960936 73.43302877 23.25 79.125 C24.02250159 82.08625611 23.84985608 83.17119335 23 86 C22.73445313 85.05898438 22.46890625 84.11796875 22.1953125 83.1484375 C21.84210938 81.90320313 21.48890625 80.65796875 21.125 79.375 C20.77695313 78.14523437 20.42890625 76.91546875 20.0703125 75.6484375 C18.86375489 71.53557323 17.59218893 67.48047232 16 63.5 C14.87924105 60.69810263 13.93780601 57.86858309 13 55 C12.76152344 54.29488281 12.52304688 53.58976562 12.27734375 52.86328125 C11.06017872 49.26071741 9.89724205 45.68027068 8.9375 42 C8.628125 41.01 8.31875 40.02 8 39 C7.34 38.67 6.68 38.34 6 38 C5.62109375 35.8203125 5.62109375 35.8203125 5.4375 33.125 C5.22371654 30.13203161 4.95571043 27.8671313 4 25 C4.27769908 22.6593935 4.60539977 20.32375692 5 18 C4.34 18 3.68 18 3 18 C2.49309416 15.93918639 1.99475381 13.87626474 1.5 11.8125 C1.2215625 10.66394531 0.943125 9.51539063 0.65625 8.33203125 C0.08504615 5.43181171 -0.13283779 2.93903615 0 0 Z " fill="#F6700F" transform="translate(181,264)"/>
<path d="M0 0 C11.04978601 -0.04544791 22.09950845 -0.08202845 33.14936733 -0.10362434 C38.28198701 -0.11399686 43.41453862 -0.12803451 48.54711914 -0.15087891 C53.51383685 -0.17284305 58.48048969 -0.18461753 63.44725227 -0.18975449 C65.3283598 -0.19340844 67.20946436 -0.20054153 69.09054375 -0.21146011 C83.22451481 -0.29012754 97.37724811 -0.19401795 111 4 C107.59402471 5.1321774 105.25552359 4.82739122 101.76953125 4.1015625 C94.09496238 2.72511383 86.45947485 2.53222696 78.6875 2.375 C77.51583282 2.346978 77.51583282 2.346978 76.32049561 2.31838989 C51.55407349 1.7277428 26.77127863 1.91157973 2 2 C2 6.95 2 11.9 2 17 C4.83269666 18.41634833 7.47466438 18.3463005 10.625 18.5625 C11.81351563 18.64628906 13.00203125 18.73007813 14.2265625 18.81640625 C15.59941406 18.90728516 15.59941406 18.90728516 17 19 C17.33 20.32 17.66 21.64 18 23 C17.2575 22.690625 16.515 22.38125 15.75 22.0625 C10.51000882 20.57783583 5.43331066 20.36222071 0 20 C0 13.4 0 6.8 0 0 Z " fill="#E07D34" transform="translate(231,73)"/>
<path d="M0 0 C0.33 0 0.66 0 1 0 C1.023131 13.26460336 1.04091897 26.52920195 1.05181217 39.79382133 C1.05703933 45.95256129 1.06413398 52.11128749 1.07543945 58.27001953 C1.08627422 64.20924134 1.0922781 70.14844989 1.09487724 76.08768082 C1.09673042 78.35797459 1.100349 80.6282676 1.10573006 82.89855576 C1.11294828 86.06894268 1.11399061 89.2392742 1.11352539 92.40966797 C1.11712067 93.35625275 1.12071594 94.30283752 1.12442017 95.27810669 C1.1230455 96.13909973 1.12167084 97.00009277 1.12025452 97.88717651 C1.12117631 98.637516 1.1220981 99.38785549 1.12304783 100.16093254 C1 102 1 102 0 104 C-3.32098907 105.2202704 -6.61935675 105.13361337 -10.125 105.125 C-11.70667969 105.12886719 -11.70667969 105.12886719 -13.3203125 105.1328125 C-16 105 -16 105 -18 104 C-20.46863195 98.7230161 -21.36844295 93.77227287 -21 88 C-21.66 88 -22.32 88 -23 88 C-24.28317892 84.15046324 -24.06643637 81.05261865 -24 77 C-21.72832293 79.27167707 -21.49442718 80.35920063 -20.78125 83.4296875 C-20.46607422 84.74646484 -20.46607422 84.74646484 -20.14453125 86.08984375 C-19.82548828 87.46849609 -19.82548828 87.46849609 -19.5 88.875 C-19.07736217 90.68593908 -18.65042691 92.49588178 -18.21875 94.3046875 C-18.03248047 95.10890137 -17.84621094 95.91311523 -17.65429688 96.74169922 C-16.99888022 99.00386492 -16.11902449 100.93288024 -15 103 C-13.58376784 103.05447047 -12.16691809 103.09300508 -10.75 103.125 C-9.96109375 103.14820313 -9.1721875 103.17140625 -8.359375 103.1953125 C-5.7020389 102.97533435 -4.18196378 102.53509841 -2 101 C-1.09286014 98.25436576 -0.86787843 95.71459307 -0.84178162 92.83648682 C-0.8319928 92.01481522 -0.82220398 91.19314362 -0.81211853 90.34657288 C-0.80636307 89.45393234 -0.8006076 88.56129181 -0.79467773 87.64160156 C-0.78477814 86.69492111 -0.77487854 85.74824066 -0.76467896 84.77287292 C-0.73310546 81.64548234 -0.70832286 78.51807657 -0.68359375 75.390625 C-0.66302065 73.22157396 -0.64202408 71.05252689 -0.62062073 68.88348389 C-0.5654369 63.17563092 -0.51601131 57.46774199 -0.46777344 51.75982666 C-0.41753152 45.93490398 -0.36185949 40.1100335 -0.30664062 34.28515625 C-0.19910415 22.85681543 -0.09764912 11.42842928 0 0 Z " fill="#EF7B26" transform="translate(250,288)"/>
<path d="M0 0 C1.65 0 3.3 0 5 0 C5.02578125 1.18335937 5.0515625 2.36671875 5.078125 3.5859375 C5.36571287 12.55621132 6.03029365 19.82522922 10 28 C11.50899128 32.52697385 12.23278689 36.22786877 12 41 C12.66 41 13.32 41 14 41 C14.33 44.63 14.66 48.26 15 52 C15.66 52 16.32 52 17 52 C18.99785435 56.1205746 19.17835515 59.45194365 19 64 C18.34 64 17.68 64 17 64 C13.96089654 58.053928 13.34773428 52.63093294 13 46 C12.34 46 11.68 46 11 46 C10.66226563 44.83082031 10.32453125 43.66164062 9.9765625 42.45703125 C9.52617263 40.90881606 9.0756445 39.36064109 8.625 37.8125 C8.40328125 37.04357422 8.1815625 36.27464844 7.953125 35.48242188 C6.63168435 30.94634407 6.63168435 30.94634407 4.93359375 26.54296875 C3.49889992 22.63507886 3.03202679 18.60821158 2.4375 14.5 C2.18707366 12.82278567 1.93579619 11.14569817 1.68359375 9.46875 C1.56741699 8.69144531 1.45124023 7.91414063 1.33154297 7.11328125 C0.95708797 4.72647533 0.50819767 2.36190917 0 0 Z M1 1 C1 1.99 1 2.98 1 4 C1.66 4 2.32 4 3 4 C3 3.01 3 2.02 3 1 C2.34 1 1.68 1 1 1 Z M10 36 C11 38 11 38 11 38 Z " fill="#F8903C" transform="translate(132,89)"/>
<path d="M0 0 C0 0.33 0 0.66 0 1 C-12.99352995 4.44315977 -25.63287339 4.39002416 -38.99609375 4.29296875 C-41.28393778 4.2873618 -43.57178545 4.28309691 -45.8596344 4.28010559 C-51.83214559 4.26874336 -57.80443204 4.23935187 -63.77685547 4.20599365 C-69.89091961 4.17510527 -76.00502066 4.16156043 -82.11914062 4.14648438 C-94.07952491 4.11447271 -106.03974364 4.06338267 -118 4 C-118 3.67 -118 3.34 -118 3 C-116.78921783 2.98969254 -115.57843567 2.97938507 -114.33096313 2.96876526 C-102.94123802 2.87116705 -91.55156921 2.76844607 -80.16193581 2.66066074 C-74.30589332 2.60540831 -68.44984587 2.5519846 -62.59375 2.50268555 C-56.94625767 2.45507623 -51.29882752 2.40273469 -45.65140915 2.34705925 C-43.49277665 2.32662012 -41.33412709 2.30790966 -39.17546463 2.29092598 C-36.160696 2.26691645 -33.14604561 2.2368572 -30.13134766 2.20532227 C-29.23151657 2.1995668 -28.33168549 2.19381134 -27.40458679 2.18788147 C-23.06538294 2.26629518 -23.06538294 2.26629518 -19 1 C-12.68886748 0.22427658 -6.35576984 -0.14444931 0 0 Z " fill="#E27422" transform="translate(370,408)"/>
<path d="M0 0 C0.33 0 0.66 0 1 0 C5.91569356 20.16019561 6.83453372 43.7966438 -2 63 C-3.15837573 59.52487282 -2.77265943 57.86329714 -2.0625 54.3125 C-1.86785156 53.31863281 -1.67320312 52.32476562 -1.47265625 51.30078125 C-1.31667969 50.54152344 -1.16070312 49.78226562 -1 49 C-0.34 49 0.32 49 1 49 C1.02950374 44.91668235 1.04696535 40.8333928 1.0625 36.75 C1.07087891 35.61046875 1.07925781 34.4709375 1.08789062 33.296875 C1.11239405 24.67166991 0.92137919 16.06758556 -0.625 7.5625 C-1.03377666 4.76919283 -0.71832303 2.71366479 0 0 Z " fill="#EE7215" transform="translate(442,282)"/>
<path d="M0 0 C1.5613959 2.93270882 2.66538899 5.82068273 3.625 9 C3.88539063 9.845625 4.14578125 10.69125 4.4140625 11.5625 C5 14 5 14 5 18 C5.66 18 6.32 18 7 18 C7.12117187 18.67546875 7.24234375 19.3509375 7.3671875 20.046875 C7.53476563 20.93890625 7.70234375 21.8309375 7.875 22.75 C8.03742188 23.63171875 8.19984375 24.5134375 8.3671875 25.421875 C8.8826861 27.95997249 8.8826861 27.95997249 10.00390625 29.93359375 C11.33080837 32.6862652 11.64004552 35.29141796 12.0625 38.3125 C12.22621094 39.4571875 12.38992187 40.601875 12.55859375 41.78125 C12.70425781 42.8434375 12.84992188 43.905625 13 45 C13.20770391 46.43759108 13.41587231 47.87511535 13.625 49.3125 C13.74875 50.199375 13.8725 51.08625 14 52 C11.23777157 49.61443908 10.01341183 47.50796403 9 44 C9.03215464 42.00641212 9.06520615 40.01279876 9.11328125 38.01953125 C8.96836929 35.43610071 8.02951245 33.39657554 6.921875 31.08203125 C2.77858171 21.7245087 0.44682272 11.1142373 -1 1 C-0.67 0.67 -0.34 0.34 0 0 Z " fill="#F99A4A" transform="translate(167,212)"/>
<path d="M0 0 C2 1 2 1 3.2890625 4.67578125 C3.74255075 6.2189751 4.18749501 7.7646989 4.625 9.3125 C4.85445312 10.08529297 5.08390625 10.85808594 5.3203125 11.65429688 C6.38669155 15.34536484 7 18.09381764 7 22 C7.66 22.33 8.32 22.66 9 23 C9.58632637 25.18699737 10.06945574 27.40208125 10.5 29.625 C11.64960936 35.43302877 11.64960936 35.43302877 13.25 41.125 C14.02250159 44.08625611 13.84985608 45.17119335 13 48 C12.73445312 47.05898438 12.46890625 46.11796875 12.1953125 45.1484375 C11.66550781 43.28058594 11.66550781 43.28058594 11.125 41.375 C10.77695313 40.14523437 10.42890625 38.91546875 10.0703125 37.6484375 C8.86375489 33.53557323 7.59218893 29.48047232 6 25.5 C4.87924105 22.69810263 3.93780601 19.86858309 3 17 C2.73832031 16.30648438 2.47664062 15.61296875 2.20703125 14.8984375 C0.29896053 9.68483581 -0.30267863 5.54910815 0 0 Z " fill="#F88B2D" transform="translate(191,302)"/>
<path d="M0 0 C2.3269879 2.3269879 2.58589061 3.61308014 3.3671875 6.76953125 C3.61138428 7.73528076 3.85558105 8.70103027 4.10717773 9.69604492 C4.48724976 11.23869019 4.48724976 11.23869019 4.875 12.8125 C6.81027085 20.50652697 8.84473288 28.07159843 11.43359375 35.57421875 C12.03568732 38.15284019 11.88352376 39.53421799 11 42 C8.82975965 38.98053517 7.80609343 36.58930531 7.4375 32.9375 C7.04995754 29.44961782 6.53425583 27.96622794 5 25 C4.875 22.25 4.875 22.25 5 20 C3.68 20.33 2.36 20.66 1 21 C1.20625 20.175 1.4125 19.35 1.625 18.5 C2.02222217 14.79259306 1.48761728 12.54327764 0.48046875 9.03515625 C-0.24351802 5.96851308 -0.13077405 3.13857731 0 0 Z " fill="#F18634" transform="translate(163,139)"/>
<path d="M0 0 C1.65 0 3.3 0 5 0 C5.53132389 2.58157368 6.05034379 5.16461756 6.5625 7.75 C6.78969727 8.84441406 6.78969727 8.84441406 7.02148438 9.9609375 C7.77822455 13.83263141 7.97416298 16.10334808 7 20 C5.35 14.72 3.7 9.44 2 4 C0.35 9.28 -1.3 14.56 -3 20 C-5 16 -5 16 -5 13 C-4.34 12.67 -3.68 12.34 -3 12 C-2.53476937 10.10466658 -2.53476937 10.10466658 -2.375 7.9375 C-2.25125 6.638125 -2.1275 5.33875 -2 4 C-2.66 3.67 -3.32 3.34 -4 3 C-3.01 2.67 -2.02 2.34 -1 2 C-0.67 1.34 -0.34 0.68 0 0 Z " fill="#EF8B3C" transform="translate(124,128)"/>
<path d="M0 0 C12.21 0 24.42 0 37 0 C37 6.6 37 13.2 37 20 C32.41015625 20.24414062 32.41015625 20.24414062 27.8203125 20.48828125 C26.88960937 20.65714844 25.95890625 20.82601562 25 21 C24.34 21.99 23.68 22.98 23 24 C22.957279 22.33388095 22.95936168 20.66617115 23 19 C24.86224861 17.13775139 27.42531175 17.87645286 29.89453125 17.8671875 C32 18 32 18 36 19 C36 13.06 36 7.12 36 1 C24.12 1 12.24 1 0 1 C0 0.67 0 0.34 0 0 Z " fill="#DC7D35" transform="translate(128,73)"/>
<path d="M0 0 C2.27167707 2.27167707 2.50557282 3.35920063 3.21875 6.4296875 C3.53392578 7.74646484 3.53392578 7.74646484 3.85546875 9.08984375 C4.06816406 10.00894531 4.28085938 10.92804688 4.5 11.875 C4.92263783 13.68593908 5.34957309 15.49588178 5.78125 17.3046875 C5.96751953 18.10890137 6.15378906 18.91311523 6.34570312 19.74169922 C7.00111978 22.00386492 7.88097551 23.93288024 9 26 C10.41623216 26.05447047 11.83308191 26.09300508 13.25 26.125 C14.43335938 26.15980469 14.43335938 26.15980469 15.640625 26.1953125 C18.24710389 25.97954438 19.80767583 25.40935125 22 24 C22.80528889 21.94999129 22.80528889 21.94999129 23 20 C23.66 20 24.32 20 25 20 C24.67 22.31 24.34 24.62 24 27 C20.5836981 28.03974406 17.43573988 28.13374875 13.875 28.125 C12.29332031 28.12886719 12.29332031 28.12886719 10.6796875 28.1328125 C8 28 8 28 6 27 C3.53136805 21.7230161 2.63155705 16.77227287 3 11 C2.34 11 1.68 11 1 11 C-0.28317892 7.15046324 -0.06643637 4.05261865 0 0 Z " fill="#EA8A3F" transform="translate(226,365)"/>
<path d="M0 0 C0.33 0 0.66 0 1 0 C4.85904882 14.47143306 5.31762614 33.51011528 -2 47 C-2.15659599 42.69361036 -2.1006057 39.38355925 -1 35.1875 C0.58603689 28.36557115 0.21214577 21.39518522 0.125 14.4375 C0.11494735 13.03320953 0.10582555 11.62891207 0.09765625 10.22460938 C0.07423093 6.81622515 0.04142746 3.408205 0 0 Z " fill="#EE8C41" transform="translate(393,123)"/>
<path d="M0 0 C2.12508244 3.18762365 2.5020163 5.26512223 3 9 C3.66 9 4.32 9 5 9 C5.33 10.98 5.66 12.96 6 15 C6.99 15.33 7.98 15.66 9 16 C9 20.95 9 25.9 9 31 C8.34 31 7.68 31 7 31 C6.87625 29.9275 6.7525 28.855 6.625 27.75 C6.08669814 24.52018881 5.48881956 22.79153667 4 20 C3.65895427 18.33489439 3.32690653 16.66793915 3 15 C2.23319309 12.19896959 1.42962614 9.41033708 0.62109375 6.62109375 C0 4 0 4 0 0 Z " fill="#F88C39" transform="translate(205,350)"/>
<path d="M0 0 C0.33 0 0.66 0 1 0 C0.23783488 7.36759614 0.23783488 7.36759614 -1.01953125 10.7109375 C-2.264345 14.88676691 -2.33036862 18.66864549 -2.3125 23 C-2.32861328 23.78117187 -2.34472656 24.56234375 -2.36132812 25.3671875 C-2.36554575 30.37772983 -1.5586557 33.57129778 1 38 C1 38.66 1 39.32 1 40 C0.01 40 -0.98 40 -2 40 C-5.74075551 33.76540748 -5.07712861 26.59908387 -4.625 19.625 C-4.58117188 18.80644531 -4.53734375 17.98789062 -4.4921875 17.14453125 C-4.13330853 11.13330853 -4.13330853 11.13330853 -3 10 C-2.7834375 8.329375 -2.7834375 8.329375 -2.5625 6.625 C-2 3 -2 3 0 0 Z " fill="#F1A25E" transform="translate(67,334)"/>
<path d="M0 0 C0.9435441 2.53899138 1.16906025 3.60909275 0.07421875 6.140625 C-0.38339844 6.83671875 -0.84101562 7.5328125 -1.3125 8.25 C-1.76238281 8.95640625 -2.21226563 9.6628125 -2.67578125 10.390625 C-3.11277344 10.92171875 -3.54976562 11.4528125 -4 12 C-4.66 12 -5.32 12 -6 12 C-6 12.66 -6 13.32 -6 14 C-7.1446875 14.4021875 -7.1446875 14.4021875 -8.3125 14.8125 C-10.99611805 15.76249518 -10.99611805 15.76249518 -12.3125 17.5625 C-14.74461566 19.63430223 -16.55081065 19.29820668 -19.6875 19.1875 C-21.17830078 19.14689453 -21.17830078 19.14689453 -22.69921875 19.10546875 C-23.45847656 19.07066406 -24.21773438 19.03585937 -25 19 C-21.47790949 17.13064444 -17.93335709 16.0039418 -14.12109375 14.87890625 C-11.8189094 13.92496246 -10.70502048 12.77420971 -9 11 C-8.34 11 -7.68 11 -7 11 C-7 10.34 -7 9.68 -7 9 C-6.34 9 -5.68 9 -5 9 C-4.731875 8.443125 -4.46375 7.88625 -4.1875 7.3125 C-2.89877353 4.80287477 -1.47073522 2.40665764 0 0 Z " fill="#EF9247" transform="translate(113,366)"/>
<path d="M0 0 C1.41152344 0.10054688 1.41152344 0.10054688 2.8515625 0.203125 C5.64867789 0.809311 6.61269921 1.55008089 8.375 3.75 C5.375 3.75 5.375 3.75 3.625 3.25 C-0.66768445 2.29607012 -5.47127782 2.15241455 -9.625 3.75 C-9.955 4.41 -10.285 5.07 -10.625 5.75 C-11.95833333 6.41666667 -13.29166667 7.08333333 -14.625 7.75 C-15.16125 8.28625 -15.6975 8.8225 -16.25 9.375 C-16.70375 9.82875 -17.1575 10.2825 -17.625 10.75 C-18.285 10.75 -18.945 10.75 -19.625 10.75 C-18.45430879 6.19731195 -16.24334937 4.37112001 -12.57421875 1.765625 C-8.46700301 -0.37440725 -4.53603602 -0.37487901 0 0 Z " fill="#ED8E44" transform="translate(442.625,374.25)"/>
<path d="M0 0 C0.80820656 3.00635509 1.0734382 5.32710263 0.75 8.4375 C0.68296875 9.17871094 0.6159375 9.91992188 0.546875 10.68359375 C0 13 0 13 -1.44140625 15.296875 C-3.38653966 18.67038959 -4.02479314 22.02819035 -4.6875 25.8125 C-4.81705078 26.50537109 -4.94660156 27.19824219 -5.08007812 27.91210938 C-5.39557559 29.60644764 -5.69902647 31.30302158 -6 33 C-6.66 33 -7.32 33 -8 33 C-8.495 35.475 -8.495 35.475 -9 38 C-10.23567785 34.46165613 -9.74789535 32.25733676 -8.671875 28.7109375 C-8.36636719 27.68613281 -8.06085938 26.66132813 -7.74609375 25.60546875 C-7.41738281 24.53941406 -7.08867188 23.47335938 -6.75 22.375 C-6.43675781 21.33214844 -6.12351562 20.28929687 -5.80078125 19.21484375 C-4.87580453 16.14054353 -3.93812251 13.07030965 -3 10 C-1.99651926 6.66770704 -0.99770015 3.3340278 0 0 Z " fill="#EC9151" transform="translate(77,226)"/>
<path d="M0 0 C0.33 0 0.66 0 1 0 C1.28938128 5.40178394 0.81900917 9.12597339 -1.265625 14.1015625 C-2.26329239 16.68063883 -2.65820015 19.26560123 -3 22 C-3.66 22 -4.32 22 -5 22 C-5 24.97 -5 27.94 -5 31 C-5.66 31 -6.32 31 -7 31 C-7.33 33.64 -7.66 36.28 -8 39 C-8.66 39 -9.32 39 -10 39 C-9.42732049 33.37389577 -8.36555216 28.26634999 -6.6875 22.875 C-6.23905585 21.39469094 -5.79114833 19.91421923 -5.34375 18.43359375 C-5.11945313 17.69737793 -4.89515625 16.96116211 -4.6640625 16.20263672 C-3.63557202 12.79122454 -2.65967809 9.36530814 -1.6875 5.9375 C-1.36136719 4.79152344 -1.03523438 3.64554687 -0.69921875 2.46484375 C-0.46847656 1.65144531 -0.23773438 0.83804688 0 0 Z " fill="#ED8F40" transform="translate(108,116)"/>
<path d="M0 0 C0.33 0 0.66 0 1 0 C0.99214478 0.83640015 0.99214478 0.83640015 0.98413086 1.68969727 C0.89089879 13.17848483 1.01493484 24.54861754 2 36 C-3.91252451 27.13121324 -2.9948609 14.17054952 -1 4.125 C-0.68089165 2.74662923 -0.35353423 1.36994513 0 0 Z " fill="#F08632" transform="translate(42,352)"/>
<path d="M0 0 C0.33 0 0.66 0 1 0 C1.07449853 5.1411629 1.12876593 10.28200729 1.16479492 15.42358398 C1.17982429 17.1703845 1.20025354 18.91714765 1.22631836 20.66381836 C1.2629608 23.18352515 1.27978492 25.70273039 1.29296875 28.22265625 C1.30845261 28.99585709 1.32393646 29.76905792 1.33988953 30.56568909 C1.34148478 35.77708919 0.34144473 39.33601493 -2 44 C-3.07731842 40.70703768 -2.86864757 38.55239338 -2.1015625 35.19921875 C-0.69530979 28.09350653 -0.54813803 21.0374058 -0.375 13.8125 C-0.3367036 12.46547279 -0.2976457 11.11846701 -0.2578125 9.77148438 C-0.16442092 6.51445318 -0.078646 3.25741491 0 0 Z " fill="#EB8D44" transform="translate(408,294)"/>
<path d="M0 0 C1.73444522 2.60166784 2.45325329 4.10925318 3.25390625 7.01953125 C3.46853516 7.79490234 3.68316406 8.57027344 3.90429688 9.36914062 C4.12150391 10.17544922 4.33871094 10.98175781 4.5625 11.8125 C4.89411133 13.00456055 4.89411133 13.00456055 5.23242188 14.22070312 C6.39338767 18.4612096 7.37516214 22.64017625 8 27 C7.34 26.67 6.68 26.34 6 26 C6 25.01 6 24.02 6 23 C5.34 23 4.68 23 4 23 C4 21.02 4 19.04 4 17 C3.34 17 2.68 17 2 17 C0.30167391 11.16200408 -0.25287193 6.06892629 0 0 Z " fill="#EB8639" transform="translate(185,218)"/>
<path d="M0 0 C0.66 0.33 1.32 0.66 2 1 C0.6875 2.5 0.6875 2.5 -1 4 C-1.99 4 -2.98 4 -4 4 C-4 4.99 -4 5.98 -4 7 C-6.32780265 10.23305923 -9.31317809 10.84786815 -13 12 C-13.99 12.66 -14.98 13.32 -16 14 C-18.1875 13.625 -18.1875 13.625 -20 13 C-17.60512849 11.39438174 -15.20914587 9.79046593 -12.8125 8.1875 C-12.13896484 7.73568359 -11.46542969 7.28386719 -10.77148438 6.81835938 C-8.85344605 5.5365484 -6.92846309 4.2660576 -5 3 C-3.58267578 2.06607422 -3.58267578 2.06607422 -2.13671875 1.11328125 C-1.07904297 0.56220703 -1.07904297 0.56220703 0 0 Z " fill="#EF8130" transform="translate(311,213)"/>
<path d="M0 0 C0.99 0 1.98 0 3 0 C1.65912715 5.18917794 -0.1614226 9.8108574 -2.5 14.625 C-4.45824592 18.70536178 -6.37947345 22.7704257 -8 27 C-8.33 27 -8.66 27 -9 27 C-8.505 22.545 -8.505 22.545 -8 18 C-7.34 18 -6.68 18 -6 18 C-6 16.68 -6 15.36 -6 14 C-5.34 14 -4.68 14 -4 14 C-4 12.68 -4 11.36 -4 10 C-3.34 10 -2.68 10 -2 10 C-2 8.35 -2 6.7 -2 5 C-1.34 5 -0.68 5 0 5 C0 3.35 0 1.7 0 0 Z " fill="#ED8B40" transform="translate(143,347)"/>
<path d="M0 0 C0.66 0 1.32 0 2 0 C2.33 0.99 2.66 1.98 3 3 C2 4 2 4 -0.68383789 4.11352539 C-1.85164795 4.10828857 -3.01945801 4.10305176 -4.22265625 4.09765625 C-5.48271484 4.09443359 -6.74277344 4.09121094 -8.04101562 4.08789062 C-9.38151109 4.07953403 -10.72200588 4.07106907 -12.0625 4.0625 C-13.40689942 4.0574866 -14.7513006 4.05292342 -16.09570312 4.04882812 C-19.39715433 4.03699497 -22.6985826 4.01905886 -26 4 C-26 10.27 -26 16.54 -26 23 C-26.33 23 -26.66 23 -27 23 C-27 16.4 -27 9.8 -27 3 C-18.09 3 -9.18 3 0 3 C0 2.01 0 1.02 0 0 Z " fill="#E38C4B" transform="translate(125,70)"/>
<path d="M0 0 C0.33 0 0.66 0 1 0 C4.18518194 13.06303782 4.34321078 25.60949926 4 39 C3.67 39 3.34 39 3 39 C2.98541748 38.410979 2.97083496 37.82195801 2.95581055 37.21508789 C2.88046236 34.49696198 2.78409616 31.77995058 2.6875 29.0625 C2.66494141 28.13630859 2.64238281 27.21011719 2.61914062 26.25585938 C2.40463045 20.69809584 1.55717462 16.14458567 -0.37426758 10.93579102 C-1.60497997 7.12840961 -0.67392483 3.85975131 0 0 Z " fill="#EF9750" transform="translate(442,282)"/>
<path d="M0 0 C0.66 0 1.32 0 2 0 C3.5912689 4.873261 4.21192221 8.80790596 4 14 C4.66 14 5.32 14 6 14 C6 15.98 6 17.96 6 20 C5.34 20.33 4.68 20.66 4 21 C4 19.35 4 17.7 4 16 C3.34 16 2.68 16 2 16 C1.67 13.03 1.34 10.06 1 7 C0.34 7 -0.32 7 -1 7 C-1.04254356 5.00045254 -1.04080783 2.99958364 -1 1 C-0.67 0.67 -0.34 0.34 0 0 Z " fill="#F58836" transform="translate(156,173)"/>
<path d="M0 0 C0.33 0 0.66 0 1 0 C1.32613281 1.18335937 1.65226563 2.36671875 1.98828125 3.5859375 C2.42966933 5.18229669 2.87107685 6.77865051 3.3125 8.375 C3.5388916 9.19758301 3.7652832 10.02016602 3.99853516 10.86767578 C5.41159184 15.97502462 6.90861373 21.0368761 8.6171875 26.0546875 C9.06598041 28.33528822 8.71657871 29.81099929 8 32 C5.77198867 28.65798301 5.31891782 26.29811618 4.5625 22.375 C3.70475032 18.13001434 2.78596389 14.0728766 1.3125 10 C0.0795083 6.56431999 -0.28330048 3.68290621 0 0 Z " fill="#EC9856" transform="translate(154,106)"/>
<path d="M0 0 C2.5 1.125 2.5 1.125 5 3 C5.3125 6.1875 5.3125 6.1875 5 9 C4.67 9 4.34 9 4 9 C4 7.35 4 5.7 4 4 C-1.20699853 8.44126345 -3.92118205 13.95874554 -7 20 C-7.33 20 -7.66 20 -8 20 C-8.22036864 16.14354879 -7.60355101 13.50776784 -6 10 C-5.34 10 -4.68 10 -4 10 C-4 9.34 -4 8.68 -4 8 C-3.34 8 -2.68 8 -2 8 C-2 6.68 -2 5.36 -2 4 C-1.01 4 -0.02 4 1 4 C0.67 2.68 0.34 1.36 0 0 Z " fill="#F1944D" transform="translate(169,292)"/>
<path d="M0 0 C2.94174736 3.30343761 3.56321454 5.96632343 4.125 10.3125 C4.2796875 11.4571875 4.434375 12.601875 4.59375 13.78125 C4.79484375 15.37453125 4.79484375 15.37453125 5 17 C5.20541709 18.43791962 5.41298918 19.87553777 5.625 21.3125 C5.74875 22.199375 5.8725 23.08625 6 24 C3.23777157 21.61443908 2.01341183 19.50796403 1 16 C1 13.99857551 1.00212145 11.99648558 1.06640625 9.99609375 C0.97119922 7.1342823 -0.04389759 4.67708674 -1 2 C-0.67 1.34 -0.34 0.68 0 0 Z " fill="#F89445" transform="translate(175,240)"/>
<path d="M0 0 C1.30477141 3.64579605 0.67424442 5.98670262 -0.43359375 9.640625 C-0.75263672 10.71054688 -1.07167969 11.78046875 -1.40039062 12.8828125 C-1.74263672 13.99398437 -2.08488281 15.10515625 -2.4375 16.25 C-2.77587891 17.37664062 -3.11425781 18.50328125 -3.46289062 19.6640625 C-4.29968989 22.4455361 -5.14568326 25.22386656 -6 28 C-7.7247709 22.8256873 -6.83711437 17.74398828 -4.5 12.875 C-4.005 11.92625 -3.51 10.9775 -3 10 C-2.2863276 6.26228166 -2.2863276 6.26228166 -2 3 C-1.34 3 -0.68 3 0 3 C0 2.01 0 1.02 0 0 Z " fill="#F09348" transform="translate(93,241)"/>
<path d="M0 0 C1.98 0 3.96 0 6 0 C6 0.99 6 1.98 6 3 C5.34 3 4.68 3 4 3 C4.04125 3.969375 4.0825 4.93875 4.125 5.9375 C4.10701167 10.35363575 3.68724902 14.89329955 2 19 C-0.078125 20.765625 -0.078125 20.765625 -2 22 C-1.35737498 19.04093596 -0.7110539 16.08276484 -0.0625 13.125 C0.21110352 11.86236328 0.21110352 11.86236328 0.49023438 10.57421875 C0.66748047 9.76855469 0.84472656 8.96289062 1.02734375 8.1328125 C1.18968506 7.38918457 1.35202637 6.64555664 1.51928711 5.87939453 C2 4 2 4 3 2 C2.01 1.34 1.02 0.68 0 0 Z " fill="#F18F46" transform="translate(111,93)"/>
<path d="M0 0 C0.33 0 0.66 0 1 0 C0.31465992 5.805697 -1.03223012 11.30079162 -2.5625 16.9375 C-2.79646484 17.81212891 -3.03042969 18.68675781 -3.27148438 19.58789062 C-3.84405249 21.72625725 -4.42029595 23.86355903 -5 26 C-5.33 26 -5.66 26 -6 26 C-5.66444252 18.4094583 -5.10887014 11.96386912 -2 5 C-1.608125 4.01 -1.21625 3.02 -0.8125 2 C-0.544375 1.34 -0.27625 0.68 0 0 Z " fill="#EF8E45" transform="translate(74,308)"/>
<path d="M0 0 C0.99 0 1.98 0 3 0 C3.06058594 0.56847656 3.12117187 1.13695312 3.18359375 1.72265625 C3.9144075 11.17956439 3.9144075 11.17956439 7 20 C7 20.99 7 21.98 7 23 C6.34 23 5.68 23 5 23 C5 21.35 5 19.7 5 18 C4.34 18 3.68 18 3 18 C2.49309416 15.93918639 1.99475381 13.87626474 1.5 11.8125 C1.2215625 10.66394531 0.943125 9.51539063 0.65625 8.33203125 C0.08504615 5.43181171 -0.13283779 2.93903615 0 0 Z " fill="#FA8D37" transform="translate(181,264)"/>
<path d="M0 0 C4.99478872 -0.54312266 8.46316169 1.34406005 12.8125 3.5 C13.50537109 3.83386719 14.19824219 4.16773437 14.91210938 4.51171875 C16.61227875 5.33249017 18.30673333 6.16508109 20 7 C14.90714144 8.69761952 9.94287137 6.7653112 5 5 C2.79888523 3.47371259 1.63160922 2.15605504 0 0 Z " fill="#F38028" transform="translate(342,78)"/>
<path d="M0 0 C2.35154549 4.70309098 2.69292193 7.84533687 2 13 C0.42304825 17.69834077 -1.58051411 21.47457949 -6 24 C-6 22.35 -6 20.7 -6 19 C-5.01 18.67 -4.02 18.34 -3 18 C-2.26676204 15.98491642 -2.26676204 15.98491642 -2 14 C-1.34 14 -0.68 14 0 14 C0 9.38 0 4.76 0 0 Z " fill="#EC9247" transform="translate(457,385)"/>
<path d="M0 0 C0.12375 0.639375 0.2475 1.27875 0.375 1.9375 C0.58125 2.618125 0.7875 3.29875 1 4 C1.66 4.33 2.32 4.66 3 5 C3.58632637 7.18699737 4.06945574 9.40208125 4.5 11.625 C5.64960936 17.43302877 5.64960936 17.43302877 7.25 23.125 C8.02250159 26.08625611 7.84985608 27.17119335 7 30 C6.73445312 29.05898438 6.46890625 28.11796875 6.1953125 27.1484375 C5.84210938 25.90320313 5.48890625 24.65796875 5.125 23.375 C4.77695313 22.14523437 4.42890625 20.91546875 4.0703125 19.6484375 C2.84744722 15.47998431 1.64071721 11.3826003 -0.1875 7.4375 C-1.14900511 4.55298468 -0.82480548 2.88681916 0 0 Z " fill="#FC9D48" transform="translate(197,320)"/>
<path d="M0 0 C19.25473111 -0.59550715 19.25473111 -0.59550715 26 5 C25.67 5.66 25.34 6.32 25 7 C24.28457031 6.73445312 23.56914062 6.46890625 22.83203125 6.1953125 C15.27820932 3.51776113 7.94775146 1.9742405 0 1 C0 0.67 0 0.34 0 0 Z " fill="#EE9A55" transform="translate(343,226)"/>
<path d="M0 0 C1.65 0 3.3 0 5 0 C5.33 5.61 5.66 11.22 6 17 C5.34 17 4.68 17 4 17 C3.51933465 15.10454608 3.04053257 13.20861961 2.5625 11.3125 C2.29566406 10.25675781 2.02882812 9.20101562 1.75390625 8.11328125 C1.10102068 5.4171683 0.52058807 2.7242424 0 0 Z M1 1 C1 1.99 1 2.98 1 4 C1.66 4 2.32 4 3 4 C3 3.01 3 2.02 3 1 C2.34 1 1.68 1 1 1 Z " fill="#F5974A" transform="translate(132,89)"/>
<path d="M0 0 C0.33 0 0.66 0 1 0 C1.48050516 6.66700911 0.18360604 10.69207005 -3 16.5 C-3.57234375 17.59054687 -3.57234375 17.59054687 -4.15625 18.703125 C-5.08960139 20.47649265 -6.04278103 22.23940082 -7 24 C-7.66 24 -8.32 24 -9 24 C-8.09590464 21.00953074 -7.23383333 18.37108332 -5.5625 15.71875 C-3.77774583 12.61327774 -2.81835579 9.62128354 -1.8125 6.1875 C-1.46832031 5.02605469 -1.12414062 3.86460937 -0.76953125 2.66796875 C-0.51558594 1.78753906 -0.26164062 0.90710938 0 0 Z " fill="#EF9144" transform="translate(404,338)"/>
<path d="M0 0 C-0.86431641 0.41378906 -0.86431641 0.41378906 -1.74609375 0.8359375 C-4.67162113 2.34686845 -7.35710995 4.15654519 -10.09765625 5.9765625 C-12 7 -12 7 -15 7 C-15 7.66 -15 8.32 -15 9 C-16.98 9.66 -18.96 10.32 -21 11 C-21.33 10.01 -21.66 9.02 -22 8 C-20.68 8 -19.36 8 -18 8 C-18 7.34 -18 6.68 -18 6 C-16.35 6 -14.7 6 -13 6 C-13 5.34 -13 4.68 -13 4 C-12.34 4 -11.68 4 -11 4 C-11 3.34 -11 2.68 -11 2 C-7.17679443 0.57741188 -4.08718695 -0.24042276 0 0 Z " fill="#F0954B" transform="translate(334,225)"/>
<path d="M0 0 C1 3 1 3 -0.25 6 C-3.10025316 10.88614827 -5.77993231 12.71622039 -11 15 C-11.99 15 -12.98 15 -14 15 C-12.71034824 13.62437146 -11.37310707 12.29233607 -10 11 C-9.34 11 -8.68 11 -8 11 C-8 10.34 -8 9.68 -8 9 C-6.35570171 7.31126121 -4.68615782 5.64694485 -3 4 C-1.97186389 2.68824014 -0.95915568 1.3630107 0 0 Z " fill="#EF964A" transform="translate(351,183)"/>
<path d="M0 0 C3.05107089 3.05107089 3.56351206 6.7825311 4.6875 10.875 C4.92533203 11.69097656 5.16316406 12.50695312 5.40820312 13.34765625 C5.62798828 14.13785156 5.84777344 14.92804688 6.07421875 15.7421875 C6.27619873 16.4626123 6.47817871 17.18303711 6.6862793 17.92529297 C7.03672151 20.24284779 6.71241772 21.78573713 6 24 C3.82975965 20.98053517 2.80609343 18.58930531 2.4375 14.9375 C2.25968164 11.20266324 2.25968164 11.20266324 0.9375 8.9375 C-0.485096 5.99746826 -0.12341781 3.20886305 0 0 Z " fill="#EE934A" transform="translate(168,157)"/>
<path d="M0 0 C3 3.75 3 3.75 3 6 C3.66 6 4.32 6 5 6 C5.33 9.96 5.66 13.92 6 18 C3.62090353 16.35293322 2.46227481 15.45003661 1 13 C0.25604826 8.67250609 0.07063633 4.3858739 0 0 Z " fill="#F89036" transform="translate(150,154)"/>
<path d="M0 0 C0 0.33 0 0.66 0 1 C-8.39647878 2.88081125 -16.33491247 4.55048791 -25 4 C-17.0121868 0.0060934 -8.89046084 -0.20205593 0 0 Z " fill="#F08B40" transform="translate(370,408)"/>
<path d="M0 0 C1.76462683 3.08809695 2 4.23312136 2 8 C2.99 8.33 3.98 8.66 5 9 C5 11.31 5 13.62 5 16 C3.68 16 2.36 16 1 16 C-0.25447333 10.95970539 -1.39277298 6.23697313 -1 1 C-0.67 0.67 -0.34 0.34 0 0 Z M2 11 C2 12.32 2 13.64 2 15 C2.66 15 3.32 15 4 15 C3.34 13.68 2.68 12.36 2 11 Z " fill="#F38A39" transform="translate(214,381)"/>
<path d="M0 0 C0.66 0.33 1.32 0.66 2 1 C0.6875 2.5 0.6875 2.5 -1 4 C-1.99 4 -2.98 4 -4 4 C-4.33 4.99 -4.66 5.98 -5 7 C-6.0625 8.6875 -6.0625 8.6875 -8 10 C-10.71836308 10.25786843 -13.25839624 10.13483297 -16 10 C-13.41332137 6.97919349 -10.43042118 5.57988871 -6.875 3.875 C-3.19469353 2.30316674 -3.19469353 2.30316674 0 0 Z " fill="#EE934A" transform="translate(329,203)"/>
<path d="M0 0 C2.3432045 3.51480675 3.15367901 6.95642669 4.125 11 C4.30675781 11.72445312 4.48851562 12.44890625 4.67578125 13.1953125 C5.41300797 16.19964996 6 18.89517284 6 22 C5.34 22 4.68 22 4 22 C3.87882813 21.40832031 3.75765625 20.81664062 3.6328125 20.20703125 C2.59339813 15.21811684 2.59339813 15.21811684 0.875 10.4375 C-0.39765053 6.89225924 -0.12726545 3.75433065 0 0 Z " fill="#EE924F" transform="translate(178,192)"/>
<path d="M0 0 C0.33 0 0.66 0 1 0 C1.33 2.64 1.66 5.28 2 8 C2.66 8 3.32 8 4 8 C4 10.31 4 12.62 4 15 C3.34 15 2.68 15 2 15 C-0.1694867 11.74576996 -0.38021471 10.19339748 -0.6875 6.375 C-0.77386719 5.39273438 -0.86023438 4.41046875 -0.94921875 3.3984375 C-0.96597656 2.60695312 -0.98273438 1.81546875 -1 1 C-0.67 0.67 -0.34 0.34 0 0 Z " fill="#F68B37" transform="translate(162,193)"/>
<path d="M0 0 C4.01008855 4.29652344 8 10.92336048 8 17 C7.34 17 6.68 17 6 17 C5.731875 16.236875 5.46375 15.47375 5.1875 14.6875 C4.21391517 11.98113866 4.21391517 11.98113866 2.3125 10.5 C1.879375 10.005 1.44625 9.51 1 9 C1.3125 6.3125 1.3125 6.3125 2 4 C1.34 4 0.68 4 0 4 C0 2.68 0 1.36 0 0 Z " fill="#F09958" transform="translate(385,106)"/>
<path d="M0 0 C1.07079018 3.21237053 0.95713639 4.9395555 -0.3125 8.0625 C-0.57675781 8.73410156 -0.84101563 9.40570313 -1.11328125 10.09765625 C-2 12 -2 12 -4 15 C-4.66 15 -5.32 15 -6 15 C-6.33 15.99 -6.66 16.98 -7 18 C-7.33 17.01 -7.66 16.02 -8 15 C-7.67 14.34 -7.34 13.68 -7 13 C-6.34 13 -5.68 13 -5 13 C-4.731875 11.96875 -4.46375 10.9375 -4.1875 9.875 C-3.19001103 6.3514958 -1.7338102 3.23119173 0 0 Z " fill="#F39750" transform="translate(424,338)"/>
<path d="M0 0 C0.33 0 0.66 0 1 0 C0.57807197 7.52195827 -0.27045199 14.92145923 -3 22 C-3.66 22.33 -4.32 22.66 -5 23 C-4.34 18.38 -3.68 13.76 -3 9 C-2.34 9 -1.68 9 -1 9 C-0.67 6.03 -0.34 3.06 0 0 Z " fill="#EC9455" transform="translate(444,322)"/>
<path d="M0 0 C1.5 1.375 1.5 1.375 3 3 C3 3.66 3 4.32 3 5 C3.66 5 4.32 5 5 5 C5.042721 6.66611905 5.04063832 8.33382885 5 10 C4.67 10.33 4.34 10.66 4 11 C4 12.32 4 13.64 4 15 C3.34 15 2.68 15 2 15 C0.53329887 9.77487721 -0.22577402 5.4185766 0 0 Z " fill="#F19549" transform="translate(419,270)"/>
<path d="M0 0 C0.33 0.99 0.66 1.98 1 3 C-0.97779587 6.8764799 -2.19654895 8.6600784 -6.25 10.375 C-7.61125 10.684375 -7.61125 10.684375 -9 11 C-9 10.34 -9 9.68 -9 9 C-8.34 9 -7.68 9 -7 9 C-7 8.34 -7 7.68 -7 7 C-5.125 4.875 -5.125 4.875 -3 3 C-2.34 3 -1.68 3 -1 3 C-0.67 2.01 -0.34 1.02 0 0 Z " fill="#EF8B34" transform="translate(389,369)"/>
<path d="M0 0 C6.34339651 1.80610595 11.56938255 4.25627734 17 8 C16.34 8.66 15.68 9.32 15 10 C15 9.34 15 8.68 15 8 C13.35 8.33 11.7 8.66 10 9 C9.67 8.01 9.34 7.02 9 6 C6.49552484 4.78130071 6.49552484 4.78130071 4 4 C4 3.34 4 2.68 4 2 C2.68 2 1.36 2 0 2 C0 1.34 0 0.68 0 0 Z " fill="#EF8F45" transform="translate(380,215)"/>
<path d="M0 0 C0.33 0 0.66 0 1 0 C1.19335938 0.86882812 1.38671875 1.73765625 1.5859375 2.6328125 C1.84632812 3.78523438 2.10671875 4.93765625 2.375 6.125 C2.63023438 7.26195312 2.88546875 8.39890625 3.1484375 9.5703125 C3.94636477 12.78398288 4.90790559 15.87566034 6 19 C5.01 19 4.02 19 3 19 C-0.47493817 13.20843638 -0.11459949 6.53217065 0 0 Z " fill="#EB8B3E" transform="translate(62,355)"/>
<path d="M0 0 C0.33 0 0.66 0 1 0 C1.26666667 8 1.26666667 8 -1 12 C-1.38290462 13.99110401 -1.72604615 15.99100513 -2 18 C-2.66 18 -3.32 18 -4 18 C-4.33 18.99 -4.66 19.98 -5 21 C-4.1595613 16.51471135 -3.05582308 12.10942057 -1.9375 7.6875 C-1.75123047 6.94693359 -1.56496094 6.20636719 -1.37304688 5.44335938 C-0.91643895 3.62863559 -0.45836694 1.81428029 0 0 Z " fill="#EE9148" transform="translate(51,318)"/>
<path d="M0 0 C1 3 1 3 0.25 5.625 C-1 8 -1 8 -4 9 C-5.22520264 12.00847418 -5.22520264 12.00847418 -6 15 C-6.66 15 -7.32 15 -8 15 C-6.58707905 10.1725201 -4.57025846 6.2837641 -2 2 C-1.34 2 -0.68 2 0 2 C0 1.34 0 0.68 0 0 Z " fill="#EC8841" transform="translate(153,285)"/>
<path d="M0 0 C0.66 0.66 1.32 1.32 2 2 C1.38511719 3.12148438 1.38511719 3.12148438 0.7578125 4.265625 C0.21898437 5.25046875 -0.31984375 6.2353125 -0.875 7.25 C-1.40867187 8.22453125 -1.94234375 9.1990625 -2.4921875 10.203125 C-3.70419466 12.45130408 -4.87547567 14.7072805 -6 17 C-6 14.69 -6 12.38 -6 10 C-5.34 10 -4.68 10 -4 10 C-4 7.69 -4 5.38 -4 3 C-2.68 3 -1.36 3 0 3 C0 2.01 0 1.02 0 0 Z " fill="#F08E41" transform="translate(289,253)"/>
<path d="M0 0 C0.99 0 1.98 0 3 0 C3.20496094 0.96421875 3.40992188 1.9284375 3.62109375 2.921875 C3.89050781 4.18515625 4.15992188 5.4484375 4.4375 6.75 C4.83775391 8.62945312 4.83775391 8.62945312 5.24609375 10.546875 C5.7916235 13.04557085 6.35638812 15.52553101 7 18 C6.34 18 5.68 18 5 18 C4.73445312 17.00097656 4.46890625 16.00195312 4.1953125 14.97265625 C3.83896002 13.66915639 3.48216632 12.3657771 3.125 11.0625 C2.95097656 10.40314453 2.77695313 9.74378906 2.59765625 9.06445312 C2.12523763 7.358497 1.56784972 5.67660739 1 4 C0.34 3.67 -0.32 3.34 -1 3 C-0.67 2.01 -0.34 1.02 0 0 Z " fill="#F3771C" transform="translate(166,208)"/>
<path d="M0 0 C0.33 0 0.66 0 1 0 C1.48736475 6.70126536 0.07708804 11.06561592 -3 17 C-4.56393356 13.02623171 -3.36145292 10.18622097 -2.0625 6.25 C-1.68222656 5.07953125 -1.30195312 3.9090625 -0.91015625 2.703125 C-0.60980469 1.81109375 -0.30945313 0.9190625 0 0 Z " fill="#EF9042" transform="translate(84,201)"/>
<path d="M0 0 C1.09178911 3.27536732 0.93042848 4.04413619 0.00390625 7.23046875 C-0.22490234 8.03291016 -0.45371094 8.83535156 -0.68945312 9.66210938 C-0.93630859 10.49548828 -1.18316406 11.32886719 -1.4375 12.1875 C-1.68048828 13.03248047 -1.92347656 13.87746094 -2.17382812 14.74804688 C-2.77493493 16.8342411 -3.38647834 18.91742301 -4 21 C-5.0215999 17.38223755 -4.87095842 14.79295476 -4.25 11.0625 C-4.09015625 10.04285156 -3.9303125 9.02320313 -3.765625 7.97265625 C-2.96502853 4.86421791 -1.77905274 2.65391658 0 0 Z " fill="#EE9A59" transform="translate(114,167)"/>
<path d="M0 0 C4.49014624 1.49671541 8.47848764 3.83368341 12 7 C12 7.66 12 8.32 12 9 C8 9 8 9 6.25 7.625 C5 6 5 6 5 4 C3.35 3.67 1.7 3.34 0 3 C0 2.01 0 1.02 0 0 Z " fill="#F09147" transform="translate(362,86)"/>
<path d="M0 0 C0.9435441 2.53899138 1.16906025 3.60909275 0.07421875 6.140625 C-0.61220703 7.18476563 -0.61220703 7.18476563 -1.3125 8.25 C-1.76238281 8.95640625 -2.21226563 9.6628125 -2.67578125 10.390625 C-3.11277344 10.92171875 -3.54976563 11.4528125 -4 12 C-4.66 12 -5.32 12 -6 12 C-5.54300722 6.97307937 -3.00758252 3.85103739 0 0 Z " fill="#F18430" transform="translate(113,366)"/>
<path d="M0 0 C1.32 0 2.64 0 4 0 C2.79618552 2.49361571 1.54571278 4.68143083 0 7 C-0.66 7 -1.32 7 -2 7 C-2 7.66 -2 8.32 -2 9 C-2.66 9 -3.32 9 -4 9 C-4 7.68 -4 6.36 -4 5 C-3.01 5 -2.02 5 -1 5 C-0.67 3.35 -0.34 1.7 0 0 Z " fill="#F4964C" transform="translate(422,370)"/>
<path d="M0 0 C2.0899698 2.0899698 2.92525642 3.70001616 4.125 6.375 C4.47820312 7.14585937 4.83140625 7.91671875 5.1953125 8.7109375 C6 11 6 11 6 15 C5.34 15 4.68 15 4 15 C3.32532438 13.25307205 2.66055844 11.50231475 2 9.75 C1.62875 8.77546875 1.2575 7.8009375 0.875 6.796875 C0 4 0 4 0 0 Z " fill="#F08F48" transform="translate(435,265)"/>
<path d="M0 0 C1.65 0 3.3 0 5 0 C1.89973691 3.27742098 -0.97098894 5.93104837 -5 8 C-5.66 8 -6.32 8 -7 8 C-6.67 7.01 -6.34 6.02 -6 5 C-4.35 4.67 -2.7 4.34 -1 4 C-0.67 2.68 -0.34 1.36 0 0 Z " fill="#F0934D" transform="translate(401,390)"/>
<path d="M0 0 C-1.27469402 2.54938804 -2.49159226 2.74579613 -5 4 C-5.53625 4.53625 -6.0725 5.0725 -6.625 5.625 C-7.07875 6.07875 -7.5325 6.5325 -8 7 C-8.66 7 -9.32 7 -10 7 C-8.92598892 4.08482708 -8.22189824 2.22189824 -6 0 C-2.44444444 -1.22222222 -2.44444444 -1.22222222 0 0 Z " fill="#F2832F" transform="translate(433,378)"/>
<path d="M0 0 C1.485 0.99 1.485 0.99 3 2 C3.40729228 4.32156597 3.74438677 6.6568787 4 9 C4.33 9.33 4.66 9.66 5 10 C5.04092937 12.33297433 5.04241723 14.66705225 5 17 C3.025333 14.03799949 2.28044646 11.90228368 1.375 8.5 C1.11460937 7.5409375 0.85421875 6.581875 0.5859375 5.59375 C0 3 0 3 0 0 Z " fill="#F27317" transform="translate(178,250)"/>
<path d="M0 0 C1.33844519 4.46148395 0.97021019 8.48064484 0 13 C-1.5625 15.5625 -1.5625 15.5625 -3 17 C-3.40214229 10.83381819 -1.96818336 5.82254243 0 0 Z " fill="#EB8434" transform="translate(77,226)"/>
<path d="M0 0 C0.5775 0.226875 1.155 0.45375 1.75 0.6875 C0.375 2.1875 0.375 2.1875 -1.25 3.6875 C-1.91 3.6875 -2.57 3.6875 -3.25 3.6875 C-3.25 4.3475 -3.25 5.0075 -3.25 5.6875 C-4.9 6.3475 -6.55 7.0075 -8.25 7.6875 C-6.86345583 3.41232214 -5.12511737 -0.71182186 0 0 Z " fill="#F29447" transform="translate(115.25,401.3125)"/>
<path d="M0 0 C1 2 1 2 0.00390625 5.0390625 C-0.47175781 6.22242188 -0.94742188 7.40578125 -1.4375 8.625 C-1.91058594 9.81351562 -2.38367188 11.00203125 -2.87109375 12.2265625 C-3.24363281 13.14179688 -3.61617187 14.05703125 -4 15 C-5.07174763 11.34811918 -4.76411467 8.73567172 -4 5 C-3.34 5 -2.68 5 -2 5 C-2 3.68 -2 2.36 -2 1 C-1.34 0.67 -0.68 0.34 0 0 Z " fill="#EF9147" transform="translate(153,327)"/>
<path d="M0 0 C1.98 0.66 3.96 1.32 6 2 C6 2.66 6 3.32 6 4 C6.639375 4.226875 7.27875 4.45375 7.9375 4.6875 C10 6 10 6 10.75 8.625 C10.87375 9.800625 10.87375 9.800625 11 11 C10.29875 10.278125 9.5975 9.55625 8.875 8.8125 C6.9024876 6.8286838 4.85610734 5.01682261 2.6875 3.25 C1.800625 2.5075 0.91375 1.765 0 1 C0 0.67 0 0.34 0 0 Z " fill="#EA9452" transform="translate(345,103)"/>
<path d="M0 0 C0.33 0 0.66 0 1 0 C1.54330269 6.65545792 0.77304004 10.45834744 -3 16 C-4.57159226 12.85681547 -3.04018399 10.07066611 -2.0625 6.875 C-1.86720703 6.21628906 -1.67191406 5.55757813 -1.47070312 4.87890625 C-0.98695014 3.25066448 -0.49430925 1.62506818 0 0 Z " fill="#EE8B3D" transform="translate(56,300)"/>
<path d="M0 0 C3.0994029 3.90794279 4.13464242 6.70967334 4.0625 11.6875 C4.05347656 12.49574219 4.04445312 13.30398438 4.03515625 14.13671875 C4.02355469 14.75160156 4.01195312 15.36648438 4 16 C1.33068994 10.87447606 -0.35375916 5.83702609 0 0 Z " fill="#EE9557" transform="translate(192,364)"/>
<path d="M0 0 C0.33 0 0.66 0 1 0 C0.45144652 4.571279 -0.41744803 8.67435795 -2 13 C-2.33 13 -2.66 13 -3 13 C-3 10.36 -3 7.72 -3 5 C-2.34 5 -1.68 5 -1 5 C-0.67 3.35 -0.34 1.7 0 0 Z " fill="#EF8E40" transform="translate(102,209)"/>
<path d="M0 0 C1.65 0 3.3 0 5 0 C3.68 0.33 2.36 0.66 1 1 C1.309375 1.61875 1.61875 2.2375 1.9375 2.875 C3.4039278 7.18802294 3.66619026 11.4759996 4 16 C1.8480563 12.77208445 1.79913557 11.71599191 2 8 C1.34 8 0.68 8 0 8 C0 5.36 0 2.72 0 0 Z " fill="#EF731A" transform="translate(131,88)"/>
<path d="M0 0 C3.2645028 3.2645028 3.93236055 7.41047299 4.125 11.9375 C4.08375 12.618125 4.0425 13.29875 4 14 C3.01 13.34 2.02 12.68 1 12 C0.48828125 9.1796875 0.48828125 9.1796875 0.3125 5.875 C0.24675781 4.77929688 0.18101562 3.68359375 0.11328125 2.5546875 C0.05720703 1.29011719 0.05720703 1.29011719 0 0 Z " fill="#EF9B59" transform="translate(200,272)"/>
<path d="M0 0 C-3.63 2.31 -7.26 4.62 -11 7 C-10.67 5.68 -10.34 4.36 -10 3 C-9.01 3 -8.02 3 -7 3 C-7 2.01 -7 1.02 -7 0 C-3.98968256 -0.93423645 -3.13349732 -1.04449911 0 0 Z " fill="#EC9953" transform="translate(313,237)"/>
<path d="M0 0 C3.5718623 3.5718623 4 8.10186234 4 13 C3.01 12.67 2.02 12.34 1 12 C0.67 8.04 0.34 4.08 0 0 Z " fill="#ED8940" transform="translate(222,352)"/>
<path d="M0 0 C0.66 0 1.32 0 2 0 C4.41685712 4.22949995 5.34833144 7.12335991 5 12 C4.34 12 3.68 12 3 12 C3 10.35 3 8.7 3 7 C2.34 7 1.68 7 1 7 C0.67 4.69 0.34 2.38 0 0 Z " fill="#FC9747" transform="translate(187,289)"/>
<path d="M0 0 C2.42130331 2.42130331 2.52840504 3.80111377 3.125 7.125 C3.29257813 8.03507812 3.46015625 8.94515625 3.6328125 9.8828125 C3.81457031 10.93082031 3.81457031 10.93082031 4 12 C3.01 11.67 2.02 11.34 1 11 C-0.28317892 7.15046324 -0.06643637 4.05261865 0 0 Z " fill="#EF9B58" transform="translate(226,365)"/>
<path d="M0 0 C0.33 0 0.66 0 1 0 C0.49202991 4.3177458 -0.19682779 8.03302114 -2 12 C-2.33 12 -2.66 12 -3 12 C-3.34833144 7.12335991 -2.41685712 4.22949995 0 0 Z " fill="#EB8838" transform="translate(74,308)"/>
<path d="M0 0 C2.51699845 2.51699845 3.10964078 4.57554146 4 8 C3.625 10.375 3.625 10.375 3 12 C2.67 10.68 2.34 9.36 2 8 C1.34 8 0.68 8 0 8 C0 5.36 0 2.72 0 0 Z " fill="#EE9654" transform="translate(189,233)"/>
<path d="M0 0 C2 1 2 1 2.66796875 2.92578125 C2.83941406 3.71339844 3.01085937 4.50101563 3.1875 5.3125 C3.36667969 6.09238281 3.54585937 6.87226563 3.73046875 7.67578125 C4.01067443 10.09204759 3.74132137 11.70242952 3 14 C-0.44419134 4.58997722 -0.44419134 4.58997722 0 0 Z " fill="#EF9852" transform="translate(128,134)"/>
<path d="M0 0 C0.66 0 1.32 0 2 0 C0.77472971 4.05281712 -0.69880494 7.44360764 -3 11 C-3.5534764 8.92446352 -4 7.15634036 -4 5 C-3.01 5 -2.02 5 -1 5 C-0.67 3.35 -0.34 1.7 0 0 Z " fill="#F09247" transform="translate(129,379)"/>
<path d="M0 0 C0.33 0 0.66 0 1 0 C1.33 2.31 1.66 4.62 2 7 C2.66 7 3.32 7 4 7 C4.33 9.31 4.66 11.62 5 14 C2.25445276 11.62884556 1.04882814 9.46920075 0 6 C-0.125 2.6875 -0.125 2.6875 0 0 Z " fill="#F38E30" transform="translate(176,250)"/>
<path d="M0 0 C0.33 0.66 0.66 1.32 1 2 C0.34 2 -0.32 2 -1 2 C-1.20625 2.639375 -1.4125 3.27875 -1.625 3.9375 C-3 6 -3 6 -6.125 6.75 C-7.548125 6.87375 -7.548125 6.87375 -9 7 C-6.24479785 4.04070881 -3.53372712 1.96318174 0 0 Z " fill="#F19A52" transform="translate(300,220)"/>
<path d="M0 0 C0.66 1.32 1.32 2.64 2 4 C0.6875 6 0.6875 6 -1 8 C-1.99 8 -2.98 8 -4 8 C-2.87548273 5.0280615 -1.77706209 2.66559313 0 0 Z " fill="#F39242" transform="translate(356,175)"/>
<path d="M0 0 C0.99 0.33 1.98 0.66 3 1 C3.33 4.63 3.66 8.26 4 12 C0 4 0 4 0 0 Z " fill="#EC9048" transform="translate(196,381)"/>
<path d="M0 0 C0.33 0 0.66 0 1 0 C1.08131463 1.43655854 1.13933559 2.8744483 1.1875 4.3125 C1.23970703 5.51326172 1.23970703 5.51326172 1.29296875 6.73828125 C0.93801608 9.47851584 0.10633718 10.29171079 -2 12 C-1 3.42857143 -1 3.42857143 0 0 Z " fill="#EB9340" transform="translate(45,340)"/>
<path d="M0 0 C0.33 0 0.66 0 1 0 C0.45144652 4.571279 -0.41744803 8.67435795 -2 13 C-3.2380014 9.42355152 -2.74926071 6.66305234 -2 3 C-1.34 3 -0.68 3 0 3 C0 2.01 0 1.02 0 0 Z " fill="#F18E44" transform="translate(421,336)"/>
<path d="M0 0 C0.99 0.495 0.99 0.495 2 1 C2 2.98 2 4.96 2 7 C2.66 7 3.32 7 4 7 C3.67 8.32 3.34 9.64 3 11 C2.01 10.34 1.02 9.68 0 9 C-0.29296875 6.8359375 -0.29296875 6.8359375 -0.1875 4.375 C-0.16042969 3.55773437 -0.13335937 2.74046875 -0.10546875 1.8984375 C-0.05326172 0.95871094 -0.05326172 0.95871094 0 0 Z " fill="#F78A35" transform="translate(142,123)"/>
<path d="M0 0 C0.99 0.495 0.99 0.495 2 1 C2 1.66 2 2.32 2 3 C2.66 3 3.32 3 4 3 C4.66 4.32 5.32 5.64 6 7 C4.35 7.33 2.7 7.66 1 8 C0.67 5.36 0.34 2.72 0 0 Z " fill="#F38B3F" transform="translate(379,99)"/>
<path d="M0 0 C4.44870215 -0.39253254 7.14243493 0.84694043 11 3 C11 3.33 11 3.66 11 4 C3.49230769 3.38461538 3.49230769 3.38461538 1 1.4375 C0.67 0.963125 0.34 0.48875 0 0 Z " fill="#EE8A41" transform="translate(342,78)"/>
<path d="M0 0 C0.66 0 1.32 0 2 0 C1.67 2.31 1.34 4.62 1 7 C-0.98 7 -2.96 7 -5 7 C-4.360625 6.5875 -3.72125 6.175 -3.0625 5.75 C-0.79009069 3.82189513 -0.39803561 2.88575819 0 0 Z " fill="#EE904B" transform="translate(249,385)"/>
<path d="M0 0 C0.93065133 2.60582371 1.14917407 3.64198224 0.0625 6.25 C-0.4634375 7.11625 -0.4634375 7.11625 -1 8 C-1.66 8 -2.32 8 -3 8 C-3 8.99 -3 9.98 -3 11 C-3.66 11 -4.32 11 -5 11 C-3.55049545 7.2089881 -1.84827434 3.6125362 0 0 Z " fill="#F0964B" transform="translate(119,355)"/>
<path d="M0 0 C-1 1.5 -1 1.5 -3 3 C-5.71846235 3.27345479 -8.25677199 3.13491285 -11 3 C-7.83370093 -0.83288835 -4.68080329 -1.56026776 0 0 Z " fill="#F18532" transform="translate(324,210)"/>
<path d="M0 0 C1.65 0 3.3 0 5 0 C5 1.98 5 3.96 5 6 C4.34 6 3.68 6 3 6 C2.67 4.68 2.34 3.36 2 2 C1.34 2 0.68 2 0 2 C0 1.34 0 0.68 0 0 Z " fill="#EF842C" transform="translate(124,128)"/>
<path d="M0 0 C-1.28650706 0.69710731 -2.57940665 1.38242876 -3.875 2.0625 C-4.95394531 2.63677734 -4.95394531 2.63677734 -6.0546875 3.22265625 C-6.69664062 3.47917969 -7.33859375 3.73570312 -8 4 C-8.66 3.67 -9.32 3.34 -10 3 C-8 0 -8 0 -5.5625 -0.75 C-3 -1 -3 -1 0 0 Z " fill="#F19751" transform="translate(394,399)"/>
<path d="M0 0 C1.65 0 3.3 0 5 0 C4.01 0.495 4.01 0.495 3 1 C1.86649466 3.01669827 1.86649466 3.01669827 1 5 C0.34 5 -0.32 5 -1 5 C-0.67 3.35 -0.34 1.7 0 0 Z " fill="#F09C54" transform="translate(413,380)"/>
<path d="M0 0 C0.99 0.495 0.99 0.495 2 1 C2.75 3.375 2.75 3.375 3 6 C2.34 6.99 1.68 7.98 1 9 C0 8 0 8 -0.09765625 6.15234375 C-0.06510417 4.1015625 -0.03255208 2.05078125 0 0 Z " fill="#F58A3A" transform="translate(191,302)"/>
<path d="M0 0 C0.99 0.33 1.98 0.66 3 1 C3 4.3 3 7.6 3 11 C1.04783565 7.09567131 0.49360009 4.27786748 0 0 Z " fill="#F08B40" transform="translate(136,163)"/>
<path d="M0 0 C0.33 0 0.66 0 1 0 C0.25 7.625 0.25 7.625 -2 11 C-2.28571429 3.57142857 -2.28571429 3.57142857 0 0 Z " fill="#EE924D" transform="translate(85,269)"/>
<path d="M0 0 C0.33 0.66 0.66 1.32 1 2 C1.66 2 2.32 2 3 2 C3 3.98 3 5.96 3 8 C2.01 8.495 2.01 8.495 1 9 C0.67 6.03 0.34 3.06 0 0 Z " fill="#F99545" transform="translate(159,185)"/>
<path d="M0 0 C0.66 0 1.32 0 2 0 C1.46930939 3.82097239 0.50298434 6.06171403 -2 9 C-1.125 1.125 -1.125 1.125 0 0 Z " fill="#EE9244" transform="translate(389,170)"/>
<path d="M0 0 C0.33 0 0.66 0 1 0 C1.33 3.96 1.66 7.92 2 12 C1.01 11.67 0.02 11.34 -1 11 C-0.67 7.37 -0.34 3.74 0 0 Z " fill="#EFA865" transform="translate(363,149)"/>
<path d="M0 0 C2.0343459 1.41519715 2.90410393 2.54982123 3.421875 4.98046875 C3.66273952 6.98176954 3.83532741 8.9909944 4 11 C3.01 10.67 2.02 10.34 1 10 C1.33 8.02 1.66 6.04 2 4 C1.34 4 0.68 4 0 4 C0 2.68 0 1.36 0 0 Z " fill="#F28B3A" transform="translate(385,106)"/>
<path d="M0 0 C2 1 2 1 2 1 Z " fill="#FFFFFF" transform="translate(112,259)"/>
<path d="" fill="#FFFFFF" transform="translate(0,0)"/>
<path d="" fill="#FFFFFF" transform="translate(0,0)"/>
<path d="" fill="#FFFFFF" transform="translate(0,0)"/>
<path d="" fill="#FFFFFF" transform="translate(0,0)"/>
<path d="" fill="#FFFFFF" transform="translate(0,0)"/>
<path d="" fill="#FFFFFF" transform="translate(0,0)"/>
<path d="" fill="#FFFFFF" transform="translate(0,0)"/>
<path d="" fill="#FFFFFF" transform="translate(0,0)"/>
<path d="" fill="#FFFFFF" transform="translate(0,0)"/>
<path d="" fill="#FFFFFF" transform="translate(0,0)"/>
<path d="" fill="#FFFFFF" transform="translate(0,0)"/>
<path d="" fill="#FFFFFF" transform="translate(0,0)"/>
<path d="" fill="#FFFFFF" transform="translate(0,0)"/>
<path d="" fill="#FFFFFF" transform="translate(0,0)"/>
<path d="" fill="#FFFFFF" transform="translate(0,0)"/>
<path d="" fill="#FFFFFF" transform="translate(0,0)"/>
<path d="" fill="#FFFFFF" transform="translate(0,0)"/>
<path d="" fill="#FFFFFF" transform="translate(0,0)"/>
<path d="" fill="#FFFFFF" transform="translate(0,0)"/>
<path d="" fill="#FFFFFF" transform="translate(0,0)"/>
<path d="" fill="#FFFFFF" transform="translate(0,0)"/>
<path d="" fill="#FFFFFF" transform="translate(0,0)"/>
<path d="" fill="#FFFFFF" transform="translate(0,0)"/>
<path d="" fill="#FFFFFF" transform="translate(0,0)"/>
<path d="" fill="#FFFFFF" transform="translate(0,0)"/>
<path d="" fill="#FFFFFF" transform="translate(0,0)"/>
<path d="" fill="#FFFFFF" transform="translate(0,0)"/>
<path d="" fill="#FFFFFF" transform="translate(0,0)"/>
<path d="" fill="#FFFFFF" transform="translate(0,0)"/>
<path d="" fill="#FFFFFF" transform="translate(0,0)"/>
<path d="" fill="#FFFFFF" transform="translate(0,0)"/>
<path d="" fill="#FFFFFF" transform="translate(0,0)"/>
<path d="" fill="#FFFFFF" transform="translate(0,0)"/>
<path d="" fill="#FFFFFF" transform="translate(0,0)"/>
<path d="" fill="#FFFFFF" transform="translate(0,0)"/>
<path d="" fill="#FFFFFF" transform="translate(0,0)"/>
<path d="" fill="#FFFFFF" transform="translate(0,0)"/>
<path d="" fill="#FFFFFF" transform="translate(0,0)"/>
<path d="" fill="#FFFFFF" transform="translate(0,0)"/>
<path d="" fill="#FFFFFF" transform="translate(0,0)"/>
<path d="" fill="#FFFFFF" transform="translate(0,0)"/>
<path d="" fill="#FFFFFF" transform="translate(0,0)"/>
<path d="" fill="#FFFFFF" transform="translate(0,0)"/>
<path d="" fill="#FFFFFF" transform="translate(0,0)"/>
<path d="" fill="#FFFFFF" transform="translate(0,0)"/>
<path d="" fill="#FFFFFF" transform="translate(0,0)"/>
<path d="" fill="#FFFFFF" transform="translate(0,0)"/>
<path d="" fill="#FFFFFF" transform="translate(0,0)"/>
<path d="" fill="#FFFFFF" transform="translate(0,0)"/>
<path d="" fill="#FFFFFF" transform="translate(0,0)"/>
<path d="" fill="#FFFFFF" transform="translate(0,0)"/>
<path d="" fill="#FFFFFF" transform="translate(0,0)"/>
<path d="" fill="#FFFFFF" transform="translate(0,0)"/>
<path d="" fill="#FFFFFF" transform="translate(0,0)"/>
<path d="" fill="#FFFFFF" transform="translate(0,0)"/>
<path d="" fill="#FFFFFF" transform="translate(0,0)"/>
<path d="" fill="#FFFFFF" transform="translate(0,0)"/>
<path d="" fill="#FFFFFF" transform="translate(0,0)"/>
<path d="" fill="#FFFFFF" transform="translate(0,0)"/>
<path d="" fill="#FFFFFF" transform="translate(0,0)"/>
</svg>
