<svg xmlns="http://www.w3.org/2000/svg" xmlns:xlink="http://www.w3.org/1999/xlink" width="1080" zoomAndPan="magnify" viewBox="0 0 810 809.999993" height="1080" preserveAspectRatio="xMidYMid meet" version="1.0"><defs><g/></defs><g fill="#ff6c00" fill-opacity="1"><g transform="translate(58.848811, 654.609659)"><g><path d="M 317.363281 -25.152344 C 318.25 -22.273438 319.441406 -20.332031 320.941406 -19.332031 C 322.804688 -18.089844 327.722656 -17.472656 335.699219 -17.472656 L 347.945312 -17.472656 L 347.945312 12.898438 L 242.46875 12.898438 L 242.46875 -17.472656 L 254.714844 -17.472656 C 261.613281 -17.472656 265.871094 -17.851562 267.496094 -18.609375 C 266.730469 -18.25 266.113281 -17.648438 265.644531 -16.804688 C 265.480469 -16.507812 265.371094 -16.242188 265.316406 -16.003906 C 265.324219 -16.035156 265.328125 -16.140625 265.328125 -16.328125 C 265.328125 -17.054688 265.261719 -17.890625 265.125 -18.839844 C 264.980469 -19.84375 264.4375 -22.050781 263.488281 -25.460938 C 262.386719 -29.425781 260.851562 -35.132812 258.878906 -42.585938 C 256.9375 -49.917969 254.125 -60.082031 250.445312 -73.078125 L 236.398438 -122.71875 C 230.726562 -142.800781 223.960938 -167.453125 216.109375 -196.675781 L 227.9375 -199.851562 L 232.707031 -188.574219 C 223.953125 -184.871094 215.90625 -176.503906 208.5625 -163.472656 C 200.125 -148.496094 190.566406 -127.550781 179.886719 -100.632812 C 172.371094 -82.070312 165.296875 -65.820312 158.660156 -51.882812 C 151.820312 -37.515625 144.925781 -25.46875 137.976562 -15.742188 C 130.40625 -5.140625 122.03125 2.777344 112.859375 8.019531 C 103.359375 13.449219 92.734375 16.164062 80.984375 16.164062 C 68.75 16.164062 57.792969 13.941406 48.117188 9.496094 C 38.421875 5.042969 30.488281 -0.808594 24.3125 -8.058594 C 18.230469 -15.203125 13.742188 -23.375 10.851562 -32.578125 C 8.007812 -41.613281 6.847656 -50.792969 7.367188 -60.113281 L 19.59375 -59.433594 L 7.347656 -59.433594 C 7.347656 -62.761719 7.734375 -66.625 8.511719 -71.03125 C 9.21875 -75.035156 10.917969 -82.300781 13.605469 -92.832031 C 16.234375 -103.121094 20.058594 -117.546875 25.082031 -136.109375 C 30.097656 -154.652344 37.183594 -180.167969 46.339844 -212.644531 L 80.636719 -333.492188 L 130.597656 -509.507812 L 142.378906 -506.164062 L 131.746094 -500.089844 C 131.183594 -501.070312 129.890625 -502.097656 127.859375 -503.164062 C 125.507812 -504.402344 120.769531 -505.019531 113.640625 -505.019531 L 101.394531 -505.019531 L 101.394531 -535.390625 L 207.527344 -535.390625 L 207.527344 -505.019531 L 195.28125 -505.019531 C 191.824219 -505.019531 189.0625 -504.792969 187 -504.332031 C 186.308594 -504.179688 185.769531 -504.019531 185.386719 -503.851562 C 185.328125 -503.824219 185.292969 -503.808594 185.289062 -503.804688 C 185.386719 -503.863281 185.496094 -503.945312 185.617188 -504.050781 C 185.417969 -503.882812 185.320312 -503.28125 185.320312 -502.246094 C 185.320312 -501.613281 185.375 -500.980469 185.480469 -500.339844 C 185.628906 -499.460938 186.730469 -495.308594 188.792969 -487.890625 L 199.578125 -448.671875 L 221.777344 -368.691406 L 259.65625 -232.523438 L 317.457031 -24.835938 L 305.65625 -21.554688 Z M 293.953125 -17.953125 L 293.90625 -18.109375 L 236.058594 -225.960938 L 198.175781 -362.144531 L 175.964844 -442.175781 L 165.195312 -481.332031 C 162.902344 -489.585938 161.613281 -494.582031 161.324219 -496.3125 C 160.992188 -498.285156 160.828125 -500.261719 160.828125 -502.246094 C 160.828125 -510.789062 163.777344 -517.589844 169.679688 -522.644531 C 175.019531 -527.222656 183.554688 -529.511719 195.28125 -529.511719 L 195.28125 -517.265625 L 183.035156 -517.265625 L 183.035156 -523.144531 L 195.28125 -523.144531 L 195.28125 -510.898438 L 113.640625 -510.898438 L 113.640625 -523.144531 L 125.886719 -523.144531 L 125.886719 -517.265625 L 113.640625 -517.265625 L 113.640625 -529.511719 C 124.804688 -529.511719 133.34375 -527.953125 139.265625 -524.839844 C 145.507812 -521.554688 150.089844 -517.355469 153.011719 -512.238281 L 155.566406 -507.769531 L 104.195312 -326.804688 L 69.914062 -206 C 60.78125 -173.605469 53.71875 -148.175781 48.722656 -129.710938 C 43.730469 -111.261719 39.933594 -96.949219 37.335938 -86.773438 C 34.800781 -76.839844 33.230469 -70.171875 32.632812 -66.777344 C 32.105469 -63.777344 31.839844 -61.332031 31.839844 -59.433594 L 31.839844 -59.09375 L 31.820312 -58.753906 C 31.46875 -52.398438 32.265625 -46.121094 34.214844 -39.917969 C 36.113281 -33.882812 39.027344 -28.558594 42.957031 -23.941406 C 46.796875 -19.4375 51.925781 -15.707031 58.339844 -12.761719 C 64.773438 -9.804688 72.320312 -8.328125 80.984375 -8.328125 C 88.398438 -8.328125 94.972656 -9.964844 100.707031 -13.246094 C 106.773438 -16.710938 112.554688 -22.289062 118.046875 -29.976562 C 124.160156 -38.535156 130.324219 -49.347656 136.546875 -62.414062 C 142.972656 -75.90625 149.832031 -91.660156 157.121094 -109.667969 C 168.210938 -137.613281 178.246094 -159.554688 187.222656 -175.496094 C 197.300781 -193.378906 209.28125 -205.257812 223.164062 -211.132812 L 236.117188 -216.609375 L 239.765625 -203.03125 C 247.585938 -173.910156 254.320312 -149.359375 259.96875 -129.382812 L 274.007812 -79.753906 C 277.726562 -66.621094 280.578125 -56.320312 282.554688 -48.851562 C 284.5 -41.5 286.011719 -35.886719 287.085938 -32.015625 C 288.316406 -27.585938 289.078125 -24.351562 289.371094 -22.304688 C 289.667969 -20.207031 289.820312 -18.214844 289.820312 -16.328125 C 289.820312 -12.035156 288.898438 -8.230469 287.054688 -4.910156 C 284.953125 -1.128906 281.886719 1.703125 277.855469 3.585938 C 272.949219 5.875 265.234375 7.019531 254.714844 7.019531 L 254.714844 -5.226562 L 266.960938 -5.226562 L 266.960938 0.652344 L 254.714844 0.652344 L 254.714844 -11.59375 L 335.699219 -11.59375 L 335.699219 0.652344 L 323.457031 0.652344 L 323.457031 -5.226562 L 335.699219 -5.226562 L 335.699219 7.019531 C 322.78125 7.019531 313.332031 5.027344 307.355469 1.046875 C 301.015625 -3.179688 296.550781 -9.511719 293.953125 -17.953125 Z M 151.269531 -112.347656 C 161.464844 -137.617188 171.472656 -159.175781 181.285156 -177.019531 C 192.210938 -196.878906 205.484375 -210.195312 221.109375 -216.96875 L 225.976562 -205.730469 L 214.175781 -202.460938 L 133.84375 -492.445312 L 145.644531 -495.714844 L 157.417969 -492.351562 L 144.355469 -446.632812 L 125.101562 -378.417969 L 102.574219 -298.105469 L 79.714844 -216.785156 L 59.464844 -144.933594 L 45.105469 -93.375 C 42.898438 -85.277344 42.15625 -77.398438 42.886719 -69.738281 C 43.582031 -62.453125 45.621094 -56.019531 49.007812 -50.433594 C 52.234375 -45.109375 57.03125 -40.6875 63.398438 -37.167969 C 69.828125 -33.617188 77.867188 -31.839844 87.515625 -31.839844 C 90.160156 -31.839844 93.679688 -32.296875 98.082031 -33.214844 C 101.242188 -33.871094 105.175781 -36.234375 109.890625 -40.296875 C 115.253906 -44.917969 121.304688 -52.683594 128.042969 -63.585938 C 135.074219 -74.957031 142.8125 -91.199219 151.253906 -112.3125 Z M 173.996094 -103.214844 C 165.023438 -80.789062 156.652344 -63.285156 148.875 -50.707031 C 140.8125 -37.664062 133.148438 -28.011719 125.882812 -21.746094 C 117.972656 -14.925781 110.367188 -10.757812 103.078125 -9.238281 C 97.027344 -7.976562 91.84375 -7.347656 87.515625 -7.347656 C 73.65625 -7.347656 61.667969 -10.144531 51.550781 -15.734375 C 41.375 -21.359375 33.542969 -28.691406 28.0625 -37.738281 C 22.738281 -46.519531 19.554688 -56.414062 18.503906 -67.417969 C 17.492188 -78.042969 18.496094 -88.886719 21.511719 -99.945312 L 35.890625 -151.578125 L 56.136719 -223.414062 L 78.992188 -304.71875 L 101.53125 -385.074219 L 120.808594 -453.359375 L 145.828125 -540.925781 L 240.625 -198.730469 L 230.847656 -194.496094 C 220.347656 -189.945312 210.980469 -180.183594 202.746094 -165.214844 C 193.402344 -148.226562 183.8125 -127.546875 173.980469 -103.179688 Z M 173.996094 -103.214844 "/></g></g></g><g fill="#ff6c00" fill-opacity="1"><g transform="translate(357.321654, 654.609659)"><g><path d="M 363.621094 -152.828125 C 363.621094 -130.273438 359.378906 -108.976562 350.894531 -88.945312 C 342.425781 -68.945312 330.535156 -51.410156 315.230469 -36.339844 C 299.9375 -21.28125 281.753906 -9.421875 260.675781 -0.757812 C 239.59375 7.910156 216.707031 12.246094 192.015625 12.246094 L 17.796875 12.246094 L 17.796875 -18.125 L 30.042969 -18.125 C 35.710938 -18.125 39.714844 -18.644531 42.050781 -19.679688 C 44.027344 -20.558594 45.359375 -21.457031 46.042969 -22.371094 C 46.703125 -23.246094 47.117188 -24.351562 47.28125 -25.683594 C 47.65625 -28.664062 47.839844 -31.859375 47.839844 -35.269531 L 47.839844 -487.875 C 47.839844 -491.289062 47.65625 -494.480469 47.28125 -497.460938 C 47.117188 -498.792969 46.703125 -499.898438 46.042969 -500.777344 C 45.359375 -501.6875 44.027344 -502.585938 42.050781 -503.464844 C 39.714844 -504.503906 35.710938 -505.019531 30.042969 -505.019531 L 17.796875 -505.019531 L 17.796875 -535.390625 L 143.683594 -535.390625 C 152.148438 -535.390625 163.761719 -534.253906 178.53125 -531.984375 C 193.945312 -529.613281 209.191406 -524.65625 224.269531 -517.117188 C 239.878906 -509.3125 253.367188 -498.03125 264.742188 -483.269531 C 276.671875 -467.785156 282.636719 -447.550781 282.636719 -422.566406 C 282.636719 -405.292969 279.9375 -390.035156 274.546875 -376.796875 C 269.214844 -363.714844 262.042969 -352.179688 253.03125 -342.191406 C 244.292969 -332.507812 234.273438 -323.902344 222.972656 -316.367188 C 212.261719 -309.226562 201.324219 -302.53125 190.160156 -296.28125 L 184.179688 -306.964844 L 184.179688 -319.210938 L 190.710938 -319.210938 C 211.347656 -319.210938 231.9375 -315.359375 252.484375 -307.652344 C 273.023438 -299.949219 291.472656 -288.972656 307.824219 -274.722656 C 324.265625 -260.394531 337.636719 -243.050781 347.933594 -222.6875 C 358.394531 -202.007812 363.621094 -178.722656 363.621094 -152.828125 Z M 339.128906 -152.828125 C 339.128906 -174.828125 334.78125 -194.429688 326.078125 -211.632812 C 317.21875 -229.152344 305.773438 -244.027344 291.734375 -256.257812 C 277.609375 -268.570312 261.660156 -278.054688 243.882812 -284.722656 C 226.113281 -291.386719 208.386719 -294.71875 190.710938 -294.71875 L 137.246094 -294.71875 L 178.195312 -317.648438 C 188.804688 -323.589844 199.203125 -329.957031 209.386719 -336.746094 C 218.988281 -343.148438 227.476562 -350.433594 234.847656 -358.601562 C 241.941406 -366.464844 247.617188 -375.609375 251.863281 -386.039062 C 256.050781 -396.316406 258.144531 -408.488281 258.144531 -422.566406 C 258.144531 -441.992188 253.875 -457.242188 245.339844 -468.320312 C 236.25 -480.117188 225.578125 -489.082031 213.316406 -495.210938 C 200.527344 -501.605469 187.691406 -505.792969 174.804688 -507.777344 C 161.273438 -509.859375 150.898438 -510.898438 143.683594 -510.898438 L 30.042969 -510.898438 L 30.042969 -523.144531 L 42.289062 -523.144531 L 42.289062 -517.265625 L 30.042969 -517.265625 L 30.042969 -529.511719 C 39.179688 -529.511719 46.496094 -528.289062 51.996094 -525.84375 C 57.859375 -523.242188 62.402344 -519.78125 65.636719 -515.472656 C 68.898438 -511.125 70.878906 -506.132812 71.585938 -500.5 C 72.082031 -496.511719 72.332031 -492.304688 72.332031 -487.875 L 72.332031 -35.269531 C 72.332031 -30.839844 72.082031 -26.632812 71.585938 -22.644531 C 70.878906 -17.011719 68.898438 -12.019531 65.636719 -7.675781 C 62.402344 -3.363281 57.859375 0.09375 51.996094 2.699219 C 46.496094 5.144531 39.179688 6.367188 30.042969 6.367188 L 30.042969 -5.878906 L 42.289062 -5.878906 L 42.289062 0 L 30.042969 0 L 30.042969 -12.246094 L 192.015625 -12.246094 C 213.480469 -12.246094 233.261719 -15.96875 251.363281 -23.410156 C 269.476562 -30.855469 285.035156 -40.980469 298.046875 -53.789062 C 311.039062 -66.585938 321.140625 -81.488281 328.34375 -98.496094 C 335.535156 -115.476562 339.128906 -133.585938 339.128906 -152.828125 Z M 77.023438 -240.84375 C 81.960938 -251.710938 88.40625 -261.242188 96.359375 -269.445312 C 103.867188 -277.1875 112.296875 -284.328125 121.640625 -290.871094 C 130.664062 -297.1875 140.132812 -303.160156 150.042969 -308.792969 C 159.75 -314.308594 169.675781 -319.710938 179.820312 -325.003906 L 185.484375 -314.148438 L 178.894531 -324.46875 C 197.507812 -336.351562 211.316406 -351.003906 220.324219 -368.429688 C 229.425781 -386.039062 233.976562 -403.867188 233.976562 -421.914062 C 233.976562 -432.683594 232.148438 -443.171875 228.492188 -453.375 C 224.9375 -463.289062 219.507812 -472.085938 212.207031 -479.761719 C 204.925781 -487.414062 195.679688 -493.523438 184.460938 -498.085938 C 173.097656 -502.710938 159.503906 -505.019531 143.683594 -505.019531 L 88.171875 -505.019531 L 88.171875 -517.265625 L 100.417969 -517.265625 L 100.417969 -235.773438 L 88.171875 -235.773438 Z M 99.320312 -230.707031 L 75.925781 -235.773438 L 75.925781 -529.511719 L 143.683594 -529.511719 C 162.699219 -529.511719 179.367188 -526.601562 193.691406 -520.773438 C 208.164062 -514.886719 220.25 -506.84375 229.953125 -496.644531 C 239.632812 -486.46875 246.828125 -474.800781 251.546875 -461.640625 C 256.164062 -448.765625 258.46875 -435.523438 258.46875 -421.914062 C 258.46875 -399.898438 253.007812 -378.320312 242.082031 -357.183594 C 231.058594 -335.855469 214.390625 -318.070312 192.074219 -303.824219 L 191.621094 -303.539062 L 191.148438 -303.292969 C 181.265625 -298.132812 171.597656 -292.871094 162.144531 -287.5 C 152.898438 -282.246094 144.078125 -276.683594 135.6875 -270.808594 C 127.617188 -265.15625 120.367188 -259.019531 113.941406 -252.394531 C 107.960938 -246.226562 103.085938 -238.996094 99.320312 -230.707031 Z M 175.035156 -18.125 L 193.976562 -18.125 C 198.746094 -18.125 202.867188 -18.316406 206.339844 -18.703125 C 210.203125 -19.132812 213.847656 -19.558594 217.273438 -19.988281 C 220.375 -20.375 223.699219 -20.964844 227.238281 -21.75 L 229.894531 -9.796875 L 226.34375 -21.515625 C 239.019531 -25.355469 250.132812 -31.480469 259.6875 -39.890625 C 269.558594 -48.574219 277.964844 -58.972656 284.914062 -71.078125 C 291.941406 -83.328125 297.167969 -96.710938 300.597656 -111.230469 C 304.078125 -125.980469 305.820312 -140.933594 305.820312 -156.09375 C 305.820312 -173.230469 303.476562 -189.957031 298.785156 -206.265625 C 294.210938 -222.179688 287.179688 -236.265625 277.6875 -248.523438 C 268.320312 -260.625 256.578125 -270.398438 242.46875 -277.847656 C 228.582031 -285.175781 211.980469 -288.839844 192.667969 -288.839844 L 173.730469 -288.839844 L 173.730469 -301.085938 L 179.59375 -290.335938 C 170.148438 -285.183594 160.921875 -279.925781 151.910156 -274.5625 C 143.261719 -269.414062 135.242188 -263.867188 127.855469 -257.914062 C 120.914062 -252.324219 114.945312 -245.96875 109.945312 -238.855469 C 105.253906 -232.179688 101.992188 -224.441406 100.160156 -215.644531 L 88.171875 -218.140625 L 100.417969 -218.140625 L 100.417969 -5.878906 L 88.171875 -5.878906 L 88.171875 -18.125 Z M 175.035156 6.367188 L 75.925781 6.367188 L 75.925781 -219.402344 L 76.183594 -220.636719 C 78.703125 -232.738281 83.277344 -243.503906 89.90625 -252.9375 C 96.230469 -261.933594 103.757812 -269.953125 112.492188 -276.988281 C 120.777344 -283.664062 129.742188 -289.871094 139.382812 -295.609375 C 148.65625 -301.128906 158.152344 -306.539062 167.863281 -311.835938 L 170.605469 -313.332031 L 192.667969 -313.332031 C 216.027344 -313.332031 236.4375 -308.722656 253.898438 -299.507812 C 271.136719 -290.410156 285.523438 -278.414062 297.054688 -263.519531 C 308.460938 -248.78125 316.886719 -231.953125 322.324219 -213.035156 C 327.652344 -194.511719 330.3125 -175.53125 330.3125 -156.09375 C 330.3125 -139.035156 328.351562 -122.203125 324.433594 -105.601562 C 320.460938 -88.773438 314.367188 -73.199219 306.15625 -58.890625 C 297.863281 -44.4375 287.765625 -31.976562 275.867188 -21.503906 C 263.652344 -10.753906 249.511719 -2.945312 233.449219 1.921875 L 233.003906 2.058594 L 232.554688 2.15625 C 228.257812 3.113281 224.179688 3.832031 220.3125 4.3125 C 216.773438 4.757812 213.015625 5.199219 209.042969 5.640625 C 204.675781 6.125 199.652344 6.367188 193.976562 6.367188 Z M 175.035156 6.367188 "/></g></g></g><g fill="#ff6c00" fill-opacity="1"><g transform="translate(674.081603, 654.609659)"><g><path d="M 8.652344 -17.632812 C 8.652344 -25.804688 11.589844 -32.828125 17.464844 -38.703125 C 23.339844 -44.578125 30.363281 -47.515625 38.535156 -47.515625 C 46.703125 -47.515625 53.726562 -44.578125 59.601562 -38.703125 C 65.476562 -32.828125 68.414062 -25.804688 68.414062 -17.632812 C 68.414062 -9.605469 65.5625 -2.5625 59.859375 3.496094 C 53.960938 9.765625 46.851562 12.898438 38.535156 12.898438 C 30.21875 12.898438 23.109375 9.765625 17.207031 3.496094 C 11.503906 -2.5625 8.652344 -9.605469 8.652344 -17.632812 Z M 33.144531 -17.632812 C 33.144531 -16.082031 33.777344 -14.632812 35.042969 -13.292969 C 36.109375 -12.160156 37.273438 -11.59375 38.535156 -11.59375 C 39.796875 -11.59375 40.960938 -12.160156 42.027344 -13.292969 C 43.289062 -14.632812 43.921875 -16.082031 43.921875 -17.632812 C 43.921875 -19.042969 43.375 -20.292969 42.285156 -21.382812 C 41.191406 -22.476562 39.941406 -23.023438 38.535156 -23.023438 C 37.125 -23.023438 35.875 -22.476562 34.785156 -21.382812 C 33.691406 -20.292969 33.144531 -19.042969 33.144531 -17.632812 Z M 33.144531 -17.632812 "/></g></g></g></svg>