<?xml version="1.0" encoding="UTF-8"?>
<svg version="1.1" xmlns="http://www.w3.org/2000/svg" width="500" height="500">
<path d="M0 0 C16.83 0 33.66 0 51 0 C51 1.65 51 3.3 51 5 C50 6 50 6 48.15234375 6.09765625 C46.1015625 6.06510417 44.05078125 6.03255208 42 6 C42 6.66 42 7.32 42 8 C41.01 8.66 40.02 9.32 39 10 C38.06040814 16.694592 39.82592054 22.39917945 41.80322266 28.73608398 C43.74429996 34.97906223 45.33972604 41.27115467 46.875 47.625 C49.08064476 56.66513779 51.6216943 65.54545901 54.39404297 74.42651367 C56.74088404 81.99853117 58.7738079 89.62412225 60.73046875 97.30493164 C62.51123712 104.24839721 64.46258424 111.12775546 66.5 118 C68.85438351 125.94523717 71.06466266 133.91092196 73.125 141.9375 C74.97299253 149.13532539 76.91489468 156.28474546 79.04443359 163.40405273 C84.07046205 180.23554113 88.61206912 197.21021099 93.2116394 214.16207886 C95.51458539 222.64491708 97.86684157 231.10645157 100.40332031 239.52294922 C101.89015396 244.49931679 103.12619223 249.51928269 104.34326172 254.56713867 C106.07316216 261.57264012 108.22389143 268.44381561 110.35180664 275.33666992 C112.25542083 281.51533684 114.08889272 287.70614885 115.8125 293.9375 C116.00706787 294.63987793 116.20163574 295.34225586 116.40209961 296.06591797 C117.33091238 299.45344893 118.20561013 302.84564716 119.0234375 306.26171875 C120.31811117 311.21772955 121.73671601 315.55401301 126.25 318.4375 C132.4978666 319.71547271 138.06645534 319.35102713 144 317 C146.85554017 314.56272118 146.85554017 314.56272118 149 312 C149.33 311.67 149.66 311.34 150 311 C150.10059958 309.42008711 150.1310719 307.83566897 150.13422108 306.25255966 C150.14090784 304.7023456 150.14090784 304.7023456 150.14772969 303.12081409 C150.14754533 301.97152588 150.14736097 300.82223768 150.14717102 299.63812256 C150.15084771 298.42798091 150.1545244 297.21783926 150.1583125 295.97102666 C150.16746139 292.59665802 150.17205385 289.2223381 150.17470181 285.84796166 C150.17859651 282.21457677 150.18817547 278.58120607 150.19691467 274.9478302 C150.21670378 266.16505803 150.22674884 257.38228467 150.23564246 248.59949577 C150.24002177 244.46691619 150.24538954 240.3343379 150.25063133 236.20175934 C150.26764682 222.46949403 150.28214158 208.73722953 150.28938007 195.00495529 C150.29129008 191.43901315 150.29321039 187.87307102 150.29516602 184.30712891 C150.29564976 183.42079337 150.2961335 182.53445784 150.2966319 181.62126365 C150.30493433 167.25927667 150.3302734 152.89737292 150.36274669 138.5354223 C150.39579108 123.80113311 150.4138265 109.06688627 150.41702431 94.33255982 C150.41919196 86.05541213 150.4279775 77.77838577 150.45348549 69.50127411 C150.47515685 62.45266422 150.48326061 55.40420512 150.47351871 48.3555657 C150.46896343 44.75794805 150.47093072 41.16064174 150.49028015 37.56306648 C150.51106401 33.66518453 150.50096029 29.76773512 150.48774719 25.86981201 C150.49871644 24.72944669 150.50968568 23.58908138 150.52098733 22.41415954 C150.5036582 16.35544866 150.5036582 16.35544866 148.1570158 10.88313675 C144.87457372 8.01747053 142.73147033 6.76998205 138.4375 6.4375 C134.19178082 6.09589041 134.19178082 6.09589041 132 5 C132.33 3.35 132.66 1.7 133 0 C141.82544176 -0.07049781 150.650782 -0.12330443 159.47644711 -0.15543652 C163.57758182 -0.17088287 167.67851961 -0.19171891 171.77954102 -0.22631836 C202.63893231 -0.47966083 230.22424259 0.309869 258 15 C258 15.66 258 16.32 258 17 C258.74378906 17.25652344 259.48757813 17.51304688 260.25390625 17.77734375 C267.76353119 21.12088942 273.03331926 29.04115178 277 36 C277.33 36.99 277.66 37.98 278 39 C278.66 39.66 279.32 40.32 280 41 C284.78958398 58.94615727 283.40141835 80.28871431 274.4296875 96.671875 C269.14689126 105.27446123 269.14689126 105.27446123 266 109 C265.34 109 264.68 109 264 109 C264 109.66 264 110.32 264 111 C263.34 111 262.68 111 262 111 C262 111.66 262 112.32 262 113 C256.52380952 118 256.52380952 118 254 118 C254 118.66 254 119.32 254 120 C252.48706055 121.23681641 252.48706055 121.23681641 250.38671875 122.6015625 C249.63326172 123.09140625 248.87980469 123.58125 248.10351562 124.0859375 C247.30623047 124.59382813 246.50894531 125.10171875 245.6875 125.625 C244.90181641 126.140625 244.11613281 126.65625 243.30664062 127.1875 C237.38112806 131 237.38112806 131 234 131 C234 131.66 234 132.32 234 133 C235.28132813 133.17015625 236.56265625 133.3403125 237.8828125 133.515625 C254.00501192 135.7350081 267.83771846 139.41978283 282.23046875 147.06689453 C284.79877998 148.42121097 287.39834439 149.7112169 290 151 C290 151.66 290 152.32 290 153 C290.70511719 153.22558594 291.41023438 153.45117188 292.13671875 153.68359375 C295.59153322 155.27196002 298.08490295 157.47769523 300.8125 160.0625 C301.33368408 160.54984619 301.85486816 161.03719238 302.3918457 161.53930664 C315.08606644 173.552956 315.08606644 173.552956 316 179 C316.66 179 317.32 179 318 179 C331.60549539 205.52307247 336.81910269 231.71566448 327.375 261.0625 C324.59300435 269.32254631 320.65165608 276.65652263 316 284 C315.34 284 314.68 284 314 284 C313.731875 284.7425 313.46375 285.485 313.1875 286.25 C312.04723249 288.89061949 310.90619694 290.85552844 309 293 C308.34 293 307.68 293 307 293 C307 293.66 307 294.32 307 295 C306.34 295 305.68 295 305 295 C305 295.66 305 296.32 305 297 C304.34 297 303.68 297 303 297 C303 297.66 303 298.32 303 299 C281.52280401 318.75902032 254.75620256 325.37762386 226.18212891 325.22705078 C224.65298978 325.22648499 223.12385012 325.22680649 221.5947113 325.22793579 C217.49025032 325.22850377 213.385909 325.21684059 209.28147554 325.20278788 C204.97471524 325.1901868 200.66795144 325.18910269 196.36117554 325.18673706 C188.22656797 325.18054961 180.0920149 325.16417626 171.9574312 325.14403808 C162.68764125 325.12159338 153.41784855 325.11066421 144.14803815 325.10064721 C125.09866133 325.07980725 106.04933507 325.04468513 87 325 C87 323.35 87 321.7 87 320 C87.85464844 319.86722656 88.70929688 319.73445313 89.58984375 319.59765625 C90.69457031 319.42105469 91.79929688 319.24445313 92.9375 319.0625 C94.03964844 318.88847656 95.14179688 318.71445312 96.27734375 318.53515625 C98.90426929 318.28154864 98.90426929 318.28154864 100 317 C100.52717401 310.10680044 98.93031813 304.47879655 96.875 297.9375 C96.22505045 295.79512256 95.57798397 293.65186865 94.93359375 291.5078125 C94.6072998 290.4240332 94.28100586 289.34025391 93.94482422 288.22363281 C92.49638407 283.28171971 91.21055455 278.30197 89.9375 273.3125 C87.38371322 263.36220884 84.61871256 253.4853174 81.75878906 243.61914062 C78.65036881 232.88969002 75.54757506 222.1568243 72.625 211.375 C72.30789062 210.20710937 71.99078125 209.03921875 71.6640625 207.8359375 C71 205 71 205 71 202 C58.47950593 209.60802658 53.08782774 220.13580153 46.97753906 232.95068359 C46.04487142 234.9059314 45.09788956 236.85364294 44.1484375 238.80078125 C40.78432492 245.77500427 37.85894311 252.82082339 35.19433594 260.08984375 C28.56699796 278.13727008 20.20555887 298.85938006 8 314 C7.34 314 6.68 314 6 314 C5.6596875 314.86625 5.6596875 314.86625 5.3125 315.75 C1.5655002 322.17342822 -6.18282782 325.01853819 -13 327 C-24.97284198 328.42565263 -34.5789412 325.59649454 -45 320 C-45 319.34 -45 318.68 -45 318 C-45.58523437 317.77699219 -46.17046875 317.55398438 -46.7734375 317.32421875 C-49.67104274 315.60090616 -50.84131532 313.66089515 -52.625 310.8125 C-53.21539062 309.89082031 -53.80578125 308.96914063 -54.4140625 308.01953125 C-61.85323804 293.85578077 -57.93250921 276.98232677 -53.9375 262.375 C-53.52130463 260.78996042 -53.10669541 259.20450358 -52.69360352 257.61865234 C-50.16061226 247.9714332 -47.45963556 238.37033767 -44.59545898 228.81616211 C-42.22454134 220.90060925 -40.09735722 212.92926445 -38 204.9375 C-35.38255707 194.98441997 -32.57908499 185.1234348 -29.51269531 175.30004883 C-27.10654661 167.52713634 -25.02040499 159.68869614 -23.04052734 151.79711914 C-21.80430642 146.90496317 -20.41359885 142.13544741 -18.77685547 137.36328125 C-17.24047575 132.68944226 -15.99007681 127.9306585 -14.6875 123.1875 C-12.54509555 115.45072494 -10.34803334 107.73934156 -8 100.0625 C-5.33718524 91.32661458 -2.9571815 82.52464943 -0.60327148 73.70117188 C2.77712666 61.04534767 6.36353477 48.45637527 10.1171875 35.90625 C10.48078369 34.6886499 10.84437988 33.4710498 11.21899414 32.21655273 C11.93332035 29.82956449 12.65110684 27.44360829 13.37280273 25.05883789 C13.69966064 23.96821045 14.02651855 22.87758301 14.36328125 21.75390625 C14.65501221 20.78783447 14.94674316 19.8217627 15.24731445 18.82641602 C16.02693412 15.89885947 16.54898685 12.99429541 17 10 C16.34 10 15.68 10 15 10 C15 9.34 15 8.68 15 8 C13.62714844 7.80083984 13.62714844 7.80083984 12.2265625 7.59765625 C10.44378906 7.33275391 10.44378906 7.33275391 8.625 7.0625 C7.44164063 6.88847656 6.25828125 6.71445313 5.0390625 6.53515625 C2 6 2 6 0 5 C0 3.35 0 1.7 0 0 Z M170 5 C170 60.77 170 116.54 170 174 C172.23956816 171.76043184 173.75776106 169.98180626 175.5 167.4375 C183.35402132 156.93346659 194.05482607 149.8877237 205 143 C205.92167969 142.41089844 206.84335937 141.82179687 207.79296875 141.21484375 C213.62589634 137.58896984 219.69403187 134.70940836 226 132 C226 131.34 226 130.68 226 130 C226.84304688 129.84337891 226.84304688 129.84337891 227.703125 129.68359375 C230.42380471 128.87386765 232.39257807 127.63796662 234.75 126.0625 C235.54921875 125.53785156 236.3484375 125.01320313 237.171875 124.47265625 C237.77515625 123.98667969 238.3784375 123.50070313 239 123 C239 122.34 239 121.68 239 121 C239.66 121 240.32 121 241 121 C241 120.34 241 119.68 241 119 C241.66 119 242.32 119 243 119 C243 118.34 243 117.68 243 117 C243.99 116.67 244.98 116.34 246 116 C246 115.34 246 114.68 246 114 C246.66 114 247.32 114 248 114 C248.66 112.35 249.32 110.7 250 109 C250.66 109 251.32 109 252 109 C252 108.01 252 107.02 252 106 C252.66 106 253.32 106 254 106 C264.06315333 85.56275321 269.94714358 65.64350935 263 43 C257.4859941 29.18156703 248.07414164 17.09898874 234.234375 10.87109375 C213.47407605 2.7774807 192.20072731 5 170 5 Z M19 22 C18.79246094 22.88816406 18.58492188 23.77632812 18.37109375 24.69140625 C16.38919155 32.90925176 14.1338787 40.98959236 11.625 49.0625 C9.21339583 56.83065424 7.00171172 64.61632501 5 72.5 C3.03441489 80.23677964 0.87137236 87.87782414 -1.5 95.5 C-4.15620785 104.04350696 -6.51793634 112.62500828 -8.72827148 121.29370117 C-11.06048836 130.38215784 -13.69574709 139.37176376 -16.34765625 148.37109375 C-19.27713174 158.31593611 -22.02073504 168.30989858 -24.6875 178.328125 C-29.93237671 198.00959254 -29.93237671 198.00959254 -32.5625 206.1875 C-34.86894742 213.36227942 -36.75360272 220.61468649 -38.62036133 227.91479492 C-41.03669593 237.29617728 -43.73794742 246.58575275 -46.484375 255.875 C-46.74581299 256.76695068 -47.00725098 257.65890137 -47.27661133 258.57788086 C-47.88180255 260.60424 -48.52783397 262.61834242 -49.18359375 264.62890625 C-50.19340137 268.79859034 -50.33053004 272.66438014 -50.3125 276.9375 C-50.32861328 277.69740234 -50.34472656 278.45730469 -50.36132812 279.24023438 C-50.36851171 287.65221794 -47.40293646 295.50841217 -42 302 C-33.14351471 309.63311864 -24.10941615 311.57515778 -12.61328125 311.3671875 C-7.79826781 310.87787803 -4.1273007 309.45273956 0 307 C0.66 306.67 1.32 306.34 2 306 C2 305.34 2 304.68 2 304 C2.66 304 3.32 304 4 304 C4 303.34 4 302.68 4 302 C4.66 302 5.32 302 6 302 C7.3606009 300.51363242 7.3606009 300.51363242 8.625 298.625 C9.07101563 297.99851562 9.51703125 297.37203125 9.9765625 296.7265625 C11.16996969 295.04777357 11.16996969 295.04777357 11 293 C11.66 293 12.32 293 13 293 C21.2967798 282.66302844 25.8589536 268.08209085 30.96484375 256.00390625 C36.17484908 243.68777367 41.38889385 231.63180469 48 220 C48.4228125 219.16210938 48.845625 218.32421875 49.28125 217.4609375 C53.7167551 208.73977545 60.05407483 201.18745433 69 197 C67.77003284 190.36167903 66.22274983 183.91077186 64.3125 177.4375 C63.77409533 175.58221809 63.23636303 173.72674096 62.69921875 171.87109375 C62.41997559 170.90929199 62.14073242 169.94749023 61.85302734 168.95654297 C60.41677405 163.97857291 59.01991083 158.9896867 57.625 154 C57.33536377 152.96407715 57.04572754 151.9281543 56.74731445 150.86083984 C51.88035683 133.42787251 47.05576303 115.98395014 42.375 98.5 C40.0906673 89.96768446 37.72456825 81.46463739 35.27124023 72.97949219 C33.24108069 65.9254453 31.33081125 58.84186869 29.4375 51.75 C26.77681984 41.78544885 23.98374337 31.87247808 21 22 C20.34 22 19.68 22 19 22 Z M211 145 C209.53157388 145.83175418 208.05377941 146.6474519 206.5625 147.4375 C202.9597995 149.42608738 199.43675339 151.52172169 195.9375 153.6875 C194.99777344 154.26886719 194.05804688 154.85023438 193.08984375 155.44921875 C192.40019531 155.96097656 191.71054687 156.47273438 191 157 C191 157.66 191 158.32 191 159 C190.401875 159.28875 189.80375 159.5775 189.1875 159.875 C186.80672208 161.04742026 186.80672208 161.04742026 184 163 C184 163.66 184 164.32 184 165 C183.34 165 182.68 165 182 165 C180.07802269 167.08895623 180.07802269 167.08895623 178.125 169.8125 C177.10792969 171.15248047 177.10792969 171.15248047 176.0703125 172.51953125 C170.41564333 181.30970394 169.42366159 190.22312449 169.54589844 200.45776367 C169.54531433 201.75659485 169.54473022 203.05542603 169.54412842 204.39361572 C169.54299094 207.91993916 169.56634104 211.44570712 169.59442425 214.97190261 C169.61960124 218.6700665 169.62179263 222.36824617 169.62652588 226.06648254 C169.63890818 233.05380803 169.67166466 240.04088016 169.71192384 247.02809459 C169.7567903 254.98946821 169.77866579 262.95085458 169.79870558 270.91232336 C169.84040221 287.27503003 169.91066072 303.63748257 170 320 C178.93688429 320.02327795 187.87375797 320.04099329 196.81066608 320.05181217 C200.96143485 320.05700742 205.11218271 320.06404333 209.26293945 320.07543945 C213.27649831 320.08638862 217.29003719 320.09230206 221.30360985 320.09487724 C222.82682802 320.09670999 224.35004522 320.10028836 225.87325478 320.10573006 C248.23200924 320.18235412 266.31803375 317.42894021 283.41015625 301.6015625 C287.46430855 297.90157162 287.46430855 297.90157162 289 293 C289.66 293 290.32 293 291 293 C309.61135684 273.26247826 310.88640625 240.06622803 310.17919922 214.78320312 C309.8313035 207.43852726 308.43001408 200.94504024 306 194 C305.66258789 193.02208496 305.66258789 193.02208496 305.31835938 192.02441406 C297.83861995 170.74939764 284.15563751 154.44399542 264 144 C261.04429726 142.76388823 258.10173116 141.79606246 255 141 C254.39164307 140.83371094 253.78328613 140.66742188 253.15649414 140.49609375 C246.63102758 138.85309164 240.27197079 138.56455294 233.5625 138.5 C232.49451172 138.45875 231.42652344 138.4175 230.32617188 138.375 C222.22919752 138.29586036 217.53883158 140.40025504 211 145 Z " fill="#FB6E06" transform="translate(106,80)"/>
<path d="M0 0 C21.12 0 42.24 0 64 0 C64 0.33 64 0.66 64 1 C49.645 1.99 49.645 1.99 35 3 C34.67 59.76 34.34 116.52 34 175 C34.66 175 35.32 175 36 175 C35.67 178.3 35.34 181.6 35 185 C34.01 185.33 33.02 185.66 32 186 C32 229.89 32 273.78 32 319 C33.32 319.66 34.64 320.32 36 321 C26.43 321 16.86 321 7 321 C6.67 320.34 6.34 319.68 6 319 C6.99 319 7.98 319 9 319 C9.37125 317.9171875 9.37125 317.9171875 9.75 316.8125 C11 314 11 314 13.04637909 312.06439972 C16.0799834 307.3059657 15.551316 302.6880847 15.50793457 297.15710449 C15.51417453 295.94354515 15.5204145 294.7299858 15.52684355 293.47965193 C15.54004148 290.11401883 15.53528756 286.74927812 15.52289867 283.38369918 C15.51385373 279.75308769 15.52781512 276.12255457 15.53881836 272.49195862 C15.55661419 265.38082571 15.55275892 258.26986159 15.5411678 251.15872204 C15.53213791 245.37988405 15.53090754 239.60109339 15.53526306 233.82225037 C15.53587599 233.00008914 15.53648893 232.17792792 15.53712043 231.33085272 C15.53839932 229.66070003 15.53969617 227.99054735 15.5410108 226.32039469 C15.55241971 210.65568028 15.53929803 194.99105947 15.51780933 179.3263604 C15.49993805 165.88240302 15.50304207 152.43858379 15.52148438 138.99462891 C15.54288561 123.38635562 15.55132104 107.77816439 15.53903532 92.16987848 C15.53776111 90.50583555 15.53650363 88.8417926 15.53526306 87.17774963 C15.53433741 85.94960626 15.53433741 85.94960626 15.53339306 84.69665191 C15.52993791 78.9240856 15.53577204 73.15157131 15.54518127 67.37901306 C15.55639436 60.34511332 15.55337587 53.31139216 15.5320583 46.27751291 C15.52153843 42.68798644 15.51744167 39.09875781 15.53065491 35.50923347 C15.54475394 31.62028535 15.52793094 27.73182601 15.50793457 23.84289551 C15.51685746 22.70525867 15.52578034 21.56762183 15.53497362 20.39551115 C15.50197925 14.33857307 15.50197925 14.33857307 13.15184784 8.86528778 C9.28082398 5.50976544 4.73866046 3.81184076 0 2 C0 1.34 0 0.68 0 0 Z " fill="#FC6C02" transform="translate(241,82)"/>
<path d="M0 0 C8.82544176 -0.07049781 17.650782 -0.12330443 26.47644711 -0.15543652 C30.57758182 -0.17088287 34.67851961 -0.19171891 38.77954102 -0.22631836 C69.63893231 -0.47966083 97.22424259 0.309869 125 15 C125 15.66 125 16.32 125 17 C126.11568359 17.38478516 126.11568359 17.38478516 127.25390625 17.77734375 C134.76353119 21.12088942 140.03331926 29.04115178 144 36 C144.33 36.99 144.66 37.98 145 39 C145.66 39.66 146.32 40.32 147 41 C151.78958398 58.94615727 150.40141835 80.28871431 141.4296875 96.671875 C136.14689126 105.27446123 136.14689126 105.27446123 133 109 C132.34 109 131.68 109 131 109 C131 109.66 131 110.32 131 111 C130.34 111 129.68 111 129 111 C129 111.66 129 112.32 129 113 C123.52380952 118 123.52380952 118 121 118 C121 118.66 121 119.32 121 120 C119.48706055 121.23681641 119.48706055 121.23681641 117.38671875 122.6015625 C116.63326172 123.09140625 115.87980469 123.58125 115.10351562 124.0859375 C114.30623047 124.59382813 113.50894531 125.10171875 112.6875 125.625 C111.90181641 126.140625 111.11613281 126.65625 110.30664062 127.1875 C104.38112806 131 104.38112806 131 101 131 C101 131.66 101 132.32 101 133 C102.28132813 133.17015625 103.56265625 133.3403125 104.8828125 133.515625 C121.00501192 135.7350081 134.83771846 139.41978283 149.23046875 147.06689453 C151.79877998 148.42121097 154.39834439 149.7112169 157 151 C157 151.66 157 152.32 157 153 C157.72574219 153.24492187 158.45148438 153.48984375 159.19921875 153.7421875 C162.31287937 155.14051207 164.31400755 156.81296221 166.8125 159.125 C167.60269531 159.84945312 168.39289063 160.57390625 169.20703125 161.3203125 C170.09455078 162.15175781 170.09455078 162.15175781 171 163 C170.01 163.33 169.02 163.66 168 164 C167.34 163.67 166.68 163.34 166 163 C166 162.34 166 161.68 166 161 C165.34 161 164.68 161 164 161 C163.67 160.34 163.34 159.68 163 159 C160.55519921 159.18828772 160.55519921 159.18828772 158 160 C156.81531734 161.99386866 156.81531734 161.99386866 156 164 C155.48953125 163.443125 154.9790625 162.88625 154.453125 162.3125 C141.69068093 148.91645941 125.62454909 140.51310661 107.00390625 139.59375 C104.8569546 139.55173015 102.70976343 139.52065918 100.5625 139.5 C99.49451172 139.45875 98.42652344 139.4175 97.32617188 139.375 C89.2255918 139.29582512 84.54338407 141.40446823 78 146 C76.49016608 146.85310024 74.97068757 147.68962087 73.4375 148.5 C69.3935385 150.70906794 65.62070108 153.22148443 61.84765625 155.86328125 C60 157 60 157 58 157 C58 157.66 58 158.32 58 159 C53.52941176 163 53.52941176 163 51 163 C51 163.66 51 164.32 51 165 C50.34 165 49.68 165 49 165 C48.773125 165.515625 48.54625 166.03125 48.3125 166.5625 C47 169 47 169 44.625 172.0625 C41.30018527 176.58109094 39.71320097 181.70726182 38 187 C37.67 187 37.34 187 37 187 C37.33 183.7 37.66 180.4 38 177 C37.34 177 36.68 177 36 177 C35.97667335 154.59125806 35.95902198 132.18251812 35.94818783 109.77376652 C35.94302437 99.36976275 35.93598074 88.96576651 35.92456055 78.56176758 C35.91461522 69.49709726 35.90814693 60.4324324 35.90591151 51.36775678 C35.90460414 46.56497392 35.90151667 41.76220666 35.89426994 36.95942879 C35.88751211 32.444332 35.88538255 27.92925732 35.88689232 23.41415596 C35.88661588 21.7520282 35.88460936 20.08989974 35.88079453 18.42777634 C35.87586096 16.16850308 35.87700045 13.90931466 35.87974548 11.65003967 C35.87882369 10.38257432 35.8779019 9.11510897 35.87695217 7.80923557 C36 5 36 5 37 4 C40.3 3.67 43.6 3.34 47 3 C32.15 2.67 17.3 2.34 2 2 C3.25541557 4.51083114 4.50063488 4.87125446 7 6 C1.25 6.125 1.25 6.125 -1 5 C-0.67 3.35 -0.34 1.7 0 0 Z M37 5 C37 60.77 37 116.54 37 174 C39.23956816 171.76043184 40.75776106 169.98180626 42.5 167.4375 C50.35402132 156.93346659 61.05482607 149.8877237 72 143 C72.92167969 142.41089844 73.84335937 141.82179687 74.79296875 141.21484375 C80.62589634 137.58896984 86.69403187 134.70940836 93 132 C93 131.34 93 130.68 93 130 C93.84304688 129.84337891 93.84304688 129.84337891 94.703125 129.68359375 C97.42380471 128.87386765 99.39257807 127.63796662 101.75 126.0625 C102.54921875 125.53785156 103.3484375 125.01320313 104.171875 124.47265625 C104.77515625 123.98667969 105.3784375 123.50070313 106 123 C106 122.34 106 121.68 106 121 C106.66 121 107.32 121 108 121 C108 120.34 108 119.68 108 119 C108.66 119 109.32 119 110 119 C110 118.34 110 117.68 110 117 C110.99 116.67 111.98 116.34 113 116 C113 115.34 113 114.68 113 114 C113.66 114 114.32 114 115 114 C115.66 112.35 116.32 110.7 117 109 C117.66 109 118.32 109 119 109 C119 108.01 119 107.02 119 106 C119.66 106 120.32 106 121 106 C131.06315333 85.56275321 136.94714358 65.64350935 130 43 C124.4859941 29.18156703 115.07414164 17.09898874 101.234375 10.87109375 C80.47407605 2.7774807 59.20072731 5 37 5 Z " fill="#FA700B" transform="translate(239,80)"/>
<path d="M0 0 C2.625 0.375 2.625 0.375 5 1 C5 1.66 5 2.32 5 3 C5.66 3 6.32 3 7 3 C7 3.66 7 4.32 7 5 C7.969375 5.12375 8.93875 5.2475 9.9375 5.375 C15.76485857 6.99569686 19.57514956 12.28164382 23 17 C23.7578125 19.3203125 23.7578125 19.3203125 24 21 C24.66 21 25.32 21 26 21 C39.60549539 47.52307247 44.81910269 73.71566448 35.375 103.0625 C32.59300435 111.32254631 28.65165608 118.65652263 24 126 C23.34 126 22.68 126 22 126 C21.731875 126.7425 21.46375 127.485 21.1875 128.25 C20.04723249 130.89061949 18.90619694 132.85552844 17 135 C16.34 135 15.68 135 15 135 C15 135.66 15 136.32 15 137 C14.34 137 13.68 137 13 137 C13 137.66 13 138.32 13 139 C12.34 139 11.68 139 11 139 C11 139.66 11 140.32 11 141 C9.03630312 142.71823477 7.07897612 144.30708891 5 145.875 C4.40493652 146.32536621 3.80987305 146.77573242 3.19677734 147.23974609 C-3.27119263 152.05340499 -8.65888043 155.6950933 -17 155 C-17 152 -17 152 -15.0625 150 C-14.0415625 149.01 -14.0415625 149.01 -13 148 C-12.67 147.01 -12.34 146.02 -12 145 C-10.35570171 143.31126121 -8.68615782 141.64694485 -7 140 C-6.278125 139.071875 -5.55625 138.14375 -4.8125 137.1875 C-4.214375 136.465625 -3.61625 135.74375 -3 135 C-2.34 135 -1.68 135 -1 135 C-0.7525 134.319375 -0.505 133.63875 -0.25 132.9375 C0.95350976 130.10925207 2.39030058 127.52108016 3.93359375 124.86694336 C7.35161471 118.88305914 9.96478592 112.78779077 12.125 106.25 C12.37636719 105.528125 12.62773437 104.80625 12.88671875 104.0625 C16.69631557 92.65365507 17.40980738 81.27621788 17.375 69.3125 C17.37445618 68.60723175 17.37391235 67.9019635 17.37335205 67.17532349 C17.33480582 56.29464826 16.62226285 46.35251665 13 36 C12.77505859 35.34805664 12.55011719 34.69611328 12.31835938 34.02441406 C9.16099304 25.04375087 5.26008784 16.41553619 -0.65625 8.89453125 C-2.39960279 6.43660653 -2.3882759 4.95089688 -2 2 C-1.34 1.34 -0.68 0.68 0 0 Z " fill="#FA710C" transform="translate(398,238)"/>
<path d="M0 0 C0.33 0 0.66 0 1 0 C1 2.97 1 5.94 1 9 C2.32 9 3.64 9 5 9 C5.495 12.96 5.495 12.96 6 17 C6.66 17 7.32 17 8 17 C10.27141454 22.39460953 10.20413361 27.26157749 10 33 C8.0326586 29.46410262 6.97745912 25.82060602 5.875 21.9375 C5.52179688 20.70902344 5.16859375 19.48054688 4.8046875 18.21484375 C4 15 4 15 4 12 C3.34 12 2.68 12 2 12 C1.92136719 13.19367188 1.84273438 14.38734375 1.76171875 15.6171875 C1.08241816 21.69414181 -0.75104154 27.36791073 -2.57843018 33.18429565 C-3.6243308 36.51689203 -4.64289999 39.85778587 -5.66015625 43.19921875 C-5.965513 44.20079765 -5.965513 44.20079765 -6.27703857 45.22261047 C-8.0529989 51.08922702 -9.62564267 56.99519795 -11.125 62.9375 C-13.04594769 70.52959556 -15.17445036 78.02186102 -17.5 85.5 C-20.15609176 94.04354447 -22.5179349 102.62500266 -24.72827148 111.29370117 C-27.06048836 120.38215784 -29.69574709 129.37176376 -32.34765625 138.37109375 C-35.27713174 148.31593611 -38.02073504 158.30989858 -40.6875 168.328125 C-45.93237671 188.00959254 -45.93237671 188.00959254 -48.5625 196.1875 C-50.86894742 203.36227942 -52.75360272 210.61468649 -54.62036133 217.91479492 C-57.03669593 227.29617728 -59.73794742 236.58575275 -62.484375 245.875 C-62.74621582 246.76630615 -63.00805664 247.6576123 -63.27783203 248.57592773 C-63.88406514 250.6108461 -64.52053698 252.63672198 -65.1640625 254.66015625 C-66.15402255 258.61537046 -66.44669988 262.37745774 -66.625 266.4375 C-66.66367188 267.16904297 -66.70234375 267.90058594 -66.7421875 268.65429688 C-66.83533984 270.43583532 -66.91870286 272.21788122 -67 274 C-67.66 274 -68.32 274 -69 274 C-69.33 270.37 -69.66 266.74 -70 263 C-72.90882265 265.90882265 -72.07177088 273.68572215 -72.09765625 277.59375 C-72.09109367 279.56252394 -72.07929349 281.53128675 -72.0625 283.5 C-72.05573242 285.01980469 -72.05573242 285.01980469 -72.04882812 286.5703125 C-72.03714593 289.04693827 -72.02076582 291.52343657 -72 294 C-71.34 294 -70.68 294 -70 294 C-70 294.99 -70 295.98 -70 297 C-69.34 297 -68.68 297 -68 297 C-67.67 298.32 -67.34 299.64 -67 301 C-67.66 301.33 -68.32 301.66 -69 302 C-76.74602969 289.3481515 -76.64901551 275.37321554 -73.27734375 261.2109375 C-72.53642923 258.25444363 -71.74153029 255.31485134 -70.9375 252.375 C-70.52130463 250.78996042 -70.10669541 249.20450358 -69.69360352 247.61865234 C-67.16061226 237.9714332 -64.45963556 228.37033767 -61.59545898 218.81616211 C-59.22454134 210.90060925 -57.09735722 202.92926445 -55 194.9375 C-52.38255707 184.98441997 -49.57908499 175.1234348 -46.51269531 165.30004883 C-44.10654661 157.52713634 -42.02040499 149.68869614 -40.04052734 141.79711914 C-38.80430642 136.90496317 -37.41359885 132.13544741 -35.77685547 127.36328125 C-34.24047575 122.68944226 -32.99007681 117.9306585 -31.6875 113.1875 C-29.54509555 105.45072494 -27.34803334 97.73934156 -25 90.0625 C-22.33718524 81.32661458 -19.9571815 72.52464943 -17.60327148 63.70117188 C-14.22287334 51.04534767 -10.63646523 38.45637527 -6.8828125 25.90625 C-6.51921631 24.6886499 -6.15562012 23.4710498 -5.78100586 22.21655273 C-5.06667965 19.82956449 -4.34889316 17.44360829 -3.62719727 15.05883789 C-3.30033936 13.96821045 -2.97348145 12.87758301 -2.63671875 11.75390625 C-2.34498779 10.78783447 -2.05325684 9.8217627 -1.75268555 8.82641602 C-0.97306588 5.89885947 -0.45101315 2.99429541 0 0 Z " fill="#ED8F48" transform="translate(123,90)"/>
<path d="M0 0 C0 43.89 0 87.78 0 133 C16.9846875 132.7834375 16.9846875 132.7834375 34.3125 132.5625 C37.86684814 132.51939697 41.42119629 132.47629395 45.08325195 132.43188477 C48.31369028 132.38855728 48.31369028 132.38855728 51.54411316 132.34410095 C52.96527634 132.32507945 54.38646233 132.30771266 55.80766296 132.29173279 C75.48263771 132.06743431 90.47167928 130.13131803 107 119 C107.99 118.34 108.98 117.68 110 117 C109.1875 119.4375 109.1875 119.4375 108 122 C107.01 122.33 106.02 122.66 105 123 C105 123.99 105 124.98 105 126 C106.98 126 108.96 126 111 126 C92.37404591 141.68501397 61.41219486 138.42144554 38.77450585 138.30418181 C34.48112967 138.2852001 30.18774456 138.28364789 25.89433289 138.28010559 C17.7952745 138.27084737 9.69634018 138.24631956 1.59733599 138.21605712 C-7.63628498 138.1823172 -16.86991243 138.16597827 -26.10357988 138.15097082 C-45.06912313 138.11976309 -64.03455153 138.06712618 -83 138 C-83 136.35 -83 134.7 -83 133 C-82.14535156 132.86722656 -81.29070312 132.73445312 -80.41015625 132.59765625 C-78.75306641 132.33275391 -78.75306641 132.33275391 -77.0625 132.0625 C-75.96035156 131.88847656 -74.85820312 131.71445312 -73.72265625 131.53515625 C-71.09573071 131.28154864 -71.09573071 131.28154864 -70 130 C-69.33378244 123.20458088 -71.1098693 117.54642674 -73.125 111.07421875 C-74 108 -74 108 -74 105 C-73.34 105 -72.68 105 -72 105 C-70.68272247 110.0056546 -69.64187918 114.86496656 -69 120 C-68.34 120 -67.68 120 -67 120 C-66.89088773 121.56091166 -66.81390602 123.12408492 -66.75 124.6875 C-66.70359375 125.55761719 -66.6571875 126.42773438 -66.609375 127.32421875 C-67 130 -67 130 -71 135 C-48.89 135 -26.78 135 -4 135 C-3.67 90.78 -3.34 46.56 -3 1 C-1 0 -1 0 0 0 Z " fill="#EF7D2A" transform="translate(276,267)"/>
<path d="M0 0 C0.33 0 0.66 0 1 0 C1.33 55.44 1.66 110.88 2 168 C4.97 163.545 4.97 163.545 8 159 C18.27347873 147.41898761 31.51473818 139.33147076 45 132 C48.61679364 129.90893939 48.61679364 129.90893939 52.23046875 127.8125 C54 127 54 127 57 127 C57 126.34 57 125.68 57 125 C58.4160599 124.20724852 59.83287553 123.41584688 61.25 122.625 C62.03890625 122.18414062 62.8278125 121.74328125 63.640625 121.2890625 C65.73914197 120.14252177 67.8536077 119.05350448 70 118 C70 117.34 70 116.68 70 116 C70.66 116 71.32 116 72 116 C72 115.34 72 114.68 72 114 C72.66 114 73.32 114 74 114 C74.33 115.32 74.66 116.64 75 118 C75.66 118 76.32 118 77 118 C77 117.34 77 116.68 77 116 C78.65 116 80.3 116 82 116 C78.90797914 118.59330782 75.69688268 120.96315744 72.375 123.25 C71.61960937 123.77078125 70.86421875 124.2915625 70.0859375 124.828125 C68 126 68 126 65 126 C65 126.66 65 127.32 65 128 C66.28132813 128.17015625 67.56265625 128.3403125 68.8828125 128.515625 C85.00501192 130.7350081 98.83771846 134.41978283 113.23046875 142.06689453 C115.79877998 143.42121097 118.39834439 144.7112169 121 146 C121 146.66 121 147.32 121 148 C121.72574219 148.24492187 122.45148438 148.48984375 123.19921875 148.7421875 C126.31287937 150.14051207 128.31400755 151.81296221 130.8125 154.125 C131.60269531 154.84945312 132.39289063 155.57390625 133.20703125 156.3203125 C134.09455078 157.15175781 134.09455078 157.15175781 135 158 C134.01 158.33 133.02 158.66 132 159 C131.34 158.67 130.68 158.34 130 158 C130 157.34 130 156.68 130 156 C129.34 156 128.68 156 128 156 C127.67 155.34 127.34 154.68 127 154 C124.55519921 154.18828772 124.55519921 154.18828772 122 155 C120.81531734 156.99386866 120.81531734 156.99386866 120 159 C119.48953125 158.443125 118.9790625 157.88625 118.453125 157.3125 C105.69068093 143.91645941 89.62454909 135.51310661 71.00390625 134.59375 C68.8569546 134.55173015 66.70976343 134.52065918 64.5625 134.5 C63.49451172 134.45875 62.42652344 134.4175 61.32617188 134.375 C53.2255918 134.29582512 48.54338407 136.40446823 42 141 C40.49016608 141.85310024 38.97068757 142.68962087 37.4375 143.5 C33.3935385 145.70906794 29.62070108 148.22148443 25.84765625 150.86328125 C24 152 24 152 22 152 C22 152.66 22 153.32 22 154 C17.52941176 158 17.52941176 158 15 158 C15 158.66 15 159.32 15 160 C14.34 160 13.68 160 13 160 C12.773125 160.515625 12.54625 161.03125 12.3125 161.5625 C11 164 11 164 8.625 167.0625 C5.30018527 171.58109094 3.71320097 176.70726182 2 182 C1.67 182 1.34 182 1 182 C1.33 178.7 1.66 175.4 2 172 C1.34 172 0.68 172 0 172 C0 115.24 0 58.48 0 0 Z " fill="#EE7C29" transform="translate(275,85)"/>
<path d="M0 0 C0.66 0 1.32 0 2 0 C2.12117188 0.66386719 2.24234375 1.32773437 2.3671875 2.01171875 C3.39329898 7.51044811 3.39329898 7.51044811 5.125 12.8125 C6.13480892 15.33702229 6.15396332 17.30564195 6 20 C4 17 4 17 4 14 C-8.52049407 21.60802658 -13.91217226 32.13580153 -20.02246094 44.95068359 C-20.95512858 46.9059314 -21.90211044 48.85364294 -22.8515625 50.80078125 C-26.21567508 57.77500427 -29.14105689 64.82082339 -31.80566406 72.08984375 C-38.43300204 90.13727008 -46.79444113 110.85938006 -59 126 C-59.66 126 -60.32 126 -61 126 C-61.268125 126.598125 -61.53625 127.19625 -61.8125 127.8125 C-62.98493467 129.97224808 -64.19369282 131.35790256 -66 133 C-66.66 132.67 -67.32 132.34 -68 132 C-67.67 130.68 -67.34 129.36 -67 128 C-66.01 128 -65.02 128 -64 128 C-64.33 127.01 -64.66 126.02 -65 125 C-64.01 125 -63.02 125 -62 125 C-62 124.34 -62 123.68 -62 123 C-64.64 122.34 -67.28 121.68 -70 121 C-70 121.66 -70 122.32 -70 123 C-74.84422847 125.54748246 -79.49160376 125.22816428 -84.8125 125.125 C-86.13797852 125.11146484 -86.13797852 125.11146484 -87.49023438 125.09765625 C-89.66027359 125.07419637 -91.83017247 125.03832865 -94 125 C-94.33 124.01 -94.66 123.02 -95 122 C-96.98 122 -98.96 122 -101 122 C-101 121.34 -101 120.68 -101 120 C-101.99 119.67 -102.98 119.34 -104 119 C-103.01 118.505 -103.01 118.505 -102 118 C-100.41681456 118.59332185 -98.85777774 119.25147984 -97.3125 119.9375 C-88.77806289 123.15613791 -79.1369723 123.80974596 -70.6875 120 C-70.01074219 119.62875 -69.33398438 119.2575 -68.63671875 118.875 C-67 118 -67 118 -65 118 C-65 117.34 -65 116.68 -65 116 C-64.34 116 -63.68 116 -63 116 C-63 115.34 -63 114.68 -63 114 C-62.34 114 -61.68 114 -61 114 C-60.731875 113.443125 -60.46375 112.88625 -60.1875 112.3125 C-58.89100504 109.78774666 -57.57523677 107.36285516 -56 105 C-55.34 105 -54.68 105 -54 105 C-53.7421875 104.31679688 -53.484375 103.63359375 -53.21875 102.9296875 C-52.09432141 100.22673417 -50.83021421 97.64185591 -49.48828125 95.04150391 C-45.69822613 87.69171815 -42.27493204 80.21745958 -39 72.625 C-38.36288086 71.14845947 -38.36288086 71.14845947 -37.71289062 69.64208984 C-36.11750861 65.93643032 -34.5265893 62.22886969 -32.9375 58.52050781 C-14.62716711 15.9454076 -14.62716711 15.9454076 1 9 C0.505 4.545 0.505 4.545 0 0 Z " fill="#F18330" transform="translate(173,268)"/>
<path d="M0 0 C2.475 0.99 2.475 0.99 5 2 C5 2.99 5 3.98 5 5 C5.66 5 6.32 5 7 5 C7.114395 43.00568693 7.20252324 81.01134797 7.25532665 119.01717217 C7.26158033 123.50208967 7.26805193 127.98700683 7.2746582 132.47192383 C7.27596976 133.36480609 7.27728131 134.25768836 7.2786326 135.17762766 C7.30040089 149.64315545 7.33983023 164.10858408 7.38576398 178.57405301 C7.43248906 193.4122638 7.46028703 208.25042259 7.47044247 223.08870393 C7.47730985 232.24790961 7.4990149 241.40683505 7.53958233 250.56595448 C7.56597199 256.84308782 7.5740096 263.12007588 7.56750689 269.39726069 C7.56429804 273.02127431 7.56928448 276.64479758 7.59602737 280.26872444 C7.62479165 284.19517615 7.61496337 288.12098536 7.60127258 292.04753113 C7.61583679 293.19636046 7.630401 294.34518979 7.64540654 295.52883214 C7.56422194 304.10369537 7.56422194 304.10369537 4.46242046 307.2470293 C3.64982171 307.82550963 2.83722296 308.40398996 2 309 C1.34 308.67 0.68 308.34 0 308 C0.64952385 307.41912093 1.2990477 306.83824186 1.96825409 306.2397604 C5.03201932 301.3543733 4.55234027 296.82200982 4.50793457 291.16383362 C4.51417453 289.95097984 4.5204145 288.73812606 4.52684355 287.48851913 C4.5400415 284.12481647 4.53528751 280.7620067 4.52289867 277.39835823 C4.51385366 273.76977261 4.52781522 270.14126539 4.53881836 266.51269531 C4.55661464 259.40523739 4.55275856 252.29794833 4.5411678 245.19048376 C4.53213738 239.41403803 4.53090777 233.63763965 4.53526306 227.86118889 C4.53587599 227.03931639 4.53648893 226.21744389 4.53712043 225.37066616 C4.53839933 223.7010792 4.53969618 222.03149226 4.5410108 220.36190533 C4.55242002 204.70192954 4.5392979 189.04204736 4.51780933 173.38208693 C4.49994136 159.94470049 4.50303929 146.50745229 4.52148438 133.07006836 C4.5428908 117.46801141 4.55131784 101.86603656 4.53903532 86.26396698 C4.53776112 84.60018696 4.53650364 82.93640692 4.53526306 81.27262688 C4.53433741 80.04469457 4.53433741 80.04469457 4.53339306 78.79195555 C4.52993922 73.0228647 4.53576929 67.25382591 4.54518127 61.48474312 C4.55640026 54.45343381 4.55336356 47.42230313 4.5320583 40.39101429 C4.52154588 36.80338918 4.51742896 33.21606185 4.53065491 29.62843895 C4.54477356 25.73984092 4.52791507 21.85173048 4.50793457 17.96315002 C4.51685746 16.82842603 4.52578034 15.69370203 4.53497362 14.52459246 C4.47357034 8.38230746 4.10073493 4.69253342 0 0 Z " fill="#E9904E" transform="translate(252,88)"/>
<path d="M0 0 C0.33 0 0.66 0 1 0 C1.33 55.44 1.66 110.88 2 168 C4.97 163.545 4.97 163.545 8 159 C17.99070165 147.7377545 31.45813847 138.52777579 45 132 C45.99 132 46.98 132 48 132 C47.67 132.66 47.34 133.32 47 134 C47.57073242 133.83701416 48.14146484 133.67402832 48.72949219 133.50610352 C51.01653267 132.99631481 52.98964456 132.88564032 55.328125 132.90234375 C56.12734375 132.90556641 56.9265625 132.90878906 57.75 132.91210938 C58.575 132.92048828 59.4 132.92886719 60.25 132.9375 C61.09046875 132.94201172 61.9309375 132.94652344 62.796875 132.95117188 C64.86461401 132.96292039 66.93231624 132.98085478 69 133 C69 133.33 69 133.66 69 134 C67.88882813 134.00257813 66.77765625 134.00515625 65.6328125 134.0078125 C56.0605558 134.19305419 49.88067596 135.2124091 42 141 C40.49177862 141.85594786 38.97085002 142.68992829 37.4375 143.5 C33.3935385 145.70906794 29.62070108 148.22148443 25.84765625 150.86328125 C24 152 24 152 22 152 C22 152.66 22 153.32 22 154 C17.52941176 158 17.52941176 158 15 158 C15 158.66 15 159.32 15 160 C14.34 160 13.68 160 13 160 C12.773125 160.515625 12.54625 161.03125 12.3125 161.5625 C11 164 11 164 8.625 167.0625 C5.30018527 171.58109094 3.71320097 176.70726182 2 182 C1.67 182 1.34 182 1 182 C1.33 178.7 1.66 175.4 2 172 C1.34 172 0.68 172 0 172 C0 115.24 0 58.48 0 0 Z " fill="#F69D5F" transform="translate(275,85)"/>
<path d="M0 0 C0.88429688 -0.01417969 1.76859375 -0.02835937 2.6796875 -0.04296875 C5.125 0.1875 5.125 0.1875 8.125 2.1875 C8.125 2.8475 8.125 3.5075 8.125 4.1875 C8.785 4.1875 9.445 4.1875 10.125 4.1875 C11.73316725 9.01200176 11.92974053 13.3768338 9.875 18 C6.81031246 21.83085942 5.3002671 23.01409994 0.3125 23.75 C-3.89197582 23.54490362 -6.56273065 22.13911267 -9.578125 19.234375 C-12.1600725 15.15925305 -11.90083324 10.77234652 -10.875 6.1875 C-8.4375 3.0625 -8.4375 3.0625 -5.875 1.1875 C-4.21846314 -0.46903686 -2.26849204 0.01643835 0 0 Z " fill="#FA710B" transform="translate(439.875,381.8125)"/>
<path d="M0 0 C0.33 44.55 0.66 89.1 1 135 C-0.65 135 -2.3 135 -4 135 C-3.67 90.78 -3.34 46.56 -3 1 C-1 0 -1 0 0 0 Z " fill="#F48234" transform="translate(276,267)"/>
<path d="M0 0 C8.82544176 -0.07049781 17.650782 -0.12330443 26.47644711 -0.15543652 C30.57758182 -0.17088287 34.67851961 -0.19171891 38.77954102 -0.22631836 C58.0958898 -0.38511192 76.86569376 -0.05399642 96 3 C96 3.33 96 3.66 96 4 C93.69 4.33 91.38 4.66 89 5 C89.55429687 5.19335938 90.10859375 5.38671875 90.6796875 5.5859375 C91.40414062 5.84632812 92.12859375 6.10671875 92.875 6.375 C93.95394531 6.75785156 93.95394531 6.75785156 95.0546875 7.1484375 C97 8 97 8 99 10 C95.8003043 9.53175185 92.80902407 8.94180416 89.71118164 7.99780273 C78.16122879 4.89243748 65.00216729 5.75079319 53.0625 5.4375 C51.49283117 5.39414616 49.92316963 5.35052764 48.35351562 5.30664062 C44.56908705 5.2013908 40.78457946 5.0996701 37 5 C37 4.67 37 4.34 37 4 C40.3 3.67 43.6 3.34 47 3 C32.15 2.67 17.3 2.34 2 2 C3.25541557 4.51083114 4.50063488 4.87125446 7 6 C1.25 6.125 1.25 6.125 -1 5 C-0.67 3.35 -0.34 1.7 0 0 Z " fill="#ED8D4B" transform="translate(239,80)"/>
<path d="M0 0 C0.66 0 1.32 0 2 0 C3.31727753 5.0056546 4.35812082 9.86496656 5 15 C5.66 15 6.32 15 7 15 C7.10911227 16.56091166 7.18609398 18.12408492 7.25 19.6875 C7.29640625 20.55761719 7.3428125 21.42773438 7.390625 22.32421875 C6.88370562 25.7966165 5.23369343 27.36246408 3 30 C33.76800397 30.81955256 64.53141673 31.26003473 95.30877686 31.53222656 C101.05678349 31.58372883 106.80475684 31.63872172 112.55273438 31.69335938 C123.70179409 31.79885356 134.85088349 31.90070249 146 32 C146 32.33 146 32.66 146 33 C94.85 33 43.7 33 -9 33 C-9 31.35 -9 29.7 -9 28 C-7.71802734 27.80083984 -7.71802734 27.80083984 -6.41015625 27.59765625 C-5.30542969 27.42105469 -4.20070312 27.24445313 -3.0625 27.0625 C-1.96035156 26.88847656 -0.85820312 26.71445312 0.27734375 26.53515625 C2.90426929 26.28154864 2.90426929 26.28154864 4 25 C4.66621756 18.20458088 2.8901307 12.54642674 0.875 6.07421875 C0 3 0 3 0 0 Z " fill="#EB9A5E" transform="translate(202,372)"/>
<path d="M0 0 C1.50612859 3.01225718 0.35291893 4.88407771 -0.58203125 8.07421875 C-0.93716797 9.29947266 -1.29230469 10.52472656 -1.65820312 11.78710938 C-2.04278332 13.08729445 -2.4275505 14.38742422 -2.8125 15.6875 C-3.18621428 16.96790435 -3.5592688 18.24850146 -3.93164062 19.52929688 C-4.62537279 21.90940847 -5.32208259 24.28865561 -6.02270508 26.66674805 C-6.3452124 27.76672119 -6.66771973 28.86669434 -7 30 C-7.36230713 31.20769043 -7.72461426 32.41538086 -8.09790039 33.65966797 C-8.80598114 36.28157889 -9.28084301 38.49700072 -9.4140625 41.18359375 C-9.47207031 42.23256836 -9.47207031 42.23256836 -9.53125 43.30273438 C-9.57765625 44.35944336 -9.57765625 44.35944336 -9.625 45.4375 C-9.68300781 46.53481445 -9.68300781 46.53481445 -9.7421875 47.65429688 C-9.83533984 49.43583532 -9.91870286 51.21788122 -10 53 C-10.66 53 -11.32 53 -12 53 C-12.33 49.37 -12.66 45.74 -13 42 C-15.90882265 44.90882265 -15.07177088 52.68572215 -15.09765625 56.59375 C-15.09109367 58.56252394 -15.07929349 60.53128675 -15.0625 62.5 C-15.05798828 63.51320313 -15.05347656 64.52640625 -15.04882812 65.5703125 C-15.03714593 68.04693827 -15.02076582 70.52343657 -15 73 C-14.34 73 -13.68 73 -13 73 C-13 73.99 -13 74.98 -13 76 C-12.34 76 -11.68 76 -11 76 C-10.67 77.32 -10.34 78.64 -10 80 C-10.99 80.495 -10.99 80.495 -12 81 C-19.85540163 68.16951068 -19.56614081 53.97974556 -16.13671875 39.68359375 C-15.3578103 36.59086301 -14.52647149 33.51437689 -13.6875 30.4375 C-13.27736717 28.86182915 -12.86915861 27.28565615 -12.46289062 25.70898438 C-10.55751374 18.38641045 -8.52604334 11.13668554 -6 4 C-5.67 4 -5.34 4 -5 4 C-4.67 5.98 -4.34 7.96 -4 10 C-3.79503906 9.36191406 -3.59007812 8.72382813 -3.37890625 8.06640625 C-3.10949219 7.24011719 -2.84007812 6.41382813 -2.5625 5.5625 C-2.16224609 4.32693359 -2.16224609 4.32693359 -1.75390625 3.06640625 C-1 1 -1 1 0 0 Z " fill="#EE822F" transform="translate(66,311)"/>
<path d="M0 0 C0.66 0 1.32 0 2 0 C2.33 1.32 2.66 2.64 3 4 C3.99 3.67 4.98 3.34 6 3 C6.33 3.99 6.66 4.98 7 6 C9.00016466 7.20882096 9.00016466 7.20882096 11 8 C-4.1826215 20.81811487 -4.1826215 20.81811487 -14 20 C-14 17 -14 17 -12.0625 15 C-11.381875 14.34 -10.70125 13.68 -10 13 C-9.67 12.01 -9.34 11.02 -9 10 C-7.35570171 8.31126121 -5.68615782 6.64694485 -4 5 C-3.278125 4.071875 -2.55625 3.14375 -1.8125 2.1875 C-1.214375 1.465625 -0.61625 0.74375 0 0 Z " fill="#F87413" transform="translate(395,373)"/>
<path d="M0 0 C16.83 0 33.66 0 51 0 C51 1.65 51 3.3 51 5 C50 6 50 6 48.15234375 6.09765625 C46.1015625 6.06510417 44.05078125 6.03255208 42 6 C42 6.66 42 7.32 42 8 C41.01 8.66 40.02 9.32 39 10 C38.26656572 13.06556598 38.26656572 13.06556598 38 16 C37.67 16 37.34 16 37 16 C37 13.36 37 10.72 37 8 C37.66 8 38.32 8 39 8 C39 7.01 39 6.02 39 5 C42.3 4.67 45.6 4.34 49 4 C49 3.34 49 2.68 49 2 C44.40999752 2.1187794 39.82018823 2.24306042 35.23046875 2.37231445 C33.67093901 2.41547308 32.11136781 2.45716056 30.55175781 2.49731445 C28.30260758 2.55548213 26.05366241 2.61903923 23.8046875 2.68359375 C22.76838699 2.70866249 22.76838699 2.70866249 21.71115112 2.73423767 C17.72636037 2.85461593 13.91541988 3.25154219 10 4 C13.465 5.98 13.465 5.98 17 8 C17 8.66 17 9.32 17 10 C16.34 10 15.68 10 15 10 C15 9.34 15 8.68 15 8 C13.62714844 7.80083984 13.62714844 7.80083984 12.2265625 7.59765625 C11.03804687 7.42105469 9.84953125 7.24445313 8.625 7.0625 C6.84996094 6.80146484 6.84996094 6.80146484 5.0390625 6.53515625 C2 6 2 6 0 5 C0 3.35 0 1.7 0 0 Z " fill="#ED975D" transform="translate(106,80)"/>
<path d="M0 0 C16.55735299 -0.55465078 27.40797582 3.37811144 42 11 C42 11.66 42 12.32 42 13 C39.525 12.505 39.525 12.505 37 12 C37 11.34 37 10.68 37 10 C35.02 10.33 33.04 10.66 31 11 C31.66 12.98 32.32 14.96 33 17 C32.443125 16.61328125 31.88625 16.2265625 31.3125 15.828125 C26.35597191 12.44562948 21.42483749 9.56446863 16 7 C16 6.34 16 5.68 16 5 C15.43152344 4.87882812 14.86304688 4.75765625 14.27734375 4.6328125 C9.45754536 3.58677946 4.7267066 2.40795516 0 1 C0 0.67 0 0.34 0 0 Z " fill="#F18334" transform="translate(322,84)"/>
<path d="M0 0 C0 3 0 3 -2 6 C-2.66 6 -3.32 6 -4 6 C-4 6.99 -4 7.98 -4 9 C-2.02 9 -0.04 9 2 9 C-1.51295817 12.02404132 -5.45868114 13.53769061 -9.75 15.125 C-10.42804688 15.38925781 -11.10609375 15.65351563 -11.8046875 15.92578125 C-16.55316153 17.70420213 -20.95023282 18.53578373 -26 19 C-24.68 18.34 -23.36 17.68 -22 17 C-22 16.34 -22 15.68 -22 15 C-23.98 15 -25.96 15 -28 15 C-25.20654096 13.13769398 -23.77616117 12.61829715 -20.625 11.875 C-13.28745357 9.7862884 -5.41724958 5.41724958 0 0 Z " fill="#EE8F4C" transform="translate(385,384)"/>
<path d="M0 0 C0.98526354 3.47588057 0.85577054 5.70361404 0.0625 9.25 C-0.13214844 10.14203125 -0.32679687 11.0340625 -0.52734375 11.953125 C-0.68332031 12.62859375 -0.83929688 13.3040625 -1 14 C-0.01 12.02 0.98 10.04 2 8 C3.26856145 11.80568436 2.5105389 13.38854175 1.34765625 17.19921875 C0.98349609 18.40771484 0.61933594 19.61621094 0.24414062 20.86132812 C-0.14955268 22.13677646 -0.54343533 23.41216636 -0.9375 24.6875 C-1.3282691 25.97436819 -1.71825262 27.26147521 -2.10742188 28.54882812 C-3.06389828 31.70165777 -4.02838316 34.85180968 -5 38 C-5.495 36.515 -5.495 36.515 -6 35 C-6.66 35 -7.32 35 -8 35 C-8.12375 35.969375 -8.2475 36.93875 -8.375 37.9375 C-8.58125 38.948125 -8.7875 39.95875 -9 41 C-9.99 41.495 -9.99 41.495 -11 42 C-10.36564762 34.92782822 -8.58393803 28.3742618 -6.625 21.5625 C-6.16867188 19.94118164 -6.16867188 19.94118164 -5.703125 18.28710938 C-3.95642864 12.13261728 -2.07453352 6.05178338 0 0 Z " fill="#EE9553" transform="translate(109,142)"/>
<path d="M0 0 C0.66 0 1.32 0 2 0 C2.52267665 11.09236012 1.37088448 19.75194188 -5 29 C-5.86874218 31.65475963 -6.43255049 34.25732735 -7 37 C-7.33 37 -7.66 37 -8 37 C-8.59097533 28.71321262 -8.00603094 21.62722353 -5.6875 13.6875 C-5.47456299 12.94056885 -5.26162598 12.1936377 -5.04223633 11.42407227 C-4.38671875 9.32421875 -4.38671875 9.32421875 -3 6 C-2.01 5.67 -1.02 5.34 0 5 C0 3.35 0 1.7 0 0 Z " fill="#EA8F4B" transform="translate(69,287)"/>
<path d="M0 0 C0.66 0 1.32 0 2 0 C2.33 1.32 2.66 2.64 3 4 C3.66 4 4.32 4 5 4 C5 3.34 5 2.68 5 2 C6.65 2 8.3 2 10 2 C6.90797914 4.59330782 3.69688268 6.96315744 0.375 9.25 C-0.38039063 9.77078125 -1.13578125 10.2915625 -1.9140625 10.828125 C-4 12 -4 12 -7 12 C-7 12.66 -7 13.32 -7 14 C-2.38 14.66 2.24 15.32 7 16 C7 16.33 7 16.66 7 17 C1.06 16.67 -4.88 16.34 -11 16 C-11.33 15.01 -11.66 14.02 -12 13 C-10.68 13 -9.36 13 -8 13 C-8 12.34 -8 11.68 -8 11 C-9.36125 11.7734375 -9.36125 11.7734375 -10.75 12.5625 C-14 14 -14 14 -16.375 13.6875 C-16.91125 13.460625 -17.4475 13.23375 -18 13 C-17.01 13 -16.02 13 -15 13 C-15 12.34 -15 11.68 -15 11 C-13.5839401 10.20724852 -12.16712447 9.41584688 -10.75 8.625 C-9.96109375 8.18414062 -9.1721875 7.74328125 -8.359375 7.2890625 C-6.26085803 6.14252177 -4.1463923 5.05350448 -2 4 C-2 3.34 -2 2.68 -2 2 C-1.34 2 -0.68 2 0 2 C0 1.34 0 0.68 0 0 Z " fill="#EF9351" transform="translate(347,199)"/>
<path d="M0 0 C11.9471951 1.44061812 22.68922989 5.89285155 33 12 C31.68 12.33 30.36 12.66 29 13 C29 12.34 29 11.68 29 11 C28.071875 11.061875 27.14375 11.12375 26.1875 11.1875 C23 11 23 11 21.3125 9.5 C20.879375 9.005 20.44625 8.51 20 8 C19.01 8 18.02 8 17 8 C17.99 9.32 18.98 10.64 20 12 C16.24962157 10.81566997 12.62896387 9.4450001 9 7.9375 C5.33577529 6.44856277 1.96096158 5.41694332 -2 5 C-0.68 4.67 0.64 4.34 2 4 C1.34 2.68 0.68 1.36 0 0 Z " fill="#ED9149" transform="translate(357,216)"/>
<path d="M0 0 C0.33 0 0.66 0 1 0 C1 1.65 1 3.3 1 5 C1.66 5 2.32 5 3 5 C2.39039941 8.73129154 1.31305061 11.78038619 -0.3125 15.1875 C-2.74269734 20.38699199 -4.92299571 25.65084369 -7 31 C-8.41687119 26.74938644 -7.19320039 24.28148375 -6 20 C-6.66 19.67 -7.32 19.34 -8 19 C-6.00386732 12.2813095 -3.2708579 6.19265192 0 0 Z " fill="#F08B41" transform="translate(148,309)"/>
<path d="M0 0 C2.52588702 2.36292656 3.88820837 3.66462511 5 7 C5.66 7.66 6.32 8.32 7 9 C11.23375188 24.86350241 9.78130755 41.52478582 5 57 C4.67 57 4.34 57 4 57 C3.94527912 55.60461746 3.90688462 54.20859103 3.875 52.8125 C3.85179687 52.03519531 3.82859375 51.25789063 3.8046875 50.45703125 C4 48 4 48 4.99121094 45.73071289 C6.89417665 40.57953391 6.36923241 35.0580676 6.375 29.625 C6.39949219 28.4184375 6.42398437 27.211875 6.44921875 25.96875 C6.47236622 18.94735225 6.00751121 14.76746385 2 9 C1.171875 6.34765625 1.171875 6.34765625 0.75 4.0625 C0.60046875 3.29035156 0.4509375 2.51820312 0.296875 1.72265625 C0.14992188 0.86994141 0.14992188 0.86994141 0 0 Z " fill="#F09759" transform="translate(379,112)"/>
<path d="M0 0 C0.66 0 1.32 0 2 0 C2.81851382 11.86845032 -1.24250041 22.75920154 -7 33 C-7.33 33 -7.66 33 -8 33 C-7.78679875 31.47205767 -7.57111963 29.94444398 -7.34765625 28.41796875 C-7.0726932 26.50558528 -6.81290864 24.59101992 -6.55859375 22.67578125 C-6.39488281 21.50402344 -6.23117188 20.33226562 -6.0625 19.125 C-5.90910156 17.99320313 -5.75570312 16.86140625 -5.59765625 15.6953125 C-5.40042969 14.80585938 -5.20320313 13.91640625 -5 13 C-4.34 12.67 -3.68 12.34 -3 12 C-2.08514427 9.19521805 -2.08514427 9.19521805 -1.375 5.9375 C-1.11460938 4.83277344 -0.85421875 3.72804687 -0.5859375 2.58984375 C-0.39257812 1.73519531 -0.19921875 0.88054687 0 0 Z " fill="#EF8133" transform="translate(115,125)"/>
<path d="M0 0 C1.22419163 3.93795909 0.48320272 6.16112237 -1 10 C-1.66 10 -2.32 10 -3 10 C-3 10.99 -3 11.98 -3 13 C-3.66 13 -4.32 13 -5 13 C-4.67 13.99 -4.34 14.98 -4 16 C-3.01 16 -2.02 16 -1 16 C-2.25805377 20.50802601 -3.90407165 23.4912812 -7 27 C-7 25.02 -7 23.04 -7 21 C-7.99 21 -8.98 21 -10 21 C-10 21.66 -10 22.32 -10 23 C-11.32 22.67 -12.64 22.34 -14 22 C-13.360625 21.21625 -12.72125 20.4325 -12.0625 19.625 C-10.01857687 17.20460719 -10.01857687 17.20460719 -9 15 C-8.34 15 -7.68 15 -7 15 C-6.72414063 14.28457031 -6.44828125 13.56914062 -6.1640625 12.83203125 C-5.01751478 10.04261145 -3.73772885 7.37709642 -2.375 4.6875 C-1.92898437 3.80449219 -1.48296875 2.92148437 -1.0234375 2.01171875 C-0.68570313 1.34785156 -0.34796875 0.68398438 0 0 Z " fill="#F0873A" transform="translate(126,358)"/>
<path d="M0 0 C2.42061673 2.42061673 2.71828721 4.02628386 3.5859375 7.3203125 C3.87525146 8.40650879 4.16456543 9.49270508 4.46264648 10.61181641 C4.76372314 11.77116699 5.0647998 12.93051758 5.375 14.125 C5.83918335 15.88142822 5.83918335 15.88142822 6.31274414 17.67333984 C8.61793032 26.42979124 10.86021445 35.20162714 13 44 C12.01 44 11.02 44 10 44 C10 41.36 10 38.72 10 36 C9.34 36 8.68 36 8 36 C5.61828969 32.19726926 5.34489055 28.10996803 4.875 23.75 C4.78863281 23.00492187 4.70226562 22.25984375 4.61328125 21.4921875 C4.40213133 19.66222154 4.20015455 17.83120121 4 16 C3.34 16 2.68 16 2 16 C2 13.69 2 11.38 2 9 C1.34 9 0.68 9 0 9 C0 6.03 0 3.06 0 0 Z " fill="#EB8E48" transform="translate(213,348)"/>
<path d="M0 0 C0.33 0 0.66 0 1 0 C0.9278125 0.82757813 0.855625 1.65515625 0.78125 2.5078125 C-0.11305999 14.0096327 -0.1027196 25.46854009 0 37 C0.66 37 1.32 37 2 37 C2 37.99 2 38.98 2 40 C2.66 40 3.32 40 4 40 C4.33 41.32 4.66 42.64 5 44 C4.01 44.495 4.01 44.495 3 45 C-1.52254363 37.61317874 -3.37212642 31.02642145 -3.3125 22.375 C-3.31121094 21.59463379 -3.30992188 20.81426758 -3.30859375 20.01025391 C-3.19444398 13.03998367 -1.98723343 6.69508404 0 0 Z " fill="#EF9752" transform="translate(51,347)"/>
<path d="M0 0 C0.33 0 0.66 0 1 0 C0.67 8.91 0.34 17.82 0 27 C-0.66 27 -1.32 27 -2 27 C-2.33 23.37 -2.66 19.74 -3 16 C-3.66 16.33 -4.32 16.66 -5 17 C-4.7438709 14.91480784 -4.46951265 12.8318495 -4.1875 10.75 C-4.03667969 9.58984375 -3.88585938 8.4296875 -3.73046875 7.234375 C-3.00277134 4.01227095 -2.24336376 2.37878992 0 0 Z " fill="#EE873C" transform="translate(56,337)"/>
<path d="M0 0 C0.66 0 1.32 0 2 0 C2.37369729 7.47394574 1.04061541 13.82140651 -1 21 C-1.66 21 -2.32 21 -3 21 C-3 20.34 -3 19.68 -3 19 C-3.66 18.67 -4.32 18.34 -5 18 C-4.35852041 15.18644068 -3.71204485 12.37419761 -3.0625 9.5625 C-2.88009766 8.76005859 -2.69769531 7.95761719 -2.50976562 7.13085938 C-1.11328125 1.11328125 -1.11328125 1.11328125 0 0 Z " fill="#F08637" transform="translate(83,239)"/>
<path d="M0 0 C4.06498881 1.37184347 6.67396561 3.22068459 9.8125 6.125 C10.99779297 7.21167969 10.99779297 7.21167969 12.20703125 8.3203125 C12.79871094 8.87460938 13.39039063 9.42890625 14 10 C13.01 10.33 12.02 10.66 11 11 C10.34 10.67 9.68 10.34 9 10 C9 9.34 9 8.68 9 8 C8.34 8 7.68 8 7 8 C6.67 7.34 6.34 6.68 6 6 C3.55519921 6.18828772 3.55519921 6.18828772 1 7 C0.34 8.32 -0.32 9.64 -1 11 C-3.31 8.69 -5.62 6.38 -8 4 C-7.67 3.01 -7.34 2.02 -7 1 C-6.01 1.33 -5.02 1.66 -4 2 C-4 3.32 -4 4.64 -4 6 C-2.68 5.67 -1.36 5.34 0 5 C0 4.01 0 3.02 0 2 C0 1.34 0 0.68 0 0 Z " fill="#F08438" transform="translate(396,233)"/>
<path d="M0 0 C1.60433809 0.47859241 3.20846416 0.95789558 4.8125 1.4375 C6.15248047 1.83775391 6.15248047 1.83775391 7.51953125 2.24609375 C9.35473055 2.80387873 11.18033726 3.39344575 13 4 C15.41440173 4.12185361 17.83255526 4.17546093 20.25 4.1875 C22.17585938 4.20876953 22.17585938 4.20876953 24.140625 4.23046875 C28.14828876 3.9911447 31.210452 3.24191146 35 2 C34 5 34 5 32.05078125 6.1796875 C27.7365687 7.33971904 23.63178808 7.21116815 19.1875 7.125 C18.30384766 7.11597656 17.42019531 7.10695313 16.50976562 7.09765625 C14.33972641 7.07419637 12.16982753 7.03832865 10 7 C9.67 6.01 9.34 5.02 9 4 C7.02 4 5.04 4 3 4 C3 3.34 3 2.68 3 2 C2.01 1.67 1.02 1.34 0 1 C0 0.67 0 0.34 0 0 Z " fill="#ED9353" transform="translate(69,386)"/>
<path d="M0 0 C0.84062397 3.09773244 1.08935201 5.78332751 1 9 C1.99 6.69 2.98 4.38 4 2 C5.57159226 5.14318453 4.04018399 7.92933389 3.0625 11.125 C2.86720703 11.78371094 2.67191406 12.44242188 2.47070312 13.12109375 C1.98695014 14.74933552 1.49430925 16.37493182 1 18 C0.67 17.01 0.34 16.02 0 15 C-0.66 15 -1.32 15 -2 15 C-2.12375 15.969375 -2.2475 16.93875 -2.375 17.9375 C-2.58125 18.948125 -2.7875 19.95875 -3 21 C-3.66 21.33 -4.32 21.66 -5 22 C-4.38955672 14.36945905 -2.20378179 7.29810526 0 0 Z " fill="#EF9854" transform="translate(103,162)"/>
<path d="M0 0 C4.00776164 6.01164246 5.59914477 12.11005689 7.23828125 19.07421875 C7.89359183 21.59128348 8.6828911 23.85874782 9.6875 26.25 C11.19379883 30.55371094 11.24157571 33.49058667 11 38 C8.08681618 35.08681618 7.58752738 31.50624806 6.5625 27.625 C6.34368164 26.81514648 6.12486328 26.00529297 5.89941406 25.17089844 C5.25759466 22.78279935 4.62651667 20.39215456 4 18 C3.52626953 16.19402344 3.52626953 16.19402344 3.04296875 14.3515625 C1.82310595 9.58027648 0.7685411 4.86742694 0 0 Z " fill="#EC9659" transform="translate(188,322)"/>
<path d="M0 0 C0.33 0 0.66 0 1 0 C1.33 2.31 1.66 4.62 2 7 C1.34 7 0.68 7 0 7 C0 8.32 0 9.64 0 11 C0.66 11 1.32 11 2 11 C2.33 10.01 2.66 9.02 3 8 C2.53199289 12.05606165 2.12046792 15.46588679 0 19 C0 17.02 0 15.04 0 13 C-0.66 13 -1.32 13 -2 13 C-2.12117188 13.85464844 -2.24234375 14.70929688 -2.3671875 15.58984375 C-2.53476563 16.69457031 -2.70234375 17.79929688 -2.875 18.9375 C-3.03742188 20.03964844 -3.19984375 21.14179688 -3.3671875 22.27734375 C-3.68042969 23.62505859 -3.68042969 23.62505859 -4 25 C-4.66 25.33 -5.32 25.66 -6 26 C-5.39502042 19.93629658 -4.1366972 14.34485758 -2.4375 8.5 C-2.20353516 7.67757812 -1.96957031 6.85515625 -1.72851562 6.0078125 C-1.15757928 4.00370942 -0.57953295 2.00163409 0 0 Z " fill="#EE985B" transform="translate(117,112)"/>
<path d="M0 0 C10.55808656 -0.18451025 10.55808656 -0.18451025 15 1 C15 1.33 15 1.66 15 2 C12.87527424 2.05386629 10.75016348 2.09273071 8.625 2.125 C6.84996094 2.15980469 6.84996094 2.15980469 5.0390625 2.1953125 C2 2 2 2 0 0 Z M16 6 C16.66 6.66 17.32 7.32 18 8 C14.82031328 7.53467999 11.85472499 6.95486602 8.78125 6 C4.80498452 4.94842566 1.16463887 4.59281268 -2.9375 4.375 C-3.62134766 4.33632812 -4.30519531 4.29765625 -5.00976562 4.2578125 C-6.67279513 4.16477588 -8.33635847 4.08136213 -10 4 C-10 3.67 -10 3.34 -10 3 C-0.66719634 1.90301584 7.37074455 1.85398991 16 6 Z " fill="#F1954F" transform="translate(320,82)"/>
<path d="M0 0 C0.515625 0.2475 1.03125 0.495 1.5625 0.75 C0.5725 2.73 -0.4175 4.71 -1.4375 6.75 C3.1825 7.41 7.8025 8.07 12.5625 8.75 C12.5625 9.08 12.5625 9.41 12.5625 9.75 C6.6225 9.42 0.6825 9.09 -5.4375 8.75 C-5.7675 7.76 -6.0975 6.77 -6.4375 5.75 C-5.1175 5.75 -3.7975 5.75 -2.4375 5.75 C-2.4375 5.09 -2.4375 4.43 -2.4375 3.75 C-3.79875 4.5234375 -3.79875 4.5234375 -5.1875 5.3125 C-8.4375 6.75 -8.4375 6.75 -10.8125 6.4375 C-11.34875 6.210625 -11.885 5.98375 -12.4375 5.75 C-11.4475 5.75 -10.4575 5.75 -9.4375 5.75 C-9.4375 5.09 -9.4375 4.43 -9.4375 3.75 C-3.0375 -0.31153846 -3.0375 -0.31153846 0 0 Z " fill="#F09B5D" transform="translate(341.4375,206.25)"/>
<path d="M0 0 C0.99 0.33 1.98 0.66 3 1 C2.57312017 2.89825285 2.13300518 4.79353183 1.6875 6.6875 C1.44386719 7.74324219 1.20023438 8.79898437 0.94921875 9.88671875 C0.00739175 12.97575628 -1.22372937 15.31817964 -3 18 C-3.66 17.67 -4.32 17.34 -5 17 C-4.67702486 15.33129513 -4.33986667 13.66534667 -4 12 C-3.78150391 10.89591797 -3.78150391 10.89591797 -3.55859375 9.76953125 C-3.39488281 8.97933594 -3.23117188 8.18914062 -3.0625 7.375 C-2.90910156 6.61960937 -2.75570312 5.86421875 -2.59765625 5.0859375 C-2 3 -2 3 0 0 Z " fill="#F3771D" transform="translate(140,328)"/>
<path d="M0 0 C0.66 0 1.32 0 2 0 C3.31727753 5.0056546 4.35812082 9.86496656 5 15 C5.66 15 6.32 15 7 15 C7.08121924 16.60332791 7.13929134 18.20784026 7.1875 19.8125 C7.22230469 20.70582031 7.25710937 21.59914063 7.29296875 22.51953125 C7 25 7 25 5.625 26.84375 C4 28 4 28 1.8125 27.6875 C1.214375 27.460625 0.61625 27.23375 0 27 C1.32 26.34 2.64 25.68 4 25 C4.54573196 18.1783505 2.90004808 12.57827941 0.875 6.07421875 C0 3 0 3 0 0 Z " fill="#EC8D47" transform="translate(202,372)"/>
<path d="M0 0 C0.97591583 3.38317487 0.85856655 5.5657338 0 9 C1.32 7.68 2.64 6.36 4 5 C2.43551329 10.6143991 0.83604813 15.86810338 -2 21 C-2.33 21 -2.66 21 -3 21 C-2.54177532 17.53058454 -2.10868317 14.32604951 -1 11 C-1.66 11 -2.32 11 -3 11 C-3.33 11.99 -3.66 12.98 -4 14 C-4.33 13.34 -4.66 12.68 -5 12 C-4.26821134 9.92803369 -3.44100997 7.8891448 -2.5625 5.875 C-2.08941406 4.77929688 -1.61632812 3.68359375 -1.12890625 2.5546875 C-0.75636719 1.71164062 -0.38382813 0.86859375 0 0 Z " fill="#F09B59" transform="translate(136,336)"/>
<path d="M0 0 C0.33 0 0.66 0 1 0 C1.33 8.25 1.66 16.5 2 25 C1.01 25.33 0.02 25.66 -1 26 C-1.33 27.98 -1.66 29.96 -2 32 C-2.66 31.67 -3.32 31.34 -4 31 C-3.79503906 29.93523437 -3.59007812 28.87046875 -3.37890625 27.7734375 C-1.64110436 18.49836266 -0.43387713 9.440568 0 0 Z " fill="#EE8D49" transform="translate(372,137)"/>
<path d="M0 0 C9.57 0 19.14 0 29 0 C29 0.33 29 0.66 29 1 C22.73 1.33 16.46 1.66 10 2 C10.33 3.32 10.66 4.64 11 6 C9.3501725 5.57781184 7.70516335 5.13675575 6.0625 4.6875 C5.14597656 4.44386719 4.22945312 4.20023437 3.28515625 3.94921875 C2.53105469 3.63597656 1.77695313 3.32273437 1 3 C0.67 2.01 0.34 1.02 0 0 Z " fill="#F46F0F" transform="translate(241,82)"/>
<path d="M0 0 C9.05638678 -0.15178302 17.97582223 0.30962574 27 1 C27 1.33 27 1.66 27 2 C18.75 2 10.5 2 2 2 C3.25541557 4.51083114 4.50063488 4.87125446 7 6 C1.25 6.125 1.25 6.125 -1 5 C-0.67 3.35 -0.34 1.7 0 0 Z " fill="#E9955B" transform="translate(239,80)"/>
<path d="M0 0 C0.66 0.33 1.32 0.66 2 1 C1.67 1.66 1.34 2.32 1 3 C1.57073242 2.83701416 2.14146484 2.67402832 2.72949219 2.50610352 C5.01653267 1.99631481 6.98964456 1.88564032 9.328125 1.90234375 C10.52695312 1.90717773 10.52695312 1.90717773 11.75 1.91210938 C12.575 1.92048828 13.4 1.92886719 14.25 1.9375 C15.09046875 1.94201172 15.9309375 1.94652344 16.796875 1.95117188 C18.86461401 1.96292039 20.93231624 1.98085478 23 2 C23 2.33 23 2.66 23 3 C21.865625 3.02578125 20.73125 3.0515625 19.5625 3.078125 C8.21503516 3.39359603 8.21503516 3.39359603 -2 8 C-2 7.34 -2 6.68 -2 6 C-2.66 6 -3.32 6 -4 6 C-3.6875 4.125 -3.6875 4.125 -3 2 C-2.01 1.34 -1.02 0.68 0 0 Z " fill="#F09C5C" transform="translate(321,216)"/>
<path d="M0 0 C0.33 0 0.66 0 1 0 C1 3.63 1 7.26 1 11 C1.66 9.68 2.32 8.36 3 7 C4.21065165 10.63195496 3.62784815 12.06531629 2.5625 15.6875 C2.27503906 16.68136719 1.98757812 17.67523438 1.69140625 18.69921875 C1.46324219 19.45847656 1.23507813 20.21773437 1 21 C0.67 21 0.34 21 0 21 C0 19.02 0 17.04 0 15 C-0.99 15.33 -1.98 15.66 -3 16 C-2.40984815 10.49191603 -1.43336231 5.35121931 0 0 Z " fill="#ED9252" transform="translate(85,224)"/>
<path d="M0 0 C0.66 0 1.32 0 2 0 C1.34 3.96 0.68 7.92 0 12 C-1.98 12.66 -3.96 13.32 -6 14 C-6 12.68 -6 11.36 -6 10 C-5.34 10 -4.68 10 -4 10 C-4 9.01 -4 8.02 -4 7 C-3.34 7 -2.68 7 -2 7 C-1.855625 6.030625 -1.71125 5.06125 -1.5625 4.0625 C-1 1 -1 1 0 0 Z " fill="#F47B22" transform="translate(127,361)"/>
<path d="M0 0 C1.57156655 3.1431331 0.11705576 5.365464 -0.9375 8.625 C-1.31777344 9.81351562 -1.69804688 11.00203125 -2.08984375 12.2265625 C-2.39019531 13.14179688 -2.69054688 14.05703125 -3 15 C-4.65 14.67 -6.3 14.34 -8 14 C-8.33 14.66 -8.66 15.32 -9 16 C-8.71788123 14.3733152 -8.42397625 12.74867104 -8.125 11.125 C-7.96257813 10.22007812 -7.80015625 9.31515625 -7.6328125 8.3828125 C-7 6 -7 6 -5 4 C-4.67 5.98 -4.34 7.96 -4 10 C-3.79503906 9.36191406 -3.59007812 8.72382813 -3.37890625 8.06640625 C-3.10949219 7.24011719 -2.84007812 6.41382813 -2.5625 5.5625 C-2.16224609 4.32693359 -2.16224609 4.32693359 -1.75390625 3.06640625 C-1 1 -1 1 0 0 Z " fill="#EE9252" transform="translate(66,311)"/>
<path d="M0 0 C0.66 1.32 1.32 2.64 2 4 C2.66 4 3.32 4 4 4 C4.12117187 4.6290625 4.24234375 5.258125 4.3671875 5.90625 C5.17617302 10.03829911 6.00809738 14.12676118 7.125 18.1875 C8.0115659 22.05039426 8.16352206 25.07547048 8 29 C5.53805112 24.38666614 4.29575171 19.5100192 2.875 14.5 C2.59785156 13.54996094 2.32070312 12.59992188 2.03515625 11.62109375 C1.64263672 10.24630859 1.64263672 10.24630859 1.2421875 8.84375 C1.0035498 8.01037109 0.76491211 7.17699219 0.51904297 6.31835938 C0 4 0 4 0 0 Z " fill="#EC9454" transform="translate(147,174)"/>
<path d="M0 0 C0.33 0 0.66 0 1 0 C0.72962375 7.35423405 -0.26918654 12.62151248 -4 19 C-4.33 19 -4.66 19 -5 19 C-5.58829594 12.38167071 -3.60608013 7.04945508 -1 1 C-0.67 0.67 -0.34 0.34 0 0 Z " fill="#F3700E" transform="translate(76,267)"/>
<path d="M0 0 C2.24912624 2.24912624 2.51429624 3.3291702 3.25390625 6.359375 C3.46853516 7.22820312 3.68316406 8.09703125 3.90429688 8.9921875 C4.12150391 9.90226563 4.33871094 10.81234375 4.5625 11.75 C4.78357422 12.64460937 5.00464844 13.53921875 5.23242188 14.4609375 C6.32944955 18.95510526 7.3249933 23.41905562 8 28 C7.34 26.68 6.68 25.36 6 24 C5.34 24 4.68 24 4 24 C3.87882813 23.10796875 3.75765625 22.2159375 3.6328125 21.296875 C3.46523437 20.12640625 3.29765625 18.9559375 3.125 17.75 C2.96257812 16.58984375 2.80015625 15.4296875 2.6328125 14.234375 C2.07317988 11.37403048 1.31383246 9.5400761 0 7 C-0.0777346 4.66796188 -0.08967728 2.33160941 0 0 Z " fill="#ED8E47" transform="translate(181,233)"/>
<path d="M0 0 C4.62 0 9.24 0 14 0 C14 0.33 14 0.66 14 1 C12.02 1.33 10.04 1.66 8 2 C11.465 3.98 11.465 3.98 15 6 C15 6.66 15 7.32 15 8 C14.34 8 13.68 8 13 8 C13 7.34 13 6.68 13 6 C8.71 5.34 4.42 4.68 0 4 C0 2.68 0 1.36 0 0 Z " fill="#EF8335" transform="translate(108,82)"/>
<path d="M0 0 C0 0.66 0 1.32 0 2 C-1.32 2 -2.64 2 -4 2 C-3.67 3.32 -3.34 4.64 -3 6 C-0.36 6 2.28 6 5 6 C5 6.33 5 6.66 5 7 C-0.61 7 -6.22 7 -12 7 C-9.38926236 1.77852472 -5.87674597 0 0 0 Z " fill="#F66F0B" transform="translate(339,210)"/>
<path d="M0 0 C0.33 0 0.66 0 1 0 C0.91304042 2.60578866 0.80618592 5.2081279 0.6875 7.8125 C0.66494141 8.55048828 0.64238281 9.28847656 0.61914062 10.04882812 C0.34635393 15.52936075 0.34635393 15.52936075 -1.48046875 18.01171875 C-3 19 -3 19 -4 19 C-4.14285714 10.42857143 -4.14285714 10.42857143 -3 7 C-2.34 7 -1.68 7 -1 7 C-0.67 4.69 -0.34 2.38 0 0 Z " fill="#F07920" transform="translate(96,194)"/>
<path d="M0 0 C2.6268119 3.94021786 3.49573542 7.89113881 4.6875 12.4375 C5.04424805 13.72624023 5.04424805 13.72624023 5.40820312 15.04101562 C5.62798828 15.87181641 5.84777344 16.70261719 6.07421875 17.55859375 C6.27619873 18.31454834 6.47817871 19.07050293 6.6862793 19.84936523 C7.02954029 22.20250616 6.72719845 23.75475491 6 26 C2.12308538 17.25905966 0.17235099 9.57331393 0 0 Z " fill="#EC9855" transform="translate(174,207)"/>
<path d="M0 0 C0.99 0.33 1.98 0.66 3 1 C3.94921875 3.94921875 3.94921875 3.94921875 4.6875 7.6875 C5.06455078 9.51861328 5.06455078 9.51861328 5.44921875 11.38671875 C5.94916693 14.66652063 6.10674691 17.69084566 6 21 C3.28441527 18.28441527 2.7991846 15.23958865 1.875 11.625 C1.69324219 10.95210938 1.51148438 10.27921875 1.32421875 9.5859375 C0.44863469 6.24160138 0 3.4843149 0 0 Z " fill="#EB8E47" transform="translate(182,300)"/>
<path d="M0 0 C0.33 1.32 0.66 2.64 1 4 C1.66 4.33 2.32 4.66 3 5 C1.02 7.64 -0.96 10.28 -3 13 C-4 11 -4 11 -4 8 C-4.66 7.67 -5.32 7.34 -6 7 C-4.02 4.69 -2.04 2.38 0 0 Z " fill="#EF904B" transform="translate(165,283)"/>
<path d="M0 0 C0.99 0 1.98 0 3 0 C3 1.65 3 3.3 3 5 C2.34 5 1.68 5 1 5 C0.7525 5.639375 0.505 6.27875 0.25 6.9375 C-1 9 -1 9 -3.125 9.75 C-4.053125 9.87375 -4.053125 9.87375 -5 10 C-4.300926 6.22500037 -2.74803773 2.74803773 0 0 Z " fill="#EC8538" transform="translate(287,240)"/>
<path d="M0 0 C0.66 0 1.32 0 2 0 C3.35439668 2.70879335 3.06501451 5.00933268 3 8 C3.66 8 4.32 8 5 8 C5.13277344 8.68707031 5.26554688 9.37414062 5.40234375 10.08203125 C5.57894531 10.98308594 5.75554687 11.88414062 5.9375 12.8125 C6.19853516 14.15248047 6.19853516 14.15248047 6.46484375 15.51953125 C6.97741153 18.11397171 6.97741153 18.11397171 8 21 C8.03954234 23.33299825 8.04401732 25.66708189 8 28 C6.45012669 25.09952281 5.39832985 22.27986355 4.4921875 19.12109375 C4.22792969 18.20005859 3.96367187 17.27902344 3.69140625 16.33007812 C3.42199219 15.37552734 3.15257812 14.42097656 2.875 13.4375 C2.59785156 12.47908203 2.32070312 11.52066406 2.03515625 10.53320312 C1.77347656 9.61345703 1.51179687 8.69371094 1.2421875 7.74609375 C0.88423096 6.48817017 0.88423096 6.48817017 0.51904297 5.20483398 C0 3 0 3 0 0 Z " fill="#ED9550" transform="translate(160,222)"/>
<path d="M0 0 C2.9375 0.375 2.9375 0.375 6 1 C6.33 1.66 6.66 2.32 7 3 C9.52733235 3.65555119 9.52733235 3.65555119 12 4 C12 4.99 12 5.98 12 7 C13.98 7.66 15.96 8.32 18 9 C15.26980214 10.06528748 14.20701188 10.07998186 11.421875 9.00390625 C10.54015625 8.52824219 9.6584375 8.05257813 8.75 7.5625 C7.85796875 7.08941406 6.9659375 6.61632812 6.046875 6.12890625 C5.37140625 5.75636719 4.6959375 5.38382812 4 5 C4 4.34 4 3.68 4 3 C2.68 2.34 1.36 1.68 0 1 C0 0.67 0 0.34 0 0 Z " fill="#EC8C43" transform="translate(57,395)"/>
<path d="M0 0 C-0.33 0.66 -0.66 1.32 -1 2 C1.31 2 3.62 2 6 2 C2.85426323 4.09715785 0.98543749 4.52004559 -2.6875 5.125 C-3.68136719 5.29257812 -4.67523438 5.46015625 -5.69921875 5.6328125 C-6.45847656 5.75398438 -7.21773438 5.87515625 -8 6 C-6.68 5.34 -5.36 4.68 -4 4 C-4 3.34 -4 2.68 -4 2 C-5.98 2 -7.96 2 -10 2 C-6.70021068 -0.19985954 -3.76967739 -1.88483869 0 0 Z " fill="#EE9A5E" transform="translate(367,397)"/>
<path d="M0 0 C2.63701337 3.95552006 3.49697412 7.93462154 4.6875 12.5 C5.04424805 13.80130859 5.04424805 13.80130859 5.40820312 15.12890625 C5.62798828 15.96292969 5.84777344 16.79695313 6.07421875 17.65625 C6.27619873 18.41744141 6.47817871 19.17863281 6.6862793 19.96289062 C7 22 7 22 6 25 C5.18167278 23.10667466 4.37057732 21.21022267 3.5625 19.3125 C3.11003906 18.25675781 2.65757812 17.20101563 2.19140625 16.11328125 C0.07568059 10.58464732 -0.09906094 5.84459549 0 0 Z " fill="#E99151" transform="translate(194,279)"/>
<path d="M0 0 C3.75363502 3.97807918 4.88355611 7.59757694 5.6875 12.875 C5.80416016 13.55691406 5.92082031 14.23882812 6.04101562 14.94140625 C6.77280597 19.28253544 7.39099391 23.64019936 8 28 C3.38314635 19.63195276 1.63614025 9.34322197 0 0 Z " fill="#EE9B5A" transform="translate(136,135)"/>
<path d="M0 0 C0.33 1.32 0.66 2.64 1 4 C1.33 3.34 1.66 2.68 2 2 C2.66 2 3.32 2 4 2 C3.34 6.95 2.68 11.9 2 17 C1.67 17 1.34 17 1 17 C1 13.7 1 10.4 1 7 C0.01 9.31 -0.98 11.62 -2 14 C-2.33 14 -2.66 14 -3 14 C-2.40380045 9.13103697 -1.43023178 4.67209049 0 0 Z " fill="#F09853" transform="translate(75,261)"/>
<path d="M0 0 C-0.32626495 6.32278971 -0.61504892 11.55464391 -4 17 C-5.41687119 12.74938644 -4.19320039 10.28148375 -3 6 C-3.66 5.67 -4.32 5.34 -5 5 C-4.625 3.0625 -4.625 3.0625 -4 1 C-2 0 -2 0 0 0 Z " fill="#EF8738" transform="translate(145,323)"/>
<path d="M0 0 C4.22783096 4.54100362 7.08205665 10.1235617 9 16 C8.63671875 18.33984375 8.63671875 18.33984375 8 20 C7.74605469 19.37351562 7.49210937 18.74703125 7.23046875 18.1015625 C6.88628906 17.28429687 6.54210937 16.46703125 6.1875 15.625 C5.85105469 14.81289063 5.51460938 14.00078125 5.16796875 13.1640625 C4.05560918 10.69852542 4.05560918 10.69852542 1 9 C0.48828125 6.8359375 0.48828125 6.8359375 0.3125 4.375 C0.24675781 3.55773437 0.18101562 2.74046875 0.11328125 1.8984375 C0.07589844 1.27195312 0.03851563 0.64546875 0 0 Z " fill="#EC8F4F" transform="translate(424,261)"/>
<path d="M0 0 C1.80984343 2.71476515 2.49364438 4.31091094 3.2890625 7.37890625 C3.50820312 8.21744141 3.72734375 9.05597656 3.953125 9.91992188 C4.17484375 10.79197266 4.3965625 11.66402344 4.625 12.5625 C4.85445312 13.43841797 5.08390625 14.31433594 5.3203125 15.21679688 C7 21.71058873 7 21.71058873 7 24 C6.34 24 5.68 24 5 24 C4.34 20.37 3.68 16.74 3 13 C2.34 13 1.68 13 1 13 C0.67 8.71 0.34 4.42 0 0 Z " fill="#EE9D61" transform="translate(144,99)"/>
<path d="M0 0 C1.96276436 2.94414653 2.71733962 5.05898636 3.625 8.4375 C4.01558594 9.85869141 4.01558594 9.85869141 4.4140625 11.30859375 C5 14 5 14 5 18 C4.34 18 3.68 18 3 18 C0.5206176 11.75726932 -0.31985731 6.71700347 0 0 Z " fill="#EF8F4D" transform="translate(189,261)"/>
<path d="M0 0 C0 0.66 0 1.32 0 2 C-3.34939881 4.02558881 -5.86962551 4.21738987 -9.75 4.125 C-10.73484375 4.10695313 -11.7196875 4.08890625 -12.734375 4.0703125 C-13.85585938 4.03550781 -13.85585938 4.03550781 -15 4 C-14.67 3.34 -14.34 2.68 -14 2 C-9.17574056 0.52819204 -5.07522852 -0.25376143 0 0 Z " fill="#EF7012" transform="translate(363,399)"/>
<path d="M0 0 C0.33 0 0.66 0 1 0 C1.76681614 12.59282511 1.76681614 12.59282511 -0.11328125 16.04296875 C-1.5 17.375 -1.5 17.375 -4 19 C-4.66 18.67 -5.32 18.34 -6 18 C-5.36578125 17.31550781 -4.7315625 16.63101562 -4.078125 15.92578125 C-1.67868159 12.5476175 -1.24481644 10.26973559 -0.75 6.1875 C-0.60046875 5.02605469 -0.4509375 3.86460937 -0.296875 2.66796875 C-0.19890625 1.78753906 -0.1009375 0.90710938 0 0 Z " fill="#E9853D" transform="translate(258,378)"/>
<path d="M0 0 C0.99 0 1.98 0 3 0 C1.10463724 6.51819877 -1.5178994 12.17814801 -5 18 C-6 16 -6 16 -5.0625 12.875 C-4.711875 11.92625 -4.36125 10.9775 -4 10 C-3.34 10 -2.68 10 -2 10 C-2 8.68 -2 7.36 -2 6 C-1.34 6 -0.68 6 0 6 C0 4.02 0 2.04 0 0 Z " fill="#EC9250" transform="translate(429,342)"/>
<path d="M0 0 C3.45184975 2.30123317 3.84622387 3.12056007 5 7 C5.28867792 9.62805842 5.50404038 12.17910831 5.625 14.8125 C5.66367187 15.50537109 5.70234375 16.19824219 5.7421875 16.91210938 C5.83573568 18.60767015 5.91892364 20.30379712 6 22 C3.74569439 18.61854158 3.23854158 16.09246246 2.4375 12.125 C2.18871094 10.91070312 1.93992187 9.69640625 1.68359375 8.4453125 C1.45800781 7.30835938 1.23242188 6.17140625 1 5 C0.80535156 4.02804687 0.61070312 3.05609375 0.41015625 2.0546875 C0.27480469 1.37664062 0.13945312 0.69859375 0 0 Z " fill="#ED9757" transform="translate(410,269)"/>
<path d="M0 0 C2.69378789 2.69378789 3.13672837 5.22574981 4.1875 8.875 C4.55230469 10.10992187 4.91710937 11.34484375 5.29296875 12.6171875 C5.93501035 15.68905505 6.12677877 17.14357992 5 20 C2.23136448 16.02760991 1.55076618 12.7733069 1 8 C0.67 7.67 0.34 7.34 0 7 C-0.04092937 4.66702567 -0.04241723 2.33294775 0 0 Z " fill="#EC985C" transform="translate(155,140)"/>
<path d="M0 0 C0.66 0.33 1.32 0.66 2 1 C0 4 0 4 -2 4.6875 C-6.33553694 5.13911843 -10.64540722 5.07609968 -15 5 C-15 4.34 -15 3.68 -15 3 C-14.00097656 2.86722656 -13.00195312 2.73445313 -11.97265625 2.59765625 C-10.68230469 2.42105469 -9.39195312 2.24445313 -8.0625 2.0625 C-6.77472656 1.88847656 -5.48695313 1.71445312 -4.16015625 1.53515625 C-1.14533687 1.33837577 -1.14533687 1.33837577 0 0 Z " fill="#EF8C44" transform="translate(250,397)"/>
<path d="M0 0 C-1.3125 1.5 -1.3125 1.5 -3 3 C-3.99 3 -4.98 3 -6 3 C-6 3.66 -6 4.32 -6 5 C-8.31 5 -10.62 5 -13 5 C-12.67 4.01 -12.34 3.02 -12 2 C-9.78515625 1.015625 -9.78515625 1.015625 -7.0625 0.25 C-6.16660156 -0.01296875 -5.27070313 -0.2759375 -4.34765625 -0.546875 C-2 -1 -2 -1 0 0 Z " fill="#F56E0D" transform="translate(379,394)"/>
<path d="M0 0 C0.99 0.33 1.98 0.66 3 1 C2.01 2.485 2.01 2.485 1 4 C0.34 4 -0.32 4 -1 4 C-1.268125 4.598125 -1.53625 5.19625 -1.8125 5.8125 C-2.98493467 7.97224808 -4.19369282 9.35790256 -6 11 C-6.66 10.67 -7.32 10.34 -8 10 C-7.67 8.68 -7.34 7.36 -7 6 C-6.01 6 -5.02 6 -4 6 C-4.33 5.01 -4.66 4.02 -5 3 C-3.35 3 -1.7 3 0 3 C0 2.01 0 1.02 0 0 Z " fill="#F1944C" transform="translate(113,390)"/>
<path d="M0 0 C0.33 0 0.66 0 1 0 C1.20548332 4.52063311 0.86550324 8.82580535 0.25 13.3125 C0.11078125 14.33988281 -0.0284375 15.36726563 -0.171875 16.42578125 C-1 19 -1 19 -3.078125 20.35546875 C-4.02945312 20.67451172 -4.02945312 20.67451172 -5 21 C-4.80664062 20.23816406 -4.61328125 19.47632813 -4.4140625 18.69140625 C-2.8473236 12.47874359 -1.35673835 6.26186932 0 0 Z " fill="#EF9250" transform="translate(414,329)"/>
<path d="M0 0 C2.71567296 2.71567296 3.24031242 5.76406108 4.1875 9.375 C4.47270508 10.38433594 4.47270508 10.38433594 4.76367188 11.4140625 C5.69373485 14.90094068 6.37823351 17.57636262 5 21 C1.24145567 14.07728579 0.26489076 7.827522 0 0 Z " fill="#ED9A5F" transform="translate(202,308)"/>
<path d="M0 0 C0.33 0 0.66 0 1 0 C1.33 3.96 1.66 7.92 2 12 C2.66 12 3.32 12 4 12 C4 12.99 4 13.98 4 15 C4.66 15 5.32 15 6 15 C6.33 16.32 6.66 17.64 7 19 C6.34 19.33 5.68 19.66 5 20 C1.7298003 14.51450373 -0.15781066 10.73112506 -0.0625 4.25 C-0.05347656 3.45078125 -0.04445312 2.6515625 -0.03515625 1.828125 C-0.02355469 1.22484375 -0.01195312 0.6215625 0 0 Z " fill="#E98D4A" transform="translate(49,372)"/>
<path d="M0 0 C1.65 0 3.3 0 5 0 C0.88881081 3.52387645 -2.46508112 6 -8 6 C-7.1875 4.0625 -7.1875 4.0625 -6 2 C-3 1 -3 1 0 2 C0 1.34 0 0.68 0 0 Z " fill="#F18032" transform="translate(352,201)"/>
<path d="M0 0 C0.33 0 0.66 0 1 0 C1.66 4.95 2.32 9.9 3 15 C-1 12 -1 12 -1.42578125 9.3359375 C-1.38839844 8.35882813 -1.35101563 7.38171875 -1.3125 6.375 C-1.28800781 5.39273437 -1.26351563 4.41046875 -1.23828125 3.3984375 C-1 1 -1 1 0 0 Z " fill="#E88841" transform="translate(430,387)"/>
<path d="M0 0 C0.86625 -0.00515625 1.7325 -0.0103125 2.625 -0.015625 C5 0.25 5 0.25 8 2.25 C8 2.91 8 3.57 8 4.25 C7.113125 3.899375 6.22625 3.54875 5.3125 3.1875 C-0.01182799 1.68061472 -3.89202364 3.46814778 -9 5.25 C-7.36882064 0.35646192 -4.72483387 -0.02812401 0 0 Z " fill="#EB9552" transform="translate(440,381.75)"/>
<path d="M0 0 C0.33 1.32 0.66 2.64 1 4 C2.32 3.67 3.64 3.34 5 3 C4.71812064 4.79323253 4.4241719 6.58457126 4.125 8.375 C3.96257813 9.37273437 3.80015625 10.37046875 3.6328125 11.3984375 C3 14 3 14 1 16 C1 12.7 1 9.4 1 6 C0.34 6.66 -0.32 7.32 -1 8 C-0.67 5.36 -0.34 2.72 0 0 Z " fill="#EDA161" transform="translate(55,332)"/>
<path d="M0 0 C0.66 0 1.32 0 2 0 C2.50904657 1.87256417 3.00682455 3.74819341 3.5 5.625 C3.7784375 6.66914063 4.056875 7.71328125 4.34375 8.7890625 C4.99118596 11.95687418 5.1161292 14.77741467 5 18 C2.92297641 14.88446461 2.25093145 12.60989929 1.375 9 C0.98441406 7.4221875 0.98441406 7.4221875 0.5859375 5.8125 C0 3 0 3 0 0 Z " fill="#ED985B" transform="translate(155,203)"/>
<path d="M0 0 C0.97919756 3.07550784 0.98561151 5.02444072 0.125 8.125 C-0.05804688 8.80820313 -0.24109375 9.49140625 -0.4296875 10.1953125 C-1 12 -1 12 -2 14 C-2.99 14 -3.98 14 -5 14 C-3.45730076 9.27934033 -1.92205381 4.58335908 0 0 Z " fill="#ED9552" transform="translate(367,168)"/>
<path d="M0 0 C0.99 0.66 1.98 1.32 3 2 C2.54917531 3.46067199 2.08906463 4.91848032 1.625 6.375 C1.36976562 7.18710938 1.11453125 7.99921875 0.8515625 8.8359375 C0 11 0 11 -2 13 C-2.19294408 8.17639811 -1.75747614 4.50353262 0 0 Z " fill="#EB7317" transform="translate(105,160)"/>
<path d="M0 0 C0.33 0 0.66 0 1 0 C0.35812082 5.13503344 -0.68272247 9.9943454 -2 15 C-2.33 15 -2.66 15 -3 15 C-3.56229448 4.27475338 -3.56229448 4.27475338 0 0 Z " fill="#F46F0C" transform="translate(64,309)"/>
<path d="M0 0 C0.66 0 1.32 0 2 0 C2.31563182 5.26053037 1.66590937 8.44573816 -1 13 C-1.33 13 -1.66 13 -2 13 C-2 10.36 -2 7.72 -2 5 C-1.34 5 -0.68 5 0 5 C0 3.35 0 1.7 0 0 Z " fill="#F1700F" transform="translate(69,287)"/>
<path d="M0 0 C1.32 0 2.64 0 4 0 C4 0.66 4 1.32 4 2 C4.66 2.33 5.32 2.66 6 3 C5.01 4.485 5.01 4.485 4 6 C2.68 6 1.36 6 0 6 C-1.125 2.25 -1.125 2.25 0 0 Z " fill="#F96D05" transform="translate(392,233)"/>
<path d="M0 0 C3.63 0.66 7.26 1.32 11 2 C11 2.33 11 2.66 11 3 C9.35 3.33 7.7 3.66 6 4 C6 4.66 6 5.32 6 6 C3.36 5.67 0.72 5.34 -2 5 C-0.68 4.67 0.64 4.34 2 4 C1.34 2.68 0.68 1.36 0 0 Z " fill="#ED9554" transform="translate(357,216)"/>
<path d="M0 0 C-0.33 0.99 -0.66 1.98 -1 3 C1.97 3.495 1.97 3.495 5 4 C5 4.33 5 4.66 5 5 C-0.94 5.495 -0.94 5.495 -7 6 C-4 0 -4 0 0 0 Z " fill="#ED7F30" transform="translate(329,213)"/>
<path d="M0 0 C2.52588702 2.36292656 3.88820837 3.66462511 5 7 C5.66 7.66 6.32 8.32 7 9 C6.625 11.625 6.625 11.625 6 14 C3.07413567 12.53706784 2.94053412 10.59729902 1.875 7.5625 C1.34519531 6.07943359 1.34519531 6.07943359 0.8046875 4.56640625 C0 2 0 2 0 0 Z " fill="#E98E46" transform="translate(379,112)"/>
<path d="M0 0 C0.33 0 0.66 0 1 0 C1 5.28 1 10.56 1 16 C0.67 15.01 0.34 14.02 0 13 C-0.66 13 -1.32 13 -2 13 C-2.33 13.66 -2.66 14.32 -3 15 C-2.86722656 14.41992188 -2.73445313 13.83984375 -2.59765625 13.2421875 C-1.60295999 8.84229018 -0.68631668 4.46105842 0 0 Z " fill="#EC8944" transform="translate(123,90)"/>
<path d="M0 0 C0.33 0 0.66 0 1 0 C0.4140625 6.15234375 0.4140625 6.15234375 0 8 C-0.99 8.495 -0.99 8.495 -2 9 C-2.65213292 11.02463255 -2.65213292 11.02463255 -3 13 C-3.66 13 -4.32 13 -5 13 C-5.1875 10.6875 -5.1875 10.6875 -5 8 C-3.625 6.5 -3.625 6.5 -2 5 C-0.80972016 2.40084462 -0.80972016 2.40084462 0 0 Z " fill="#EE8233" transform="translate(70,294)"/>
<path d="M0 0 C0.25 2.8125 0.25 2.8125 0 6 C-2 7.875 -2 7.875 -4 9 C-4.66 8.67 -5.32 8.34 -6 8 C-5.67 7.01 -5.34 6.02 -5 5 C-4.01 5 -3.02 5 -2 5 C-2 4.34 -2 3.68 -2 3 C-3.32 3.33 -4.64 3.66 -6 4 C-2.25 0 -2.25 0 0 0 Z " fill="#EF9954" transform="translate(308,225)"/>
<path d="M0 0 C0.33 0 0.66 0 1 0 C1 1.65 1 3.3 1 5 C1.66 5 2.32 5 3 5 C2.25 9.75 2.25 9.75 0 12 C0 10.35 0 8.7 0 7 C-0.99 7.33 -1.98 7.66 -3 8 C-1.125 2.25 -1.125 2.25 0 0 Z " fill="#EC9356" transform="translate(148,309)"/>
<path d="M0 0 C0.66 0 1.32 0 2 0 C2 1.98 2 3.96 2 6 C1.67 6 1.34 6 1 6 C0.34 7.98 -0.32 9.96 -1 12 C-1.33 12 -1.66 12 -2 12 C-2.17835515 7.45194365 -1.99785435 4.1205746 0 0 Z " fill="#F37010" transform="translate(83,239)"/>
<path d="M0 0 C4.29 0 8.58 0 13 0 C13.33 0.99 13.66 1.98 14 3 C8.80790596 3.21192221 4.873261 2.5912689 0 1 C0 0.67 0 0.34 0 0 Z " fill="#F66F0C" transform="translate(322,84)"/>
<path d="M0 0 C3.63 0 7.26 0 11 0 C11 0.33 11 0.66 11 1 C8.36 1 5.72 1 3 1 C3 1.66 3 2.32 3 3 C2.01 3.66 1.02 4.32 0 5 C-0.73343428 8.06556598 -0.73343428 8.06556598 -1 11 C-1.33 11 -1.66 11 -2 11 C-2 8.36 -2 5.72 -2 3 C-1.34 3 -0.68 3 0 3 C0 2.01 0 1.02 0 0 Z " fill="#F19A5C" transform="translate(145,85)"/>
<path d="M0 0 C2.46934085 3.70401128 2.44928433 6.70587865 2 11 C1 13.5 1 13.5 0 15 C-0.33 15 -0.66 15 -1 15 C-0.67 10.05 -0.34 5.1 0 0 Z " fill="#EC924E" transform="translate(449,386)"/>
<path d="M0 0 C1.22419163 3.93795909 0.48320272 6.16112237 -1 10 C-1.66 10 -2.32 10 -3 10 C-3 10.99 -3 11.98 -3 13 C-3.99 13 -4.98 13 -6 13 C-4.31326082 8.50202887 -2.18326108 4.27113698 0 0 Z " fill="#EF9555" transform="translate(126,358)"/>
<path d="M0 0 C0.99 0.33 1.98 0.66 3 1 C3 2.32 3 3.64 3 5 C4.32 5 5.64 5 7 5 C7 6.65 7 8.3 7 10 C5.82460004 9.07347299 4.65989423 8.13336613 3.5 7.1875 C2.52546875 6.40439453 2.52546875 6.40439453 1.53125 5.60546875 C-0.38667197 3.59458628 0 2.71630148 0 0 Z " fill="#EF8F48" transform="translate(389,234)"/>
<path d="M0 0 C-0.50797009 4.3177458 -1.19682779 8.03302114 -3 12 C-3.33 12 -3.66 12 -4 12 C-4.08131463 10.56344146 -4.13933559 9.1255517 -4.1875 7.6875 C-4.22230469 6.88699219 -4.25710937 6.08648437 -4.29296875 5.26171875 C-3.98428663 2.87869278 -2.85980321 0 0 0 Z " fill="#F0741A" transform="translate(101,181)"/>
<path d="M0 0 C0.33 0 0.66 0 1 0 C3.27141454 5.39460953 3.20413361 10.26157749 3 16 C0.9642176 11.92843521 -0.12165065 9.48875072 -0.0625 4.875 C-0.05347656 3.96492188 -0.04445312 3.05484375 -0.03515625 2.1171875 C-0.02355469 1.41851562 -0.01195312 0.71984375 0 0 Z " fill="#EF8B3F" transform="translate(130,107)"/>
<path d="M0 0 C2.625 0.375 2.625 0.375 5 1 C5 1.66 5 2.32 5 3 C3.35 3 1.7 3 0 3 C0.33 3.99 0.66 4.98 1 6 C0.01 6.33 -0.98 6.66 -2 7 C-2.125 4.625 -2.125 4.625 -2 2 C-1.34 1.34 -0.68 0.68 0 0 Z " fill="#F27F28" transform="translate(168,280)"/>
<path d="M0 0 C2.63391327 1.941158 3.01844789 3.08474189 3.73046875 6.35546875 C3.88128906 7.62003906 4.03210938 8.88460938 4.1875 10.1875 C4.34605469 11.45980469 4.50460938 12.73210937 4.66796875 14.04296875 C4.77753906 15.01878906 4.88710937 15.99460937 5 17 C2.5863604 14.5863604 2.24467148 12.90164101 1.375 9.625 C1.11460937 8.66851562 0.85421875 7.71203125 0.5859375 6.7265625 C0 4 0 4 0 0 Z " fill="#EFA166" transform="translate(168,250)"/>
<path d="M0 0 C0 3.44360632 -0.79591532 4.74795392 -2.5 7.6875 C-2.9640625 8.49574219 -3.428125 9.30398437 -3.90625 10.13671875 C-4.2671875 10.75160156 -4.628125 11.36648437 -5 12 C-5.33 12 -5.66 12 -6 12 C-6 10.35 -6 8.7 -6 7 C-5.01 6.67 -4.02 6.34 -3 6 C-2.87625 5.195625 -2.7525 4.39125 -2.625 3.5625 C-2.41875 2.716875 -2.2125 1.87125 -2 1 C-1.34 0.67 -0.68 0.34 0 0 Z " fill="#E88D43" transform="translate(382,170)"/>
<path d="M0 0 C1.65 0.33 3.3 0.66 5 1 C2.19195732 3.96404505 -0.18315774 6.44499019 -4 8 C-3.67 6.68 -3.34 5.36 -3 4 C-2.01 4 -1.02 4 0 4 C0 2.68 0 1.36 0 0 Z " fill="#EC8D45" transform="translate(401,379)"/>
<path d="M0 0 C1.57156655 3.1431331 0.11705576 5.365464 -0.9375 8.625 C-1.31777344 9.81351562 -1.69804688 11.00203125 -2.08984375 12.2265625 C-2.39019531 13.14179688 -2.69054688 14.05703125 -3 15 C-3.33 15 -3.66 15 -4 15 C-3.40546697 4.44191344 -3.40546697 4.44191344 0 0 Z " fill="#EE9E58" transform="translate(66,311)"/>
<path d="M0 0 C0.33 0 0.66 0 1 0 C1.1799928 5.21979128 0.97094808 9.07262981 -1 14 C-1.33 14 -1.66 14 -2 14 C-2.3690205 4.58997722 -2.3690205 4.58997722 0 0 Z " fill="#EF8840" transform="translate(385,155)"/>
<path d="M0 0 C1.45606519 4.52092968 0.27032841 7.51648796 -1 12 C-1.66 12 -2.32 12 -3 12 C-2.88648483 10.18674449 -2.75887039 8.37436643 -2.625 6.5625 C-2.55539063 5.55316406 -2.48578125 4.54382813 -2.4140625 3.50390625 C-2.27742188 2.67761719 -2.14078125 1.85132812 -2 1 C-1.34 0.67 -0.68 0.34 0 0 Z " fill="#EE7014" transform="translate(120,111)"/>
<path d="M0 0 C3.26566506 4.89849759 3.09311493 8.31998909 3 14 C-0.2102122 10.7897878 0.01025241 7.62539686 -0.0625 3.1875 C-0.041875 2.135625 -0.02125 1.08375 0 0 Z " fill="#EC8639" transform="translate(196,346)"/>
<path d="M0 0 C2.73704754 2.73704754 3.16182449 5.26044774 4 9 C3.625 11.4375 3.625 11.4375 3 13 C-0.36055646 8.51925805 -0.27429625 5.39449293 0 0 Z " fill="#EA8B48" transform="translate(209,334)"/>
<path d="M0 0 C0.66 0.33 1.32 0.66 2 1 C2.625 3.0625 2.625 3.0625 3 5 C1.02 5.99 1.02 5.99 -1 7 C-1 6.01 -1 5.02 -1 4 C-1.66 3.67 -2.32 3.34 -3 3 C-2.01 2.01 -1.02 1.02 0 0 Z " fill="#ED9655" transform="translate(291,236)"/>
<path d="M0 0 C0 0.66 0 1.32 0 2 C-0.99 2 -1.98 2 -3 2 C-3 2.66 -3 3.32 -3 4 C-3.99 4 -4.98 4 -6 4 C-6 4.99 -6 5.98 -6 7 C-6.99 6.67 -7.98 6.34 -9 6 C-6.54625122 1.21518987 -6.54625122 1.21518987 -3.9375 0.1875 C-2 0 -2 0 0 0 Z " fill="#F07730" transform="translate(306,228)"/>
<path d="M0 0 C2.875 0.1875 2.875 0.1875 6 1 C7.375 3.5625 7.375 3.5625 8 6 C4.08597051 4.73058503 2.20927127 3.48832306 0 0 Z " fill="#F46F0C" transform="translate(373,223)"/>
<path d="M0 0 C2.98479194 4.47718792 4 8.63824093 4 14 C3.34 14 2.68 14 2 14 C1.66179834 12.4176994 1.32964061 10.83410625 1 9.25 C0.814375 8.36828125 0.62875 7.4865625 0.4375 6.578125 C0 4 0 4 0 0 Z " fill="#E98E4C" transform="translate(170,193)"/>
<path d="M0 0 C0.66 0 1.32 0 2 0 C2.34833144 4.87664009 1.41685712 7.77050005 -1 12 C-1.33 12 -1.66 12 -2 12 C-1.44687265 7.97007218 -0.8441938 3.97977076 0 0 Z " fill="#F36F0B" transform="translate(109,146)"/>
<path d="M0 0 C0.33 0 0.66 0 1 0 C1.53251766 1.91345327 2.05059483 3.8309295 2.5625 5.75 C2.85253906 6.81734375 3.14257812 7.8846875 3.44140625 8.984375 C3.97098494 11.84335927 3.98370862 13.31597383 3 16 C-0.39366878 10.62669111 -0.32712342 6.13053511 0 0 Z " fill="#EC9655" transform="translate(151,123)"/>
<path d="M0 0 C3.53600465 1.91135386 5.78972846 3.62642766 8 7 C5.03 6.505 5.03 6.505 2 6 C1.34 4.02 0.68 2.04 0 0 Z " fill="#EF904D" transform="translate(365,97)"/>
<path d="M0 0 C2.42130331 2.42130331 2.52840504 3.80111377 3.125 7.125 C3.29257813 8.03507812 3.46015625 8.94515625 3.6328125 9.8828125 C3.81457031 10.93082031 3.81457031 10.93082031 4 12 C2.015625 10.79296875 2.015625 10.79296875 0 9 C-0.390625 6.73828125 -0.390625 6.73828125 -0.25 4.3125 C-0.21390625 3.50425781 -0.1778125 2.69601562 -0.140625 1.86328125 C-0.09421875 1.24839844 -0.0478125 0.63351562 0 0 Z " fill="#EE9356" transform="translate(213,348)"/>
<path d="M0 0 C1.65 0.33 3.3 0.66 5 1 C2.11912454 3.40072955 -0.56404834 5.47291037 -4 7 C-4 5.68 -4 4.36 -4 3 C-2.35 3 -0.7 3 1 3 C0.67 2.01 0.34 1.02 0 0 Z " fill="#F09247" transform="translate(172,280)"/>
<path d="M0 0 C0.66 1.65 1.32 3.3 2 5 C-1.3 4.01 -4.6 3.02 -8 2 C-4.77208445 -0.1519437 -3.71599191 -0.20086443 0 0 Z " fill="#F0771C" transform="translate(250,83)"/>
<path d="M0 0 C-0.33 1.32 -0.66 2.64 -1 4 C-2.98 4 -4.96 4 -7 4 C-7 3.01 -7 2.02 -7 1 C-4.53721199 -0.231394 -2.7204945 -0.07159196 0 0 Z " fill="#FA6D04" transform="translate(388,389)"/>
<path d="M0 0 C0.66 0.33 1.32 0.66 2 1 C2 2.65 2 4.3 2 6 C2.66 6 3.32 6 4 6 C3.67 7.32 3.34 8.64 3 10 C0.525 6.04 0.525 6.04 -2 2 C-1.34 2 -0.68 2 0 2 C0 1.34 0 0.68 0 0 Z " fill="#F38D4B" transform="translate(361,104)"/>
<path d="M0 0 C0.33 0 0.66 0 1 0 C1 2.64 1 5.28 1 8 C0.01 8.33 -0.98 8.66 -2 9 C-2.25 3.375 -2.25 3.375 0 0 Z " fill="#F26F0F" transform="translate(56,337)"/>
<path d="M0 0 C3.53600465 1.91135386 5.78972846 3.62642766 8 7 C6.35 6.67 4.7 6.34 3 6 C3 5.34 3 4.68 3 4 C2.34 4 1.68 4 1 4 C0.67 2.68 0.34 1.36 0 0 Z " fill="#ED8A43" transform="translate(402,237)"/>
<path d="M0 0 C1.485 0.99 1.485 0.99 3 2 C2 6 2 6 1 10 C0.34 10 -0.32 10 -1 10 C-0.67 6.7 -0.34 3.4 0 0 Z " fill="#EF7115" transform="translate(90,212)"/>
<path d="M0 0 C0 0.66 0 1.32 0 2 C0.66 2 1.32 2 2 2 C1.34 3.32 0.68 4.64 0 6 C-0.99 5.67 -1.98 5.34 -3 5 C-2.67 4.01 -2.34 3.02 -2 2 C-2.66 1.67 -3.32 1.34 -4 1 C-2 0 -2 0 0 0 Z " fill="#EC9146" transform="translate(317,220)"/>
<path d="M0 0 C1.04059132 3.12177395 1.32284898 4.07083439 0 7 C-2.5625 8.25 -2.5625 8.25 -5 9 C-5 8.34 -5 7.68 -5 7 C-4.34 7 -3.68 7 -3 7 C-3 6.01 -3 5.02 -3 4 C-2.34 4 -1.68 4 -1 4 C-0.67 2.68 -0.34 1.36 0 0 Z " fill="#EF9345" transform="translate(361,182)"/>
<path d="M0 0 C0.66 0 1.32 0 2 0 C2.125 3.375 2.125 3.375 2 7 C1.34 7.66 0.68 8.32 0 9 C-0.87890625 2.84765625 -0.87890625 2.84765625 -1 1 C-0.67 0.67 -0.34 0.34 0 0 Z " fill="#E87826" transform="translate(111,141)"/>
<path d="M0 0 C1.60517097 0.08733576 3.20921662 0.19552224 4.8125 0.3125 C6.15248047 0.39951172 6.15248047 0.39951172 7.51953125 0.48828125 C10.30604 1.06313581 11.24135754 1.8206856 13 4 C8.51474352 3.343621 4.33085971 2.29925791 0 1 C0 0.67 0 0.34 0 0 Z " fill="#EE9D64" transform="translate(325,86)"/>
<path d="M0 0 C2.66735273 2.48952921 4.55746343 4.63408134 6 8 C4.125 7.6875 4.125 7.6875 2 7 C0 4 0 4 0 0 Z " fill="#EC9054" transform="translate(58,373)"/>
<path d="M0 0 C0.66 0 1.32 0 2 0 C2 1.98 2 3.96 2 6 C0.68 6.33 -0.64 6.66 -2 7 C-2 5.68 -2 4.36 -2 3 C-1.34 3 -0.68 3 0 3 C0 2.01 0 1.02 0 0 Z " fill="#F96D07" transform="translate(123,368)"/>
<path d="M0 0 C0.66 0 1.32 0 2 0 C1.47731534 2.76276177 0.89130413 5.3260876 0 8 C-0.66 8 -1.32 8 -2 8 C-2.20086443 4.28400809 -2.1519437 3.22791555 0 0 Z " fill="#F46D0C" transform="translate(133,347)"/>
<path d="M0 0 C0.66 0 1.32 0 2 0 C1.49396008 2.16874252 1.00016187 3.99967627 0 6 C-2.0625 6.625 -2.0625 6.625 -4 7 C-2.79618552 4.50638429 -1.54571278 2.31856917 0 0 Z " fill="#EE9051" transform="translate(395,373)"/>
<path d="M0 0 C1.0326802 2.78823655 1.04509293 3.8677274 0.0625 6.75 C-0.288125 7.4925 -0.63875 8.235 -1 9 C-1.33 9 -1.66 9 -2 9 C-2 6.36 -2 3.72 -2 1 C-1.34 0.67 -0.68 0.34 0 0 Z " fill="#EE7A26" transform="translate(161,290)"/>
<path d="M0 0 C0.33 0 0.66 0 1 0 C1.125 7.625 1.125 7.625 0 11 C-0.66 11 -1.32 11 -2 11 C-1.40049704 7.31733897 -0.75241109 3.65456815 0 0 Z " fill="#E78F50" transform="translate(95,190)"/>
<path d="M0 0 C0.33 1.32 0.66 2.64 1 4 C-1.31 5.32 -3.62 6.64 -6 8 C-6 6 -6 6 -4.625 4.375 C-3 3 -3 3 -1 3 C-0.67 2.01 -0.34 1.02 0 0 Z " fill="#EB9156" transform="translate(355,191)"/>
<path d="M0 0 C1 3 1 3 -0.4375 6.1875 C-1.2109375 7.5796875 -1.2109375 7.5796875 -2 9 C-2.33 9 -2.66 9 -3 9 C-2.67 6.69 -2.34 4.38 -2 2 C-1.34 2 -0.68 2 0 2 C0 1.34 0 0.68 0 0 Z " fill="#F0A76F" transform="translate(136,348)"/>
<path d="M0 0 C0.33 0 0.66 0 1 0 C1.29296875 6.0546875 1.29296875 6.0546875 1 8 C0.01 8.66 -0.98 9.32 -2 10 C-1.34 6.7 -0.68 3.4 0 0 Z " fill="#F19653" transform="translate(66,293)"/>
<path d="M0 0 C1.98 1.65 3.96 3.3 6 5 C4.68 5.33 3.36 5.66 2 6 C0 2.25 0 2.25 0 0 Z " fill="#EF8940" transform="translate(410,244)"/>
<path d="M0 0 C1.98 0 3.96 0 6 0 C6 0.99 6 1.98 6 3 C4.35 3 2.7 3 1 3 C0.67 2.01 0.34 1.02 0 0 Z " fill="#ED7015" transform="translate(362,219)"/>
<path d="M0 0 C1.485 0.99 1.485 0.99 3 2 C3.40843923 4.71203652 3.13336867 7.2437142 3 10 C0.70366176 6.55549263 0.45983515 4.06187717 0 0 Z " fill="#EC904C" transform="translate(144,163)"/>
<path d="M0 0 C2.83374881 3.20336822 3.5205537 5.78087253 4 10 C0.06153846 5.69230769 0.06153846 5.69230769 -0.25 2.1875 C-0.1675 1.465625 -0.085 0.74375 0 0 Z " fill="#EB8C48" transform="translate(157,150)"/>
<path d="" fill="#FFFFFF" transform="translate(0,0)"/>
<path d="" fill="#FFFFFF" transform="translate(0,0)"/>
<path d="" fill="#FFFFFF" transform="translate(0,0)"/>
<path d="" fill="#FFFFFF" transform="translate(0,0)"/>
<path d="" fill="#FFFFFF" transform="translate(0,0)"/>
<path d="" fill="#FFFFFF" transform="translate(0,0)"/>
<path d="" fill="#FFFFFF" transform="translate(0,0)"/>
<path d="" fill="#FFFFFF" transform="translate(0,0)"/>
<path d="" fill="#FFFFFF" transform="translate(0,0)"/>
<path d="" fill="#FFFFFF" transform="translate(0,0)"/>
<path d="" fill="#FFFFFF" transform="translate(0,0)"/>
<path d="" fill="#FFFFFF" transform="translate(0,0)"/>
<path d="" fill="#FFFFFF" transform="translate(0,0)"/>
<path d="" fill="#FFFFFF" transform="translate(0,0)"/>
<path d="" fill="#FFFFFF" transform="translate(0,0)"/>
<path d="" fill="#FFFFFF" transform="translate(0,0)"/>
<path d="" fill="#FFFFFF" transform="translate(0,0)"/>
<path d="" fill="#FFFFFF" transform="translate(0,0)"/>
<path d="" fill="#FFFFFF" transform="translate(0,0)"/>
<path d="" fill="#FFFFFF" transform="translate(0,0)"/>
<path d="" fill="#FFFFFF" transform="translate(0,0)"/>
<path d="" fill="#FFFFFF" transform="translate(0,0)"/>
<path d="" fill="#FFFFFF" transform="translate(0,0)"/>
<path d="" fill="#FFFFFF" transform="translate(0,0)"/>
<path d="" fill="#FFFFFF" transform="translate(0,0)"/>
<path d="" fill="#FFFFFF" transform="translate(0,0)"/>
<path d="" fill="#FFFFFF" transform="translate(0,0)"/>
<path d="" fill="#FFFFFF" transform="translate(0,0)"/>
<path d="" fill="#FFFFFF" transform="translate(0,0)"/>
<path d="" fill="#FFFFFF" transform="translate(0,0)"/>
<path d="" fill="#FFFFFF" transform="translate(0,0)"/>
<path d="" fill="#FFFFFF" transform="translate(0,0)"/>
<path d="" fill="#FFFFFF" transform="translate(0,0)"/>
<path d="" fill="#FFFFFF" transform="translate(0,0)"/>
<path d="" fill="#FFFFFF" transform="translate(0,0)"/>
<path d="" fill="#FFFFFF" transform="translate(0,0)"/>
<path d="" fill="#FFFFFF" transform="translate(0,0)"/>
<path d="" fill="#FFFFFF" transform="translate(0,0)"/>
<path d="" fill="#FFFFFF" transform="translate(0,0)"/>
<path d="" fill="#FFFFFF" transform="translate(0,0)"/>
<path d="" fill="#FFFFFF" transform="translate(0,0)"/>
<path d="" fill="#FFFFFF" transform="translate(0,0)"/>
<path d="" fill="#FFFFFF" transform="translate(0,0)"/>
<path d="" fill="#FFFFFF" transform="translate(0,0)"/>
<path d="" fill="#FFFFFF" transform="translate(0,0)"/>
<path d="" fill="#FFFFFF" transform="translate(0,0)"/>
<path d="" fill="#FFFFFF" transform="translate(0,0)"/>
<path d="" fill="#FFFFFF" transform="translate(0,0)"/>
<path d="" fill="#FFFFFF" transform="translate(0,0)"/>
<path d="" fill="#FFFFFF" transform="translate(0,0)"/>
<path d="" fill="#FFFFFF" transform="translate(0,0)"/>
<path d="" fill="#FFFFFF" transform="translate(0,0)"/>
<path d="" fill="#FFFFFF" transform="translate(0,0)"/>
<path d="" fill="#FFFFFF" transform="translate(0,0)"/>
<path d="" fill="#FFFFFF" transform="translate(0,0)"/>
<path d="" fill="#FFFFFF" transform="translate(0,0)"/>
<path d="" fill="#FFFFFF" transform="translate(0,0)"/>
<path d="" fill="#FFFFFF" transform="translate(0,0)"/>
<path d="" fill="#FFFFFF" transform="translate(0,0)"/>
<path d="" fill="#FFFFFF" transform="translate(0,0)"/>
<path d="" fill="#FFFFFF" transform="translate(0,0)"/>
<path d="" fill="#FFFFFF" transform="translate(0,0)"/>
<path d="" fill="#FFFFFF" transform="translate(0,0)"/>
<path d="" fill="#FFFFFF" transform="translate(0,0)"/>
<path d="" fill="#FFFFFF" transform="translate(0,0)"/>
<path d="" fill="#FFFFFF" transform="translate(0,0)"/>
<path d="" fill="#FFFFFF" transform="translate(0,0)"/>
<path d="" fill="#FFFFFF" transform="translate(0,0)"/>
<path d="" fill="#FFFFFF" transform="translate(0,0)"/>
<path d="" fill="#FFFFFF" transform="translate(0,0)"/>
<path d="" fill="#FFFFFF" transform="translate(0,0)"/>
<path d="" fill="#FFFFFF" transform="translate(0,0)"/>
<path d="" fill="#FFFFFF" transform="translate(0,0)"/>
<path d="" fill="#FFFFFF" transform="translate(0,0)"/>
<path d="" fill="#FFFFFF" transform="translate(0,0)"/>
<path d="" fill="#FFFFFF" transform="translate(0,0)"/>
<path d="" fill="#FFFFFF" transform="translate(0,0)"/>
<path d="" fill="#FFFFFF" transform="translate(0,0)"/>
<path d="" fill="#FFFFFF" transform="translate(0,0)"/>
<path d="" fill="#FFFFFF" transform="translate(0,0)"/>
<path d="" fill="#FFFFFF" transform="translate(0,0)"/>
<path d="" fill="#FFFFFF" transform="translate(0,0)"/>
<path d="" fill="#FFFFFF" transform="translate(0,0)"/>
<path d="" fill="#FFFFFF" transform="translate(0,0)"/>
<path d="" fill="#FFFFFF" transform="translate(0,0)"/>
<path d="" fill="#FFFFFF" transform="translate(0,0)"/>
<path d="" fill="#FFFFFF" transform="translate(0,0)"/>
<path d="" fill="#FFFFFF" transform="translate(0,0)"/>
<path d="" fill="#FFFFFF" transform="translate(0,0)"/>
<path d="" fill="#FFFFFF" transform="translate(0,0)"/>
<path d="" fill="#FFFFFF" transform="translate(0,0)"/>
<path d="" fill="#FFFFFF" transform="translate(0,0)"/>
</svg>
